<mxfile host="Electron" agent="Mozilla/5.0 (X11; Linux x86_64) AppleWebKit/537.36 (KHTML, like Gecko) draw.io/25.0.1 Chrome/128.0.6613.186 Electron/32.2.6 Safari/537.36" version="25.0.1">
  <diagram name="Page-1" id="CKLeySYa5P5fwl4Mpjmv">
    <mxGraphModel dx="5157" dy="952" grid="1" gridSize="10" guides="1" tooltips="1" connect="1" arrows="1" fold="1" page="1" pageScale="1" pageWidth="850" pageHeight="1100" background="#ffffff" math="0" shadow="0">
      <root>
        <mxCell id="0" />
        <mxCell id="1" parent="0" />
        <mxCell id="2FmbblZv4TmwolMo87OG-6" value="" style="shape=image;verticalLabelPosition=bottom;labelBackgroundColor=default;verticalAlign=top;aspect=fixed;imageAspect=0;image=data:image/svg+xml,PHN2ZyB4bWxuczp4bGluaz0iaHR0cDovL3d3dy53My5vcmcvMTk5OS94bGluayIgeG1sbnM9Imh0dHA6Ly93d3cudzMub3JnLzIwMDAvc3ZnIiBoZWlnaHQ9IjEwMjQiIHdpZHRoPSIxMDI0IiB2aWV3Qm94PSIwIDAgMTAyNCAxMDI0Ij4mI3hhOwk8cGF0aCBkPSJNMjAuNDcxOCAxMDEuODY3QzI3LjUxOTkgOTUuNjA4NiAzNi40MDQyIDk1LjY3ODkgNDUuMTgxMiA5NS43MDA4TDkwLjA5OTYgOTUuNzAzNEM5NS45MDA3IDk1LjcwMDggMTA3LjAzNCA5My45ODkzIDExMS4zNDEgOTguNjk0MkMxMTQuNjk5IDEwMi4zNjEgMTE0LjY0NiAxMDguODk2IDExMC42OSAxMTIuMTUxQzEwNi4wNiAxMTUuOTYgOTMuODIzNiAxMTQuMjE1IDg4LjIzMTkgMTE0LjIxN0w1Mi4yNjQ0IDExNC4yMzVDNDQuNjM1OCAxMTQuMjE4IDM4LjMyNTUgMTEyLjg3NyAzMS41NSAxMTYuOTI2TDMxLjY1NDUgMTE2LjI3NEMzMy40NDM5IDExNC42MDQgMzUuOTcyMiAxMTUuMTc4IDM2LjI1NTIgMTEyLjA3OEMzNi43MjgyIDEwNi44OTUgMzIuMzYyOCAxMDEuNDQ0IDI5LjMxODUgOTcuNzIxOEMyNy4yNjQ4IDk4LjU3MDUgMjEuOTcxMyAxMDEuODY3IDIwLjQ3MTggMTAxLjg2N1oiIHRyYW5zZm9ybT0ic2NhbGUoMiAyKSIgZmlsbD0iIzA4NkZCNiIvPiYjeGE7CTxwYXRoIGQ9Ik0xOTguNTgyIDM0NC41MzRDMjAzLjU0MiAzNDQuMTc2IDIwOC42ODggMzQ0LjUyIDIxMy42NzUgMzQ0LjUzM0wyNzYuNDA3IDM0NC41MzNDMjgyLjM0NCAzNDQuNTI2IDI5Ni4xMjYgMzQzLjIyOCAzMDEuMzYgMzQ1Ljg1NEMzMDkuMjg2IDM0OS44MzEgMzA2Ljk2OCAzNjEuMzYgMjk4LjE4OCAzNjMuOTc3QzI5NC4zODQgMzY0LjUzMyAyOTAuNjMyIDM2NC4wMzUgMjg2LjgxOCAzNjMuOTk4TDIyMi41NDQgMzYzLjk3NEMyMTUuMzEzIDM2My45NzYgMjA3Ljg0IDM2NC4zODIgMjAwLjYzNyAzNjMuOTM0QzE4OC44OTQgMzYzLjIwNCAxODYuNTI3IDM0Ny4zMTIgMTk4LjU4MiAzNDQuNTM0WiIgdHJhbnNmb3JtPSJzY2FsZSgyIDIpIiBmaWxsPSIjMEI0MTY4Ii8+JiN4YTsJPHBhdGggZD0iTTMxNS4yOSAxMjIuNzc5QzMwOS40NTQgMTEyLjg0MyAzMDQuODQ3IDExNC4yMTEgMjk0LjcxOCAxMTQuMjI0TDE1MS4xODggMTE0LjIxNkMxNDQuMzIzIDExNC4yMzkgMTMzLjk0NCAxMTYuNDk3IDEzMC40NzMgMTA4LjYyM0MxMjIuOTYzIDkxLjU4NzQgMTUzLjY0IDk1LjcxNDUgMTYwLjY5NyA5NS43MTY2TDI4MS44ODEgOTUuNzE2MUMzMDAuNDUyIDk1LjcxMzkgMzIxLjQyMiA5Mi42MDQgMzMwLjc1NCAxMTMuOTQ2QzMzMS45ODcgMTE2Ljc2NSAzMzIuNzY2IDExOS44NTIgMzMzLjczOSAxMjIuNzc5QzMyOC4wNjEgMTIyLjc3NSAzMjAuNzc4IDEyMi4zNTkgMzE1LjI5IDEyMi43NzlaIiB0cmFuc2Zvcm09InNjYWxlKDIgMikiIGZpbGw9IiMwODZGQjYiLz4mI3hhOwk8cGF0aCBkPSJNMzkyLjM5OCAxNjcuOTM1QzM5Ni44ODUgMTY3Ljk1NyA0MDkuMzcxIDE2Ny4xNDYgNDEyLjk0OSAxNjguNTEzQzQxNy4wMjMgMTcwLjA2OSA0NDAuNzcxIDE5Ni41NDggNDQ1LjU1NSAyMDEuNDM0TDQ1OS4xMzQgMjE1LjJDNDY1LjAxNSAyMjEuMTU3IDQ3NS42MDkgMjI5LjUyMyA0NjYuNjYxIDIzOC4wNzlDNDYyLjM4NyAyNDIuMTY1IDQ1NS43NDQgMjQwLjkyMyA0NTAuMzQgMjQwLjkyNUw0MzEuMzc1IDI0MC45MTZMMzY4LjkzIDI0MC45MzZDMzUxLjY0NSAyNDAuOTUxIDM1My42IDIzNy42MzQgMzUzLjYwMSAyMjAuNzIxTDM1My42MDggMTg5LjY5MkMzNTMuNjE5IDE3MS41NzggMzUxLjA1MiAxNjcuOTA1IDM3Mi4yNTMgMTY3LjkxMkwzOTIuMzk4IDE2Ny45MzVaTTM5NS44MjEgMTg3LjE4OUwzNzIuMjI5IDE4Ny4xODlMMzcyLjIyOSAyMjEuNjMyTDQxNC42ODggMjIxLjYzMkw0MzAuNzExIDIyMS42NTJDNDMzLjM4NiAyMjEuNjU3IDQzNi4xMzkgMjIxLjgyIDQzOC44MDUgMjIxLjYzMkM0MzYuNDUgMjE4LjI3OSA0MzMuMzg3IDIxNS40NDMgNDMwLjUyOSAyMTIuNTIxTDQxOS45MTQgMjAxLjU5NEM0MTYuNDAxIDE5Ny45NjEgNDA5LjQzOCAxODkuODEzIDQwNS41ODMgMTg3LjE4OUwzOTUuODIxIDE4Ny4xODlaIiB0cmFuc2Zvcm09InNjYWxlKDIgMikiIGZpbGw9IiMwQjQxNjgiLz4mI3hhOwk8cGF0aCBkPSJNMTIxLjUxOSAzMDkuNzQ3QzEzMy45OCAzMDkuNDA0IDE0NC4xMjIgMzExLjAyMSAxNTQuNDY2IDMxOC42NjhDMTkyLjg5MyAzNDcuMDc4IDE3Ny45MjIgNDA0LjU3NiAxMjkuODExIDQxMS4yNTNDMTE4LjUxOSA0MTIuNTY2IDEwNS40MzUgNDA3Ljk3NCA5Ni40NzA3IDQwMS4yOTNDNTguOTIwNSAzNzMuMzA4IDc0LjY3NjcgMzE2LjI5NCAxMjEuNTE5IDMwOS43NDdaTTEyMy4zOTkgMzI5LjA5MkM4Ni4xNDA3IDMzMy42NSA4Mi41OTM5IDM4OS42MjMgMTI4LjgxMiAzOTIuMjQ4QzE3Mi45MjcgMzg0LjEwOSAxNjAuMDYyIDMyNC4wNTMgMTIzLjM5OSAzMjkuMDkyWiIgdHJhbnNmb3JtPSJzY2FsZSgyIDIpIiBmaWxsPSIjMDg2RkI2Ii8+JiN4YTsJPHBhdGggZD0iTTM2Ny45MzEgMzA5Ljc0N0MzOTUuNDczIDMwNy4yMiA0MjAuMTE5IDMyOS41ODEgNDIxLjg3MSAzNTYuODE3QzQyMy42MzkgMzg0LjMwMSA0MDIuOTE0IDQwOS41NDEgMzc1LjAwNyA0MTEuMjUzQzMzMC40MzggNDE1LjQzNCAzMDIuMjY0IDM1OS4xMTMgMzMzLjcyOSAzMjUuODg5QzM0Mi41MSAzMTYuNjE4IDM1NS4wMzMgMzEwLjA0MSAzNjcuOTMxIDMwOS43NDdaTTM2Ny45MzEgMzI5LjA5MkMzMzIuMjMzIDMyOS4yNDkgMzI1LjM2OSAzOTIuNzg3IDM3NS4wMDcgMzkyLjI0OEM0MDQuMzg1IDM4Ny41NTUgNDEyLjc4NCAzNTAuNjc2IDM4OC45NDQgMzMzLjk4N0MzODQuNTY2IDMzMC45MjMgMzczLjE2MSAzMjYuMjc0IDM2Ny45MzEgMzI5LjA5MloiIHRyYW5zZm9ybT0ic2NhbGUoMiAyKSIgZmlsbD0iIzA4NkZCNiIvPiYjeGE7CTxwYXRoIGQ9Ik0yMC40NzE4IDEwMS44NjdDMjEuOTcxMyAxMDEuODY3IDI3LjI2NDggOTguNTcwNSAyOS4zMTg1IDk3LjcyMThDMzIuMzYyOCAxMDEuNDQ0IDM2LjcyODIgMTA2Ljg5NSAzNi4yNTUyIDExMi4wNzhDMzUuOTcyMiAxMTUuMTc4IDMzLjQ0MzkgMTE0LjYwNCAzMS42NTQ1IDExNi4yNzRMMzEuNTUgMTE2LjkyNkMyNC44MjcyIDEyNC4wOCAyNy4wODg4IDEyNi43NjQgMjcuMTE4MiAxMzYuMzY1TDI3LjEzMDggMjY2Ljg3NkwzMTUuMjkgMjY2Ljg3NkwzMTUuMjk4IDEzNS4yNzVDMzE1LjMwMyAxMzEuNDE3IDMxNS43OTkgMTI2LjQ3OSAzMTUuMjkgMTIyLjc3OUMzMjAuNzc4IDEyMi4zNTkgMzI4LjA2MSAxMjIuNzc1IDMzMy43MzkgMTIyLjc3OUMzMzMuNDg0IDEyNC44MzMgMzMzLjUyIDEyNi43MjQgMzMzLjczOSAxMjguNzc3TDQxNS4yNzQgMTI4Ljc2QzQzNC4wMTcgMTI4LjczNSA0MzAuNDIyIDEyOS42OSA0NDIuOTg2IDE0Mi43NDVMNDkxLjQxMiAxOTMuMDA4QzQ5NC42NzggMTk2LjM4OSA0OTkuNjg2IDIwMC45MTMgNTAyLjM2OCAyMDQuNTZMNTAyLjY2MyAyMDQuOTY1QzUwNS4yMzMgMjA4LjQzIDUwMy43MTEgMjI4LjYyNCA1MDMuNzA2IDIzMy45NDRMNTAzLjcxMiAzMTkuMzU5QzUwMy43MTIgMzI1Ljc1NiA1MDQuMjcgMzMyLjYzMyA1MDMuMjAxIDMzOC45NDRDNTAxLjAyMyAzNTEuNzg4IDQ4OS41MTEgMzYzLjkxOSA0NzYuMDYyIDM2NC4zOEM0NjYuNzI1IDM2NC43MDEgNDU3LjE0OCAzNjMuNzYyIDQ0Ny4xNzkgMzY0LjI2M0M0MzUuMzQ3IDM2NC44NTcgNDMyLjMyOCAzNDguMTQ2IDQ0My41NTIgMzQ1LjY1OUM0NTMuODczIDM0My4zNzIgNDc0LjA1OCAzNDkuMzc1IDQ4MS4yMTkgMzQxLjY0QzQ4Ni40MzIgMzM2LjAwOSA0ODQuNjE0IDMyNy4yODEgNDg0LjYxMyAzMjAuMjQ0TDQ4NC42MDMgMjM4Ljk2NkM0ODQuNjA0IDIzMC40OTkgNDg0LjkxMSAyMjEuOTUgNDg0LjYwNSAyMTMuNDk3QzQ3OC4wOTQgMjA0LjM0MSA0NjIuNTUzIDE4OS45OTIgNDU0LjQyOSAxODEuNjgyQzQ0My40NiAxNzAuNDYyIDQzMy4wNzQgMTU4LjU3NyA0MjEuNzQxIDE0Ny43MjZMMzYzLjAzNiAxNDcuNzI3QzM1My4yOCAxNDcuNzI2IDM0My40ODkgMTQ3LjUxNiAzMzMuNzM5IDE0Ny43MjZMMzMzLjczOSAyODYuMDEzQzMzMC4yNjMgMjg2LjI3IDMyNi42NDUgMjg2LjAzMiAzMjMuMTUyIDI4Ni4wMjdMMjcuMTMwOCAyODYuMDEzTDI3LjEyMDggMzE3Ljc4OUMyNy4xMjAxIDMyNC45MDkgMjUuMzI4NyAzMzQuNTc3IDMwLjQ1NDQgMzQwLjQyNkMzOC45Njk0IDM1MC4xNDIgNTMuNTkzOSAzNDAuMjk2IDU5Ljc5NjEgMzQ4LjMwOEM2My4yMjY4IDM1Mi43NCA2My4yMjUyIDM1OS42MiA1OC4xMDk1IDM2Mi45MDVDNTUuMTg5NyAzNjQuNzc5IDM2LjM2NDEgMzY0LjUgMzIuODE4NiAzNjMuNjIyQzExLjMzNCAzNTguMyA4LjI0NjcgMzQxLjUxIDguMjQ5NTggMzIzLjIxNEw4LjI0MTcgMTM3Ljc2N0M4LjIxMjUgMTI0Ljk1OSA3LjM5OTU3IDEwOS42NDEgMjAuNDcxOCAxMDEuODY3WiIgdHJhbnNmb3JtPSJzY2FsZSgyIDIpIiBmaWxsPSIjMEI0MTY4Ii8+JiN4YTs8L3N2Zz4=;" vertex="1" parent="1">
          <mxGeometry x="-1000" y="1740" width="310" height="310" as="geometry" />
        </mxCell>
        <mxCell id="2FmbblZv4TmwolMo87OG-7" value="" style="shape=image;verticalLabelPosition=bottom;labelBackgroundColor=default;verticalAlign=top;aspect=fixed;imageAspect=0;image=data:image/svg+xml,PHN2ZyB4bWxuczp4bGluaz0iaHR0cDovL3d3dy53My5vcmcvMTk5OS94bGluayIgeG1sbnM9Imh0dHA6Ly93d3cudzMub3JnLzIwMDAvc3ZnIiBoZWlnaHQ9IjEwMjQiIHdpZHRoPSIxMDI0IiB2aWV3Qm94PSIwIDAgMTAyNCAxMDI0Ij4mI3hhOwk8cGF0aCBkPSJNMjA2LjI4MiAyODIuOTkyQzIwOS45NzQgMjgyLjY2NSAyMzkuNzU3IDI4Mi43ODMgMjQxLjc2NCAyODMuNTE1QzI0OS40NzEgMjg2LjMyNyAyNDkuNDg1IDI5Ny4zNzIgMjQwLjY5NCAzMDEuNDEzQzIzOC43MzggMzAxLjY2OSAyMzYuNjQ2IDMwMS40NzcgMjM0LjY3MiAzMDEuNDU3TDIyNC4zNTIgMzAxLjQwMUMyMTguOTkxIDMwMS4zOCAyMTMuMzE3IDMwMS44NTggMjA3Ljk5NyAzMDEuNDMxQzE5Ny4yNjggMzAwLjU2OSAxOTYuMTk1IDI4NS40ODQgMjA2LjI4MiAyODIuOTkyWiIgdHJhbnNmb3JtPSJzY2FsZSgyIDIpIiBmaWxsPSIjMEI0MTY4Ii8+JiN4YTsJPHBhdGggZD0iTTE0NC44NjkgMjgyLjk5MkMxNTEuNzg4IDI4Mi44MDUgMTU4Ljc1IDI4Mi45OTYgMTY1LjY3MyAyODMuMDA2QzE3Mi41NzEgMjgzLjAxNyAxODMuNDQ1IDI4MC44NDQgMTg2LjAyMiAyODkuNTU2QzE4Ny41NyAyOTQuNzg3IDE4NC4wNjQgMjk5LjgzNyAxNzkuMDc3IDMwMS40MTNMMTU1LjcxOCAzMDEuNDA3QzE0OC43MTIgMzAxLjQyNiAxMzkuNzI4IDMwMy4yODQgMTM3LjkwNiAyOTMuODM2QzEzNy4wMjQgMjg5LjI2NCAxNDAuMTE5IDI4My44MjcgMTQ0Ljg2OSAyODIuOTkyWiIgdHJhbnNmb3JtPSJzY2FsZSgyIDIpIiBmaWxsPSIjMEI0MTY4Ii8+JiN4YTsJPHBhdGggZD0iTTM2NS41NzYgOTUuMTIzOEM0MDUuNjQyIDkyLjcyNDcgNDQ1LjE4NSAxMjEuOTI5IDQ1My4wMzggMTYxLjYzNUM0NTcuMDg5IDE4Mi4xMTMgNDQxLjg4MiAxODMuNDQgNDM3LjY2NCAxNzYuMjg4QzQzNS42NTYgMTcyLjg4NCA0MzUuNjM0IDE2OC4zMTcgNDM0LjkyNSAxNjQuNDlDNDMyLjg4MiAxNTMuNDYxIDQyNy4zMTUgMTQzLjI5MyA0MTkuOTI4IDEzNC45MjdDNDAwLjg5OCAxMDkuNzkyIDM1OS40NTYgMTA2LjYyOCAzMzMuNTExIDEyMi43OTNDMzI5LjA0NCAxMjUuNTc2IDMyMi4wOSAxMzIuNzcxIDMxNy4zMjEgMTMzLjQ3MkMzMTIuNDEzIDEzNC4xOTQgMzA3Ljg1IDEyOS45MDkgMzA3LjQyMSAxMjUuMTIyQzMwNi44ODEgMTE5LjEwNyAzMTQuMjkzIDExNC42MTQgMzE4LjQ1MSAxMTEuNTc3QzMzMi41MiAxMDEuMzAyIDM0OC4yNzMgOTYuMTQ4NSAzNjUuNTc2IDk1LjEyMzhaIiB0cmFuc2Zvcm09InNjYWxlKDIgMikiIGZpbGw9IiMwQjQxNjgiLz4mI3hhOwk8cGF0aCBkPSJNMzM2LjQ5NSAzMTQuMzQyQzM3OS44NTMgMzEwLjY0IDM5MC44MDYgMzgwLjA3MyAzNDAuMTQ3IDM4NC42NTZDMjk1LjI3OCAzODguNTg2IDI4Ny4zNjEgMzE5LjE3MSAzMzYuNDk1IDMxNC4zNDJaIiB0cmFuc2Zvcm09InNjYWxlKDIgMikiIGZpbGw9IiMwODZGQjYiLz4mI3hhOwk8cGF0aCBkPSJNMzY2LjE3OCAxNTEuMTM2QzQwNy4xODUgMTQ4LjIwMiA0MjIuMTg2IDIwNi40ODQgMzc4LjczNyAyMjEuMTA0TDM3OC43MzkgMjUwLjc1MUMzNzguNzQ2IDI1OS41MDEgMzgxLjY1MiAyNzAuNDgzIDM3Mi4xMTMgMjc0LjA1NkMzNTguMzY2IDI3Ny40MjIgMzYwLjc3OSAyNTguMTUyIDM2MC43NzcgMjUwLjczNEwzNjAuNzgzIDIyMS4xMDRDMzU1LjQ0MiAyMjAuMDM3IDM0OS45NjQgMjE2LjgxNCAzNDUuODQxIDIxMy4zMTVDMzIxLjgzOCAxOTIuOTQ5IDMzNS43NjcgMTUzLjY1NiAzNjYuMTc4IDE1MS4xMzZaIiB0cmFuc2Zvcm09InNjYWxlKDIgMikiIGZpbGw9IiMwQjQxNjgiLz4mI3hhOwk8cGF0aCBkPSJNMzY3LjQyMyAxNjguODAxQzM5MC41NDYgMTY3LjA0NyAzOTUuMDUgMjAwLjI4NSAzNzIuMTEzIDIwNC41MTJDMzQ4LjY2IDIwNi44MzUgMzQyLjY2NiAxNzMuNjQzIDM2Ny40MjMgMTY4LjgwMVoiIHRyYW5zZm9ybT0ic2NhbGUoMiAyKSIgZmlsbD0iIzgyOUVCMSIvPiYjeGE7CTxwYXRoIGQ9Ik0zNjUuNTc2IDQ1LjEzNjlDNDMwLjQzOCA0Mi43NTg2IDQ4OC41MTYgOTAuNjMyMSA1MDEuOTIxIDE1My4zNTZDNTAzLjU3IDE2MS4wNzEgNTA3LjQ0OSAxNzcuNzMzIDQ5NC40ODggMTc3LjI5MUM0ODMuOTc1IDE3Ni45MzMgNDg1LjYwOCAxNjEuODUxIDQ4My45NDUgMTU0LjcxMUM0NzkuMDQ1IDEzMy42NzMgNDY4Ljc2MiAxMTQuODIzIDQ1My44NjIgOTkuMjAzOEM0MTAuNiA1NS41OTg5IDM0MC45NzMgNDkuNDU4MiAyOTMuNzk1IDkwLjExNjdDMjkwLjYwMSA5Mi44NjkgMjg2Ljg2NyA5OC4wMzM0IDI4Mi4zMDYgOTguMzU1OUMyNzMuMTkyIDk5LjAwMDYgMjcwLjEyOSA4OC44MTczIDI3NS44MjkgODIuNzIxN0MyOTguMzkzIDU4LjU5MTYgMzMzLjE4MyA0Ni4zMDk0IDM2NS41NzYgNDUuMTM2OVoiIHRyYW5zZm9ybT0ic2NhbGUoMiAyKSIgZmlsbD0iIzBCNDE2OCIvPiYjeGE7CTxwYXRoIGQ9Ik0zNTYuNzk5IDQyOC43MzVDMzYyLjgyOCA0MjguNzI4IDM2OC45OTkgNDI4LjQzOSAzNzUuMDExIDQyOC43MzVMMzc1LjAxMSA0NDcuMjQ5TDQ4My4zOTcgNDQ3LjI1MUM0ODYuODUzIDQ0Ny4yNDggNDkwLjY1NyA0NDYuODIgNDk0LjA2OSA0NDcuMjExQzUwNS43MDcgNDQ4LjU0MiA1MDQuOTQzIDQ2NC41NzcgNDkzLjUyNCA0NjQuOTA0QzQ5MC40NjkgNDY0Ljk5MSA0ODcuMzY2IDQ2NC44MTYgNDg0LjMwNiA0NjQuOEwzNi42NDY5IDQ2NC43ODZDMjguODk3NCA0NjQuNzkyIDcuNjk4MDEgNDY4LjQ1NiA5LjM2ODk4IDQ1NC45OTlDMTAuNjI5NiA0NDQuODQ3IDIzLjc1NyA0NDcuMjMgMzAuODg3OSA0NDcuMjMxTDEzOC41MzkgNDQ3LjI0OUwxMzguNTM5IDQyOC43MzVDMTQ0LjI3NyA0MjguNzE4IDE1MC4xMTQgNDI5LjExIDE1NS44MzMgNDI4LjczNUwzNTYuNzk5IDQyOC43MzVaTTE1NS44MzMgNDI4LjczNUMxNTUuODI3IDQzNC44OTQgMTU1LjY2NCA0NDEuMDk2IDE1NS44MzMgNDQ3LjI0OUwzNTYuNzk5IDQ0Ny4yNDlMMzU2Ljc5OSA0MjguNzM1TDE1NS44MzMgNDI4LjczNVoiIHRyYW5zZm9ybT0ic2NhbGUoMiAyKSIgZmlsbD0iIzgyOUVCMSIvPiYjeGE7CTxwYXRoIGQ9Ik0xMzguNTM5IDQyOC43MzVDMTA5LjkyMSA0MjkuMTk5IDg1LjEzNDQgNDA1Ljg1MyA4My4zNTAyIDM3Ny4yMDdDODIuOTA3NiAzNzAuMTAxIDgzLjI0NiAzNjIuOCA4My4yNDcgMzU1LjY3TDgzLjI0MDMgMjg1LjIyOUM4My4yMzc0IDI3Mi4yMzQgODIuODk1MSAyNjIuNTI1IDg5LjIzODcgMjUwLjU1NUMxMDcuMDg1IDIxNi44NzggMTM2LjI1OSAyMTkuNTAxIDE2Ny44MjYgMjE5LjVMMzAzLjAwNiAyMTkuNDg4QzMwNy40MzMgMjE5LjQ0OCAzMTYuMDM3IDIxOC4zNDkgMzE5Ljk1OSAyMjAuNTc1QzMyNC40NzggMjIzLjE0IDMyNS44MDUgMjI4Ljc4MSAzMjMuMDY4IDIzMy4xNDJDMzE5LjEwMSAyMzkuNDYgMzExLjY5NyAyMzcuNzc1IDMwNS4zMzIgMjM3Ljc2NUwxNTIuMTg5IDIzNy43NEMxNDUuMjAzIDIzNy43NCAxMzcuNjkyIDIzNy4xMzggMTMwLjg1OCAyMzguNjYzQzEwNS4xNzYgMjQ0LjM5NyAxMDAuOTA3IDI2NC45MjkgMTAwLjkzMiAyODYuNjc0TDEwMC45NDQgMzU0LjAwNUMxMDAuOTQyIDM2MS44MjEgMTAwLjE2IDM3My40MiAxMDEuOTI0IDM4MC44NzdDMTA4LjE0IDQwNy4xNiAxMjcuNDI5IDQxMC4yOSAxNDkuNTM5IDQxMC4yNTVMMzYwLjI1IDQxMC4yNTZDMzY3LjAzMiA0MTAuMjY4IDM3NC4yMjMgNDEwLjgxMiAzODAuODU5IDQwOS4xOThDMzk1LjI5MyA0MDUuNjg4IDQwOS4wMTcgMzkzLjUxMSA0MTEuMDA4IDM3OC4yM0M0MTEuOTU3IDM3MC45NDggNDExLjUyNCAzNjMuMzI2IDQxMS41MjEgMzU1Ljk5MUw0MTEuNTIxIDI4OS4wNjNDNDExLjUyMSAyODMuMTY3IDQxMS45MzQgMjc2Ljk4NSA0MTEuMjUgMjcxLjEzN0M0MTAuNTEyIDI2NC44MzUgNDA3LjU4OCAyNjEuMDQ4IDQwNi4zNyAyNTUuNTU5QzQwNC41ODEgMjQ3LjQ5NSA0MTMuNzUyIDI0MS45MDYgNDIwLjI0OCAyNDcuMjU5QzQyOS4zNyAyNTQuNzc2IDQyOC43NTggMjc5LjE0MyA0MjguNzU2IDI5MC4yOEw0MjguNzU3IDM1OC44MTRDNDI4Ljc1OSAzNjcuMDY1IDQyOS40MTggMzc1Ljg0OCA0MjcuNzM3IDM4My45NDhDNDIyLjY4NCA0MDguMzAxIDM5OS4yNjkgNDI2LjY4MyAzNzUuMDExIDQyOC43MzVDMzY4Ljk5OSA0MjguNDM5IDM2Mi44MjggNDI4LjcyOCAzNTYuNzk5IDQyOC43MzVMMTU1LjgzMyA0MjguNzM1QzE1MC4xMTQgNDI5LjExIDE0NC4yNzcgNDI4LjcxOCAxMzguNTM5IDQyOC43MzVaIiB0cmFuc2Zvcm09InNjYWxlKDIgMikiIGZpbGw9IiMwQjQxNjgiLz4mI3hhOzwvc3ZnPg==;" vertex="1" parent="1">
          <mxGeometry x="-920" y="1420" width="310" height="310" as="geometry" />
        </mxCell>
        <mxCell id="2FmbblZv4TmwolMo87OG-8" value="" style="shape=image;verticalLabelPosition=bottom;labelBackgroundColor=default;verticalAlign=top;aspect=fixed;imageAspect=0;image=data:image/svg+xml,PHN2ZyB4bWxuczp4bGluaz0iaHR0cDovL3d3dy53My5vcmcvMTk5OS94bGluayIgeG1sbnM9Imh0dHA6Ly93d3cudzMub3JnLzIwMDAvc3ZnIiBoZWlnaHQ9IjEwMjQiIHdpZHRoPSIxMDI0IiB2aWV3Qm94PSIwIDAgMTAyNCAxMDI0Ij4mI3hhOwk8cGF0aCBkPSJNODQ1LjcyOCA4Ni4xMDE4Qzg1My44ODkgODUuNTIzNiA4NjIuNDY5IDg2LjA4NzUgODcwLjY3NyA4Ni4wOTVMOTYzLjEzNCA4Ni4wNzY4Qzk3Ny45MzYgODYuMDYyNSAxMDAyLjkzIDgyLjY0MTcgMTAwMy45NSAxMDQuMjAxQzEwMDUuMTEgMTI4Ljc1MiA5NjUuMDgzIDEyMi4wNDIgOTUwLjcgMTIyLjAyTDg3MS4wMzggMTIyLjAwM0M3OTEuOTUxIDEyMS41NzggODI4LjM2NiAxNTkuNjI2IDgxMy40MDggMTgxLjYwNEM4MDcuNjEgMTkwLjEyNCA3OTQuODYzIDE5MS40MjIgNzg2LjgwNiAxODUuNDE2Qzc3OC42NjMgMTc5LjM0NiA3NzkuNjYyIDE2OC45NDQgNzc5LjcwMyAxNTkuOTk0Qzc3OS44OTIgMTE4Ljg4MiA4MDQuNTQ3IDkxLjA3NjYgODQ1LjcyOCA4Ni4xMDE4WiIgZmlsbD0iIzBCNDE2OCIvPiYjeGE7CTxwYXRoIGQ9Ik04OTcuOTgyIDUwNy41MDJMOTU5LjgzNSA1MDcuNDlDOTcxLjM1OSA1MDcuNDg3IDEwMDMuNTMgNTAyLjY1NCAxMDA2LjM4IDUxOS4wNTRDMTAwOC4wOSA1MjguOTI5IDEwMDYuOTcgNTQ5LjEwNSAxMDA2Ljk1IDU2MC4wMTdMMTAwNi45NiA4ODAuNDI4QzEwMDcuMDYgOTI2LjkwNCAxMDEyLjg2IDkyOC4xNjkgOTYwLjcyOCA5MjguMTU0TDI1NS43NjEgOTI4LjEzNkMxODMuMTYzIDkyOC4xMzcgMTEwLjQ3MSA5MjguOTEzIDM3Ljg4MjkgOTI4LjEyNUMxMy4zMzExIDkyNy44NTkgMTYuNDcxNiA5MDcuODQ4IDE2LjUxOSA4ODguOTk2TDE2LjUyMTYgNTI5LjU1M0MxNi41MjU5IDQ4MC43NjggMTUuMDU4NCA0OTEuNTEgNTYuODUyNCA0NjYuODY3TDIzMy40NDggMzYyLjk3QzI0Ny43NTcgMzU0LjUzNSAyNzIuMTI5IDMzMy4zMTUgMjg3LjE0MyAzNDcuOTU1QzI5Ni41OTcgMzU3LjE3MiAyOTIuNDgxIDM4My43ODIgMjkyLjQ2NyAzOTYuOTQyTDI5Mi40ODMgNDg5LjY0NUMyOTcuOTkyIDQ4Ny4xNTIgMzAzLjExNSA0ODMuNjc0IDMwOC4zMjQgNDgwLjYxNUw0ODQuNTgzIDM3Ni45MDZDNDk3LjI4NSAzNjkuNTI5IDUzNC4xODkgMzQzLjI1NyA1NDcuMjM0IDM0Mi41NzhDNTY4LjE4MSAzNDEuNDg4IDU2Ny4wMjUgMzYwLjU5NCA1NjcuMDA4IDM3NC4zMjZMNTY2Ljk4MyA1MDcuNTAyTDY5OC4yMzMgNTA3LjUwMkM2OTUuNTc2IDUyMy40NDYgNjk2LjIyOSA1MzEuNDY1IDcwNi4xOTIgNTQzLjc3NEw2NDYuNjQ3IDU0My43NTRDNjM4LjUzNiA1NDMuNzQ4IDYyOC4xODggNTQyLjg2OCA2MjAuMzk0IDU0My43NzRMNTczLjcgNTQzLjc5MUM1MzkuMzM1IDU0My43ODUgNTMwLjUwNiA1NDUuOTE3IDUzMC41MTUgNTEwLjY0N0w1MzAuNTM1IDM5Mi4wODRMMzAzLjMxNCA1MjUuMDA0QzI5Ni4yMzkgNTI5LjA3OCAyODguODYgNTM0LjA0OSAyODEuMjYzIDUzNy4wMDFDMjcwLjIwMyA1NDEuMjk5IDI1Ny4xMTQgNTMzLjA3MyAyNTYuMDY1IDUyMS4yNjNDMjU1LjA0OCA1MDkuODE4IDI1Ni41MjYgNDk1LjcyNSAyNTYuNTIyIDQ4My45MjlMMjU2LjQ5MSAzOTIuMDg0QzI0OS44NDMgMzk0LjgwMSAyNDMuNjA3IDM5OS42ODMgMjM3LjM0MSA0MDMuMzA5TDk3LjkxOTQgNDg1LjM0MkM4Mi44MjExIDQ5NC4wNzIgNjcuNjEzNyA1MDIuMjkzIDUzLjAwNjkgNTExLjg2OEw1My4wMDY5IDg5MS4wODJMOTcwLjIzOCA4OTEuMDgyQzk3MC42ODkgODc4LjQgOTcwLjI0NSA4NjUuNTk5IDk3MC4yNDEgODUyLjkwMUw5NzAuMjM4IDU0My43NzRMODg4Ljk3NyA1NDMuNzc0QzkwMy41ODMgNTI2LjYzOCA4OTguMTI0IDUyOS42MjkgODk3Ljk4MiA1MDcuNTAyWiIgZmlsbD0iIzBCNDE2OCIvPiYjeGE7CTxwYXRoIGQ9Ik0yNzAuODUxIDc3OS4zNDNMMzQwLjU2OSA3NzkuMjk5QzM1MC45NzEgNzc5LjI5MSAzNjQuNjkyIDc3OC4yMiAzNzQuNTY2IDc3OS44NjhDMzkxLjU4MSA3ODIuNzA5IDM5Mi45NDcgODA4LjgwOCAzNzYuNTYzIDgxMy4zMjdDMzY4Ljc3MyA4MTUuNDc2IDM1MC40MTMgODE0LjE4MyAzNDEuNjI1IDgxNC4xMzJMMjcwLjEwNCA4MTQuMTM1QzI1NC42NyA4MTQuMTQgMjIzLjQ0MSA4MjAuNTg4IDIyMi4zNzggNzk2LjkwOEMyMjEuMzAyIDc3Mi45MjcgMjU2LjQ2MiA3NzkuMzA0IDI3MC44NTEgNzc5LjM0M1oiIGZpbGw9IiMwQjQxNjgiLz4mI3hhOwk8cGF0aCBkPSJNNjUwLjk5OSA3NzkuMzQzTDczMy41NyA3NzkuMzM5Qzc0NS40NjUgNzc5LjMzNCA3NzkuMjk1IDc3Ni43MDQgNzg5LjU2NyA3ODIuMDc4QzgwNC43NSA3OTAuMDIxIDgwMS4xODkgODEyLjY5MiA3ODQuOTgyIDgxNi40NUM3NzUuODM0IDgxNi45MzYgNzY2LjQ2OSA4MTYuNDcyIDc1Ny4yOTQgODE2LjQ2NUw2NzAuNzk3IDgxNi40NTJDNjY0LjMxNiA4MTYuNDcyIDY1Ni42NjQgODE3LjQ5MiA2NTAuMzk2IDgxNS45MDRDNjMyLjAwMSA4MTEuMjQ0IDYzMS45MzYgNzg4Ljg3NSA2NTAuOTk5IDc3OS4zNDNaIiBmaWxsPSIjMEI0MTY4Ii8+JiN4YTsJPHBhdGggZD0iTTY5OC4yMzMgNTA3LjUwMkM2OTcuNzU2IDQ5Mi45MzEgNjk5LjExOSA0NzguMjE0IDY5OS44NTkgNDYzLjY2M0w3MDkuMTQzIDI5NC4zNDNDNzA5LjcwMyAyODIuOTI4IDcxMC4xNjIgMjcxLjUzMSA3MTAuOTIzIDI2MC4xMjZDNzEyLjE2NyAyNDEuNDg2IDcxMy44MTggMjMwLjYzIDczNS41NzEgMjMwLjI2MUM3NjEuOTUyIDIyOS44MTMgNzg4LjQwNSAyMzAuMzIxIDgxNC43OTYgMjMwLjI3NEw4NDIuMzMzIDIzMC4yMzJDODcyLjE3MiAyMzAuMTk3IDg3NS4zODcgMjMzLjM1NCA4NzcuOTE3IDI2Mi44NzZMODkxLjY3OSA0MzEuOTk2Qzg5My45MzYgNDU3LjE1NiA4OTYuOTEzIDQ4Mi4yNDIgODk3Ljk4MiA1MDcuNTAyQzg5OC4xMjQgNTI5LjYyOSA5MDMuNTgzIDUyNi42MzggODg4Ljk3NyA1NDMuNzc0Qzg4MS41MDQgNTQ2LjkwNCA4NzAuNzg3IDU0My44ODYgODY1LjcxNiA1MzcuODg1Qzg2MC41NjggNTMxLjc5NSA4NjEuODE3IDUxNi40MjYgODYxLjI5OCA1MDguNzU3TDg0NS4wNzggMjg3LjMxQzg0NC41MyAyODAuMzc4IDg0My42OCAyNzMuNTE4IDg0My42ODUgMjY2LjU1M0w3NDUuODIyIDI2Ni41NTNDNzQ1LjQ2NSAyNzYuMTU0IDc0NC42NTggMjg1LjczNCA3NDQuMjA2IDI5NS4zMzFMNzM3LjA2MSA0MzQuOThDNzM1Ljg4NyA0NTkuNDIyIDczNC42NjcgNDgzLjgxMiA3MzMuMDUgNTA4LjIzQzczMC4xNzUgNTUxLjY1MSA3MzAuODk3IDU0My44MzEgNjk0LjQ3NSA1NDMuNzM5QzY2OS43ODYgNTQzLjY3NiA2NDUuMDgxIDU0NC4wMjggNjIwLjM5NCA1NDMuNzc0QzYyOC4xODggNTQyLjg2OCA2MzguNTM2IDU0My43NDggNjQ2LjY0NyA1NDMuNzU0TDcwNi4xOTIgNTQzLjc3NEM2OTYuMjI5IDUzMS40NjUgNjk1LjU3NiA1MjMuNDQ2IDY5OC4yMzMgNTA3LjUwMloiIGZpbGw9IiMwODZGQjYiLz4mI3hhOzwvc3ZnPg==;" vertex="1" parent="1">
          <mxGeometry x="-920" y="2060" width="310" height="310" as="geometry" />
        </mxCell>
        <mxCell id="2FmbblZv4TmwolMo87OG-10" value="" style="shape=image;verticalLabelPosition=bottom;labelBackgroundColor=default;verticalAlign=top;aspect=fixed;imageAspect=0;image=data:image/svg+xml,PHN2ZyB4bWxuczp4bGluaz0iaHR0cDovL3d3dy53My5vcmcvMTk5OS94bGluayIgeG1sbnM9Imh0dHA6Ly93d3cudzMub3JnLzIwMDAvc3ZnIiBoZWlnaHQ9IjEwMjQiIHdpZHRoPSIxMDI0IiB2aWV3Qm94PSIwIDAgMTAyNCAxMDI0Ij4mI3hhOwk8cGF0aCBkPSJNNDkxLjI5NCAzNjIuMDkyQzUwNS43ODUgMzYwLjgxMSA1MDguMDM1IDM4MS4xNjUgNDkzLjU0MSAzODMuOTQ0QzQ3OC45NCAzODQuODM0IDQ3Ni40ODggMzY0LjE2MyA0OTEuMjk0IDM2Mi4wOTJaIiB0cmFuc2Zvcm09InNjYWxlKDIgMikiIGZpbGw9IiM4MjlFQjEiLz4mI3hhOwk8cGF0aCBkPSJNMzc3LjUwMSAyMjUuNzQ2QzM5My40NjMgMjIxLjQyOSAzODkuNDM4IDI0OS4zODEgMzg5LjQ0IDI1Ny43MTJMMzg5LjQzOSAzMTUuNTg1QzM4OS40NDkgMzIzLjI1MSAzOTEuNTE0IDMzNC44MzkgMzgxLjYxOCAzMzcuMjRDMzY4LjI0MiAzNDEuNTE0IDM2OS42NTggMzIxLjU2NyAzNjkuNjU2IDMxNC44OThMMzY5LjY1IDI1Mi40MTFDMzY5LjYzOCAyNDMuNTM2IDM2Ni4yMDMgMjI3LjQ1NCAzNzcuNTAxIDIyNS43NDZaIiB0cmFuc2Zvcm09InNjYWxlKDIgMikiIGZpbGw9IiMwQjQxNjgiLz4mI3hhOwk8cGF0aCBkPSJNMjU2LjA4MyAyMjUuNzQ2QzI2OS43MiAyMjMuODE1IDI2Ni40NjQgMjQzLjg0NCAyNjYuNDc0IDI1MS41ODRMMjY2LjQ4OCAyODcuMTk0QzI2Ni40ODQgMjk3LjMyMSAyNjMuMjE0IDMxNC4xMSAyNzYuMTggMzE3LjYzNEMyODMuMjc3IDMxOS41NjIgMzA5LjE2MiAzMjAuNzM2IDMxNC41ODIgMzEzLjMxQzMxOS4xODggMzA2Ljk5OCAzMTcuMjM3IDI5My43NTYgMzE3LjIzNSAyODYuMzVMMzE3LjI3NyAyNDYuMDRDMzE3LjI3MyAyNDEuOTExIDMxNi42NzcgMjM3LjQyNCAzMTcuMzU5IDIzMy4zNjJDMzE5LjExNSAyMjIuOTA5IDMzMy45ODUgMjIyLjkxOSAzMzYuNDM2IDIzMi44ODNDMzM3LjQ0IDIzNi45NjQgMzM2LjgxNSAyNDcuNzYxIDMzNi43OTQgMjUyLjQzOEwzMzYuNzgzIDI5MC43MDhDMzM2Ljc4NCAyOTYuOTA0IDMzNy40MjggMzA0LjU1MSAzMzYuMzU3IDMxMC41NjhDMzM0LjAzIDMyMy42NDUgMzIzLjQzOCAzMzUuMDEyIDMxMC4wMTUgMzM2LjgxOEMzMDIuNTI1IDMzNy44MjYgMjc3LjgzNyAzMzcuNzczIDI3MS40NTggMzM2LjIxMkMyNDguMTM2IDMzMC41MDggMjQ3LjI2MyAzMTEuMTM3IDI0Ny4yNTMgMjkyLjMwMUwyNDcuMjUgMjQ1LjAyOUMyNDcuMjUyIDIzNy4zMjkgMjQ1LjQwNyAyMjYuNjc5IDI1Ni4wODMgMjI1Ljc0NloiIHRyYW5zZm9ybT0ic2NhbGUoMiAyKSIgZmlsbD0iIzBCNDE2OCIvPiYjeGE7CTxwYXRoIGQ9Ik0xNDguNjUxIDIyNS43NDZDMTQ5LjY4OCAyMjUuNjM1IDE1MC44MDYgMjI1LjcwMyAxNTEuODUzIDIyNS43TDIwOS4yODQgMjI1LjczMkMyMTEuNTUgMjI1LjczMiAyMTQuMTcxIDIyNS40OTggMjE2LjM5IDIyNS45MDlDMjI3LjE1OSAyMjcuOSAyMjUuODU1IDI0NC42NDEgMjE0LjU1MyAyNDUuNDI1QzIwOC43NjYgMjQ1LjgyNiAyMDIuNzE0IDI0NS40MDEgMTk2Ljg5MyAyNDUuNDAyTDE2Mi4yMjMgMjQ1LjQzM0MxNTMuOTA3IDI0NS4zODIgMTQyLjYwMSAyNDIuNjkgMTQyLjI5MSAyNTQuNzI0QzE0Mi4wMDIgMjY1Ljk2NCAxNDIuMzI4IDI3Ny4zMTMgMTQyLjMyIDI4OC41NjNMMTQyLjMyNSAzMDEuNTc1QzE0Mi4zOTkgMzIyLjExIDE1MS44MTEgMzE4LjYzMSAxNjkuMTUgMzE4LjYyNEwyMDUuNTk3IDMxOC42MTRDMjA1LjcyMyAzMTEuNDM0IDIwNS42IDMwNC4yMzEgMjA1LjU5NyAyOTcuMDQ4QzE5OS4yNjUgMjk3LjAxOCAxODUuMTc4IDI5OS4wMDQgMTgwLjI2NyAyOTQuODMxQzE3NS42NTUgMjg5LjQ2MyAxNzYuMTIyIDI4MC40MSAxODMuODEgMjc4LjAxNUMxODcuMDAyIDI3Ny4wMjEgMjE1LjcwMSAyNzYuNCAyMTkuNjIgMjc4LjU2OUMyMjUuNzk4IDI4MS45OSAyMjQuNTIgMjg5LjMxNCAyMjQuNTIzIDI5NS4xOTFMMjI0LjUyNCAzMTQuMzk2QzIyNC41MjggMzMzLjY5OSAyMjYuNTc4IDMzNy4zNjUgMjA2LjU5MiAzMzcuMjQxTDE2NS4zNjYgMzM3LjI0OEMxNTkuNDQxIDMzNy4yNiAxNTMuMDI4IDMzNy43MjUgMTQ3LjE5MiAzMzYuNjU3QzEyNy4zMTYgMzMzLjAxOSAxMjMuMjYgMzE2LjY4MSAxMjMuMjUxIDI5OS44NTJMMTIzLjI0MSAyNjMuMjVDMTIzLjI0IDI0My45IDEyNi41MTggMjI4Ljk5NiAxNDguNjUxIDIyNS43NDZaIiB0cmFuc2Zvcm09InNjYWxlKDIgMikiIGZpbGw9IiMwQjQxNjgiLz4mI3hhOwk8ZGVmcz4mI3hhOwkJPGxpbmVhckdyYWRpZW50IHkyPSIyLjExODg0NjciIHgyPSIyODIuNDkxODIiIHkxPSI1MDkuNzI1MDEiIHgxPSIyMjkuMjg4NzEiIGdyYWRpZW50VW5pdHM9InVzZXJTcGFjZU9uVXNlIiBpZD0iZ3JhZGllbnRfMCI+JiN4YTsJCQk8c3RvcCBzdG9wLWNvbG9yPSIjMDAzRDc2IiBvZmZzZXQ9IjAiLz4mI3hhOwkJCTxzdG9wIHN0b3AtY29sb3I9IiMxNjYzOUUiIG9mZnNldD0iMSIvPiYjeGE7CQk8L2xpbmVhckdyYWRpZW50PiYjeGE7CTwvZGVmcz4mI3hhOwk8cGF0aCBkPSJNMjkuMzc4OCAxMjAuODI4TDI5LjM2ODMgNDM4LjcxMUMyOS4zNjcyIDQ1My4yNzEgMzEuODMzNiA0NzAuMTEgNTAuNDU1NCA0NzIuMTcyQzU1LjM3MSA0NzIuNzE3IDYwLjU4ODggNDcyLjM4NiA2NS41NDI1IDQ3Mi4zODFMMzYyLjU3OSA0NzIuMzYzQzM5Mi4xNzQgNDcyLjM2MSA0MjEuODIxIDQ3Mi43MjkgNDUxLjQxMSA0NzIuMzY4QzQ2NC42MDcgNDcyLjIwNyA0NzcuODA2IDQ2NC40MDcgNDgxLjI5MSA0NTEuMTEyQzQ4Mi44MDcgNDQ1LjMyNiA0ODIuMzI5IDQzOS4wMDcgNDgyLjMyIDQzMy4wN0w0ODIuMjk5IDQxNS40MzVDNDgyLjI5OCA0MTIuMTcxIDQ4MS43NjcgNDA3LjczIDQ4My4wMjggNDA0LjcwOUM0ODUuNjMyIDM5OC40NjYgNDk0LjM5MSAzOTcuNTE0IDQ5OS4wMzMgNDAxLjk1NkM1MDMuMzY0IDQwNi4wOTkgNTAyLjQ4MyA0MTIuNTE3IDUwMi40OTkgNDE3LjkzNUw1MDIuNTE2IDQzNC4wNjNDNTAyLjQ5OCA0NTAuOTY2IDUwMC42ODkgNDY0Ljk3NiA0ODguMTI3IDQ3Ny41OEM0NzQuNDU3IDQ5MS4yOTcgNDYxLjMyNSA0OTEuNzcxIDQ0My40ODUgNDkxLjc3MUw1Ni44NzA3IDQ5MS43NjhDNDQuMDEzMiA0OTEuNzM4IDMyLjkyODMgNDg4Ljc0MSAyMy41ODgyIDQ3OS4zNzNDMTAuMjAwNSA0NjUuOTQ0IDkuNzUxMTcgNDUyLjQ4MSA5Ljc3NzY0IDQzNS4wMzNMOS43ODI1NSA3MS4zMjc3QzkuODk1MDUgNTYuOTE3MSAxMy4yNjcgNDQuNjAwNiAyMy44MjMzIDM0LjE4NTVDMzguNDE5MyAxOS43ODQ5IDUyLjA2NjIgMTkuODYxMSA3MS4wMDU5IDE5Ljg2MDFMMzU4LjgyMyAxOS44Njk2QzM4OS4yMzkgMTkuODY5OCA0MTkuNjg5IDE5LjU1ODQgNDUwLjEwMiAxOS44Njc0QzQ4NC45NzkgMjAuMjIxOCA1MDIuNDk0IDM5LjkxMjIgNTAyLjUwOSA3NC4xNTk4TDUwMi40OTggMjcyLjk5OEM1MDIuNDk3IDI5My42OTcgNTAyLjg5NCAzMTQuNDgzIDUwMi40ODYgMzM1LjE3NEM1MDIuMjYzIDM0Ni41MDcgNDkxLjYwOCAzNTAuOTIgNDg0Ljk3IDM0My43OTRDNDgxLjM1IDMzOS45MDcgNDgyLjI4OSAzMzQuMDc2IDQ4Mi4zMTggMzI5LjIxN0w0ODIuMzA5IDEyMC44MjhDNDgyLjUyOCAxMTQuNTQzIDQ4Mi4zMTMgMTA4LjE3NiA0ODIuMzA5IDEwMS44ODNMNDgyLjMyMSA3OC4yOTQxQzQ4Mi4zMjkgNzIuMTMzIDQ4My4wNDUgNjUuMDkyNiA0ODEuNTMzIDU5LjEyOTVDNDc4Ljc4IDQ4LjI3MDggNDY3LjYyOSAzOS44MjM1IDQ1Ni40ODUgMzkuODIxTDY2LjcwNDIgMzkuOTUxMUMzNC43Nzg4IDM5Ljk1NjkgMjkuMzg2MiA1MS4yNTYxIDI5LjM3MTQgODEuNDI3NUwyOS4zNzg4IDEwMS44ODNMMjkuMzc4OCAxMjAuODI4WiIgdHJhbnNmb3JtPSJzY2FsZSgyIDIpIiBmaWxsPSJ1cmwoI2dyYWRpZW50XzApIi8+JiN4YTsJPHBhdGggZD0iTTE1MS42NDUgNjEuMjUwMkMxNjQuMDI4IDU4LjM2ODIgMTY4LjQ0MyA3Ny4yNzggMTU1LjY5MSA4MC44MDg1QzE0MS4yMjEgODIuNDg0IDEzOS4wNDQgNjMuMDQyMSAxNTEuNjQ1IDYxLjI1MDJaIiB0cmFuc2Zvcm09InNjYWxlKDIgMikiIGZpbGw9IiMwODZGQjYiLz4mI3hhOwk8cGF0aCBkPSJNMTA5Ljk2NyA2MS4yNTAyQzEyMi44NzggNTguMTQ5MyAxMjYuNjM5IDc2Ljc3NCAxMTQuNjQ1IDgwLjgwODVDMTAwLjI2NyA4Mi4yNjUzIDk3LjE3ODYgNjMuODU4OSAxMDkuOTY3IDYxLjI1MDJaIiB0cmFuc2Zvcm09InNjYWxlKDIgMikiIGZpbGw9IiMwODZGQjYiLz4mI3hhOwk8cGF0aCBkPSJNNjkuNjAxNyA2MS4yNTAyQzgwLjQ2NjggNTcuNDg3NiA4Ni42NTI3IDc4LjgyMzIgNzIuMTMxOCA4MC44MDg1QzU4LjIzMiA4MS45OTI4IDU2LjQzNjQgNjIuNDc5NiA2OS42MDE3IDYxLjI1MDJaIiB0cmFuc2Zvcm09InNjYWxlKDIgMikiIGZpbGw9IiMwODZGQjYiLz4mI3hhOwk8cGF0aCBkPSJNNDA4LjQ2IDYxLjI1MDJDNDE0LjYzIDYwLjkyNTEgNDQxLjkzMSA2MC40MzE1IDQ0NS41MzcgNjIuNDEzMkM0NTMuOTYyIDY3LjA0MjQgNDUxLjIwMyA3OC4yMDQ5IDQ0Mi40OTQgODAuMzUyM0w0MjAuMTExIDgwLjM3ODhDNDE2LjE4MSA4MC4zODA1IDQxMS44NjQgODAuNzI4NSA0MDcuOTc5IDgwLjE0NTVDMzk3LjMwNCA3OC41NDMzIDM5Ny45MDYgNjMuMzE1MyA0MDguNDYgNjEuMjUwMloiIHRyYW5zZm9ybT0ic2NhbGUoMiAyKSIgZmlsbD0iIzA4NkZCNiIvPiYjeGE7CTxwYXRoIGQ9Ik0yOS4zNzg4IDEwMS44ODNMNDY1Ljg5NiAxMDEuODkxQzQ3MS4zMzYgMTAxLjg5NCA0NzYuODgxIDEwMi4xMjkgNDgyLjMwOSAxMDEuODgzQzQ4Mi4zMTMgMTA4LjE3NiA0ODIuNTI4IDExNC41NDMgNDgyLjMwOSAxMjAuODI4QzQ2NS40NjggMTIwLjY1OCA0NDguNjA3IDEyMC44MjUgNDMxLjc2NSAxMjAuODI1TDI5LjM3ODggMTIwLjgyOEwyOS4zNzg4IDEwMS44ODNaIiB0cmFuc2Zvcm09InNjYWxlKDIgMikiIGZpbGw9IiMwODZGQjYiLz4mI3hhOzwvc3ZnPg==;" vertex="1" parent="1">
          <mxGeometry x="550" y="2120" width="250" height="250" as="geometry" />
        </mxCell>
        <mxCell id="2FmbblZv4TmwolMo87OG-11" value="" style="shape=image;verticalLabelPosition=bottom;labelBackgroundColor=default;verticalAlign=top;aspect=fixed;imageAspect=0;image=data:image/svg+xml,PHN2ZyB4bWxuczp4bGluaz0iaHR0cDovL3d3dy53My5vcmcvMTk5OS94bGluayIgeG1sbnM9Imh0dHA6Ly93d3cudzMub3JnLzIwMDAvc3ZnIiBoZWlnaHQ9IjEwMjQiIHdpZHRoPSIxMDI0IiB2aWV3Qm94PSIwIDAgMTAyNCAxMDI0Ij4mI3hhOwk8cGF0aCBkPSJNMjI5LjU3MSAxMjIuODA3QzIzNC40MjcgMTIyLjU3NSAyMzkuMzQyIDEyNy4yOTggMjM3Ljg4NiAxMzIuMjk3QzIzNi43OSAxMzYuMDU5IDIzMy40MDIgMTQxLjc1NyAyMzEuNTQyIDE0NS41M0wyMjMuMTc5IDE2Mi4zODhDMjIwLjU5NyAxNjcuNjI2IDIxOS4zMTYgMTcyLjk1NyAyMTMuMTI5IDE3NC44NTdDMjA4LjMwOCAxNzQuOTA5IDIwMi41ODggMTY5LjMxOCAyMDQuNDg4IDE2NC40MDlDMjA2LjE1MSAxNjAuMTEgMjIyLjU4NSAxMjYuNzQ3IDIyNC4xMDkgMTI0Ljk2OEMyMjUuNTEzIDEyMy4zMjkgMjI3LjU0MiAxMjIuOTY3IDIyOS41NzEgMTIyLjgwN1oiIHRyYW5zZm9ybT0ic2NhbGUoMiAyKSIgZmlsbD0iIzBCNDE2OCIvPiYjeGE7CTxwYXRoIGQ9Ik0yNzkuOTQxIDEyMi44MDdDMjgzLjgxOSAxMjIuMzA3IDI4Ny4zODcgMTI0LjcyOCAyODguNTU3IDEyOC40MzdDMjg5Ljc3MyAxMzIuMjg3IDI4Ny4wMzQgMTM1Ljc3MSAyODUuNDIxIDEzOS4xMTRDMjc3Ljk5NSAxNTQuNTA2IDI2OS43OTEgMTcwLjg4OCAyNjEuNzkzIDE4NS45MjVDMjYwLjQ5MiAxODguMzcyIDI1OC42MiAxODkuNDM5IDI1Ni4wNiAxOTAuMjMxQzI1MS4wMTEgMTkwLjQwNSAyNDUuNjMyIDE4NS4zMTggMjQ3LjM3NCAxODAuMDhDMjQ5LjExNyAxNzQuODQzIDI1Mi42NjkgMTY5LjE5MyAyNTUuMTExIDE2NC4xNTlMMjY3LjIzNCAxMzkuNTM5QzI3MC41MzIgMTMyLjk0MSAyNzIuNDY2IDEyNC41NDcgMjc5Ljk0MSAxMjIuODA3WiIgdHJhbnNmb3JtPSJzY2FsZSgyIDIpIiBmaWxsPSIjMEI0MTY4Ii8+JiN4YTsJPHBhdGggZD0iTTMyOC4wMTEgMTIyLjgwN0MzMzMuMjQzIDEyMi4wOTMgMzYwLjM1NyAxNDAuNDE4IDM2Mi40NzcgMTQzLjMwNUMzNjkuMTkzIDE1Mi40NTIgMzU1LjI1NCAxNTguODg1IDM0OS42MjkgMTYyLjI0NEMzNDQuMDg0IDE2NS41NTcgMzM4LjU2NiAxNjguOTEgMzMzLjEwOSAxNzIuMzY3QzMyMy4wODcgMTc4LjM4IDMxNy42NDMgMTY3LjIwNSAzMjEuNzY2IDE2MS40NzZDMzI1LjUxNiAxNTYuMjY0IDMzNy43MjkgMTUzLjAwNCAzNDEuODkzIDE0OC40NzVDMzQwLjk0OSAxNDUuMTc0IDMyMS45MTEgMTM5LjMwMSAzMjAuNzYxIDEzMS41MTFDMzIwLjAzNiAxMjYuNTk3IDMyMy4zMjQgMTIzLjIzNCAzMjguMDExIDEyMi44MDdaIiB0cmFuc2Zvcm09InNjYWxlKDIgMikiIGZpbGw9IiMwQjQxNjgiLz4mI3hhOwk8cGF0aCBkPSJNMTY3Ljk0OSAxMjIuODA3QzE3Mi43NjkgMTIzLjM1MSAxNzYuMzQ1IDEyNi4xODkgMTc2LjE3NCAxMzEuMzYzQzE3NS44OTQgMTM5LjgyOCAxNjAuMSAxNDMuNDM0IDE1NC44MTMgMTQ4LjU4M0MxNjAuMDcgMTUyLjY0MSAxNjkuMDMyIDE1Ni4yOTcgMTczLjM5MyAxNjAuMzU0QzE3OS43NTcgMTY2LjI3NSAxNzUuMDggMTczLjExNCAxNjcuOTQ5IDE3NC44NTdDMTY2LjQ0MSAxNzQuNDkyIDE2NS4xNjkgMTc0LjA2MSAxNjMuODMxIDE3My4yNjJDMTU1LjA3OSAxNjcuNDE4IDE0NS42NzYgMTYyLjUyIDEzNi45OTkgMTU2LjYwNUMxMzEuNDcgMTUyLjgzNSAxMjguMzMyIDE0Ni41IDEzNS4xMjYgMTQxLjgwOUMxMzguOTM3IDEzOS4xNzcgMTYzLjg0MiAxMjMuNDM1IDE2Ny45NDkgMTIyLjgwN1oiIHRyYW5zZm9ybT0ic2NhbGUoMiAyKSIgZmlsbD0iIzBCNDE2OCIvPiYjeGE7CTxwYXRoIGQ9Ik03OC42MDE0IDQzMi45NzRMNzguNTgxMyA0NDkuMjE2Qzc4LjQ0NjYgNDc1Ljg2MiA4NS4zNTMyIDQ4MS40OTUgMTExLjcwNyA0ODEuNTAyTDM1OC45ODMgNDgxLjQ5NEMzODMuNTI0IDQ4MS40OTIgNDA4LjEwMSA0ODEuNzkgNDMyLjYzOCA0ODEuNTA1QzQ0NC4xMTEgNDgxLjM3MSA0NTUuNDM3IDQ3My43MTggNDU3LjA1NyA0NjEuODE4QzQ1OC4xMDEgNDU0LjE1MiA0NTcuNDk3IDQ0NC45ODcgNDU3LjQ4OCA0MzcuMTU1TDQ1Ny40ODggMjc5Ljg4NUM0NTcuNDg5IDI2MS4wMTMgNDU3LjEyMiAyNDIuMDY5IDQ1Ny40OTIgMjIzLjIwN0M0NTcuNzcgMjA5LjAyMyA0NzMuNjQ2IDIxMS41ODcgNDczLjQ3OSAyMjIuNjA5QzQ3My4xNDYgMjQ0LjUyOCA0NzMuMzA2IDI2Ni40NjcgNDczLjMwNyAyODguMzkxTDQ3My4zMjEgNDM3LjUyNUM0NzMuMzI0IDQ0Ni4xNTYgNDc0LjAxNiA0NTUuNTQzIDQ3Mi41OTEgNDY0LjA1OEM0NjkuNzc4IDQ4MC44NjEgNDU1LjE0NiA0OTQuODM2IDQzOC4yNyA0OTcuMTMxQzQzMi42NTYgNDk3Ljg5NCA0MjYuODIgNDk3LjY5OSA0MjEuMTYxIDQ5Ny42OTZMMTI2LjAzMiA0OTcuNjg1QzEwNy4yMDIgNDk3LjY4NiA4Ni45MjMzIDUwMC41NSA3Mi42NTA1IDQ4NS4yOTZDNTguMTA2NCA0NjkuNzUzIDYyLjYzOTYgNDUyLjEwNyA2MS44ODk0IDQzMi45NzRDNjcuNDI1NSA0MzIuOTcyIDczLjA4ODcgNDMzLjM5NCA3OC42MDE0IDQzMi45NzRaIiB0cmFuc2Zvcm09InNjYWxlKDIgMikiIGZpbGw9IiMwQjQxNjgiLz4mI3hhOwk8cGF0aCBkPSJNNjIuNjk3OCA0Ni4xNzkxQzYzLjI3MDUgMjcuODIwMSA3Ny45NjU3IDEyLjAzNjQgOTYuMDM3OSA5LjQ4NTYxQzEwMS43NzEgOC42NzYzNyAxMDcuNzE3IDguODgyNzEgMTEzLjQ5NCA4Ljg4OTY1TDM2My40MjkgOC44OTc2NkMzODAuMTA3IDguODc1IDM3OS44OTEgNS4xOTQxNyAzOTEuNzc4IDE2Ljg3MDVMNDYxLjc3NCA4Ni40MjUyQzQ3Ni42ODQgMTAxLjQ0MSA0NzMuMzQ1IDk3Ljg2ODkgNDczLjMwNSAxMTguMTAzTDQ3My4zMjMgMTc4LjMxMUM0NzMuMzI3IDE4MS45MDQgNDczLjc3OCAxODUuOTU5IDQ3My4zMzcgMTg5LjQ5OEM0NzIuMjQ5IDE5OC4yMTIgNDU4LjI3OSAxOTguNDA3IDQ1Ny42MjEgMTg4LjA1NkM0NTcuMDQzIDE3OC45NzUgNDU3LjQ4MSAxNjkuNjA1IDQ1Ny40ODIgMTYwLjQ5OEw0NTcuNDg0IDEwOC44MDlMNDE3LjI2OCAxMDguODExQzQxMC41MDYgMTA4LjgxMyAzOTkuMjIgMTA5LjU4MiAzOTMuMDU5IDEwOC4wODhDMzcxLjI3NSAxMDIuODA2IDM3My4yMzUgODMuMjcyMyAzNzMuMjQ2IDY2LjUwNzNMMzczLjI0IDI1LjAxNDFMMTA5Ljg1OCAyNS4wMDAzQzc1Ljk5NDggMjQuOTcyMSA3OC41ODM4IDQwLjQzMTkgNzguNTk4OSA2NS45NDYzTDc4LjYzNDcgMjUxLjU4NkM3OC42NDM2IDI1Mi43OTEgNzguNzE5NiAyNTQuMDM1IDc4LjYwMTQgMjU1LjIzNEw3OC4yOTI4IDI1NS4yNjdMNzguNTA5IDI1NS4zODhDNzcuOTgxMiAyNTUuNjA2IDY0LjUzMjMgMjU1LjI1NSA2Mi42OTc4IDI1NS4yMzRMNjIuNjkxNiA2OC44ODZDNjIuNjkyNyA2MS4zMzE1IDYyLjkyMDIgNTMuNzI1OCA2Mi42OTc4IDQ2LjE3OTFaTTQ0Mi4zMzggODkuNDk4MkM0NDAuMDY1IDkyLjA5MzIgNDQyLjkyNyA5Mi40NjEyIDQ0MC4zNjMgOTMuNDQxNEM0NDIuMjg2IDkzLjQxMjggNDQ0LjIwNiA5My40MjEgNDQ2LjEyOCA5My40NDE0TDQ0Mi4zMzggODkuNDk4MlpNMzg5LjAxMyAzNi40OTg3QzM4OS4wMiAzNy44NzU0IDM4OS4wNTggMzkuMjYyNyAzODkuMDEzIDQwLjYzODFDMzkwLjA3OSA0MC41NzQ4IDM5MS4wOSA0MC45NzAyIDM5Mi4xMjYgNDAuNzEwN0wzOTIuNDkyIDM5LjgwODZDMzkxLjM1NiAzOC43MDk0IDM5MC4yMzcgMzcuNDk0NCAzODkuMDEzIDM2LjQ5ODdaIiB0cmFuc2Zvcm09InNjYWxlKDIgMikiIGZpbGw9IiMwQjQxNjgiLz4mI3hhOwk8cGF0aCBkPSJNMzkyLjQ5MiAzOS44MDg2TDQxMi44ODYgNjAuMTg0M0M0MjIuNzUxIDY5Ljg1NzYgNDMyLjg1NSA3OS40NTEgNDQyLjMzOCA4OS40OTgyQzQ0MC4wNjUgOTIuMDkzMiA0NDIuOTI3IDkyLjQ2MTIgNDQwLjM2MyA5My40NDE0QzQzMy4zMDYgOTMuODA4MiA0MDQuNTUgOTQuNDYwNiAzOTcuOTY3IDkzLjIwOTJDMzg2LjQ3IDkxLjAyNCAzODkuMDA0IDc4LjY5NzQgMzg5LjAwMiA3MC4wODc5TDM4OS4wMTMgNDAuNjM4MUMzOTAuMDc5IDQwLjU3NDggMzkxLjA5IDQwLjk3MDIgMzkyLjEyNiA0MC43MTA3TDM5Mi40OTIgMzkuODA4NloiIHRyYW5zZm9ybT0ic2NhbGUoMiAyKSIgZmlsbD0iI0JCQzRDNiIvPiYjeGE7CTxwYXRoIGQ9Ik02Mi42OTc4IDI1NS4yMzRMNjIuNjQ5OCA1My4zNDQxQzYyLjYxNzQgNTEuMDAwMiA2Mi40MDAyIDQ4LjQ5OTEgNjIuNjk3OCA0Ni4xNzkxQzYyLjkyMDIgNTMuNzI1OCA2Mi42OTI3IDYxLjMzMTUgNjIuNjkxNiA2OC44ODZMNjIuNjk3OCAyNTUuMjM0QzY0LjUzMjMgMjU1LjI1NSA3Ny45ODEyIDI1NS42MDYgNzguNTA5IDI1NS4zODhMNzguMjkyOCAyNTUuMjY3TDc4LjYwMTQgMjU1LjIzNEM3OS43MDg4IDI1NS44NTIgODkuNDY1NyAyNTUuMjA5IDkxLjQ1MzIgMjU1LjIyTDM0Ny40NzkgMjU1LjIzN0MzNjAuNjE2IDI1NS4yMzYgMzc5LjY0OSAyNTEuODY4IDM4NC4yNDEgMjY4LjU3QzM4NS42NDkgMjczLjY5MyAzODQuOTc5IDI4Ny41MjggMzg0Ljk3NCAyOTMuMzk3TDM4NC45NjQgMzg3LjI1MUMzODQuOTY1IDM5Ni44NTIgMzg1LjQwMSA0MDYuNjggMzg0Ljg1NiA0MTYuMjU5QzM4NC4wMTYgNDMxLjAxNSAzNzUuNDI1IDQzMi45OTIgMzYzLjYgNDMyLjk5Mkw3OC42MDE0IDQzMi45NzRDNzMuMDg4NyA0MzMuMzk0IDY3LjQyNTUgNDMyLjk3MiA2MS44ODk0IDQzMi45NzRDNDcuODYzNyA0MzIuOTM1IDI3LjQ1ODIgNDM2LjE5NSAyNC40ODg5IDQxNi40MzRDMjMuNjIxNCA0MTAuNjYgMjQuMDQ0NSA0MDQuMzc3IDI0LjA1MjcgMzk4LjU0N0wyNC4wNTM2IDMwOC42OTdDMjQuMDUxOCAyOTUuNjcgMjAuNzE2OCAyNjkuODA4IDMwLjU1NzggMjYwLjUyMkMzNy44NDY4IDI1My42NDQgNTIuNzU3IDI1NC44NzUgNjIuNjk3OCAyNTUuMjM0Wk0xNDcuOTAxIDI5OC4yNzhDMTM4Ljk5NyAzMDEuMjc3IDEzNi40OTEgMzE0LjkyOCAxMzIuNjc5IDMyMy4zNzJDMTI5LjQzNCAzMzAuNTU5IDEwOC41NDUgMzc1LjIzNSAxMTAuNDEzIDM4MC44NjRDMTExLjg5MiAzODUuMzIgMTE3LjA3OCAzODUuOTE4IDEyMC45NDYgMzg0LjM5M0MxMjcuNDI3IDM4MS44MzcgMTI4LjM1NiAzNzQuMTQ0IDEzMS43NDQgMzY4LjkzOUwxNTQuODEzIDM2OC45MzlMMTY4LjcwNSAzNjguOTM5QzE3MS4yMzggMzczLjk5NSAxNzMuOTI2IDM4My4yNDEgMTc5LjcyMiAzODUuMDI4QzE4NC41OTEgMzg2LjUyOSAxOTAuMjQ1IDM4NC4zOTEgMTkxLjU0NyAzNzkuMTNDMTkyLjc2NSAzNzQuMjA4IDE4Ny40NzkgMzY2LjQ2NiAxODUuNDg1IDM2MS45ODhMMTcwLjkyIDMyOS45MUMxNjguNTQzIDMyNC43MzEgMTY2LjAyNSAzMTkuNTg4IDE2My43MjcgMzE0LjM3OEMxNTkuODU4IDMwNS42MDQgMTU5LjQyIDI5Ny42MzYgMTQ3LjkwMSAyOTguMjc4Wk0yMDcuMzI0IDI5OC44MDRDMTk5LjM0MyAzMDAuNTUgMjAxLjY5NSAzMTIuNTI5IDIwMS42OTcgMzE5LjAyM0wyMDEuNjk3IDM2Ni4yNUMyMDEuNyAzNzAuNzQxIDIwMS4yNDYgMzc1Ljg0MSAyMDIuMTU0IDM4MC4yMzZDMjAzLjU2OSAzODcuMDg1IDIxNC45NTYgMzg2LjI2NSAyMTguMTE3IDM4MS4xMzZDMjE5Ljg1NSAzNzguMzE2IDIxOC43MzQgMzU4Ljc4NyAyMTguOTk4IDM1NC4wNTNDMjIxLjY4OSAzNTQuMDMgMjI0LjM4IDM1My45OTMgMjI3LjA3IDM1NC4wNTNDMjM3LjU3OSAzNTMuOTk0IDI0OS4xOTEgMzUzLjkzMiAyNTcuMTQ5IDM0NS45MTRDMjY2Ljk2NSAzMzYuMDI0IDI2Ni4zNSAzMTYuODIyIDI1Ni41NjEgMzA3LjEyOEMyNDYuNTUxIDI5Ny4yMTYgMjIxLjYyNSAyOTguMDA1IDIwNy4zMjQgMjk4LjgwNFpNMjgzLjE4MiAyOTguODA0QzI3Mi4wMDggMjk5LjY4MSAyNzQuMjUgMzEyLjc1NyAyNzQuMjUgMzIwLjY0NkwyNzQuMjQ4IDM2NC41NUMyNzQuMjUyIDM3Mi4zNjkgMjcyLjM1NiAzODUuMTg2IDI4My45NjkgMzg1LjAxOEMyOTQuNjA2IDM4Mi44OCAyOTIuNTMyIDM3My4yOTMgMjkyLjUyMiAzNjQuOTc0TDI5Mi41MDMgMzE5LjYxMkMyOTIuNDk5IDMxMy40NzUgMjk0LjY5IDI5Ni40ODIgMjgzLjE4MiAyOTguODA0WiIgdHJhbnNmb3JtPSJzY2FsZSgyIDIpIiBmaWxsPSIjMDg2RkI2Ii8+JiN4YTsJPHBhdGggZD0iTTIxOC45OTggMzE0LjE2N0MyMjguMjM5IDMxNC4xMzggMjQ0Ljc5NSAzMTEuNjIgMjQ2LjIxMSAzMjQuNTU1QzI0Ni42NjQgMzI4LjY5NCAyNDUuNzk4IDMzMi4xMjQgMjQzLjE3IDMzNS40MTRDMjM3LjI1MiAzMzkuOTIzIDIyNi4zNDQgMzM4LjY5MiAyMTguOTk4IDMzOC41ODZMMjE4Ljk5OCAzMTQuMTY3WiIgdHJhbnNmb3JtPSJzY2FsZSgyIDIpIiBmaWxsPSIjMDg2RkI2Ii8+JiN4YTsJPHBhdGggZD0iTTE0OS45MTggMzIxLjE4NEMxNTAuMjIyIDMyMS40ODUgMTYxLjQ2MiAzNTAuNzA5IDE2Mi42MDUgMzU0LjA1M0MxNTguODQzIDM1NC4xNDcgMTU1LjA3NiAzNTQuMDgzIDE1MS4zMTIgMzU0LjA1M0MxNDYuODEgMzU0LjAzNSAxNDIuMjkyIDM1NC4yMTYgMTM3Ljc5MyAzNTQuMDUzQzE0Mi4yNTggMzQzLjQ3MSAxNDUuMjM3IDMzMS4xMjggMTQ5LjkxOCAzMjEuMTg0WiIgdHJhbnNmb3JtPSJzY2FsZSgyIDIpIiBmaWxsPSIjMDg2RkI2Ii8+JiN4YTs8L3N2Zz4=;" vertex="1" parent="1">
          <mxGeometry x="620" y="1770" width="250" height="250" as="geometry" />
        </mxCell>
        <mxCell id="2FmbblZv4TmwolMo87OG-12" value="" style="shape=image;verticalLabelPosition=bottom;labelBackgroundColor=default;verticalAlign=top;aspect=fixed;imageAspect=0;image=data:image/svg+xml,PHN2ZyB4bWxuczp4bGluaz0iaHR0cDovL3d3dy53My5vcmcvMTk5OS94bGluayIgeG1sbnM9Imh0dHA6Ly93d3cudzMub3JnLzIwMDAvc3ZnIiBoZWlnaHQ9IjEwMjQiIHdpZHRoPSIxMDI0IiB2aWV3Qm94PSIwIDAgMTAyNCAxMDI0Ij4mI3hhOwk8cGF0aCBkPSJNMjY5LjA2OSAxNjkuNzUxTDI5NC4yOTIgMTY5LjczN0MyOTguNTAyIDE2OS43MzggMzAzLjM1NyAxNjkuMjY2IDMwNy40OTQgMTY5Ljk3M0MzMTMuODgzIDE3MS4wNjUgMzE1Ljc0OSAxNzguODIzIDMxMS4yNzQgMTgzLjM4QzMwNy45MjkgMTg2Ljc4NyAzMDAuMDM0IDE4NS40OTUgMjk1LjUwNyAxODUuNDlMMjk1LjUwNyAyMTkuMDQ5TDI5NS43MTEgMjIxLjg3NUMyOTYuMzYgMjMxLjg4OSAyODIuNDMxIDIzNC4xMDUgMjgwLjM4IDIyNC4wMDZDMjc5Ljc1NiAyMjAuOTM2IDI4MC4yMjQgMjE1Ljg0OCAyODAuMjI1IDIxMi41OTJMMjgwLjI0MyAxODUuNDlDMjc2LjAxNSAxODUuMzg0IDI2OS4yMSAxODYuNTU2IDI2NS41OTEgMTg0LjMzNEMyNTguNjYgMTgwLjA4IDI2Mi4wODEgMTcxLjE5OCAyNjkuMDY5IDE2OS43NTFaIiB0cmFuc2Zvcm09InNjYWxlKDIgMikiIGZpbGw9IiMwQjQxNjgiLz4mI3hhOwk8cGF0aCBkPSJNMjI2Ljc1MSAxNjkuNzUxQzIzNS43NTggMTY5LjMyMiAyMzcuNTY0IDE3OS4zMzUgMjQwLjk2MiAxODYuNTg5TDI1MC4yMDggMjA2LjA1NUMyNTMuNjY1IDIxMy4yODggMjU3LjkwNiAyMTguMjI2IDI1Ni43MDUgMjI2LjY4OEMyNDkuMDMgMjMzLjE5OCAyNDMuNjM4IDIzMS4wOTMgMjQwLjgyMyAyMjEuOEwyMjkuMTY2IDIyMS44TDIxNC43OTUgMjIxLjhDMjEzLjAwNiAyMjcuMjA1IDIwOC43OTIgMjMyLjkxNyAyMDIuNTE5IDIyOS44NDRDMTkzLjk2MyAyMjUuNjU0IDIwMC42ODcgMjE2LjU0NSAyMDMuMTY2IDIxMS4wODRDMjA2LjkyOCAyMDIuNzk5IDIxMS4wMDcgMTk0LjY1OCAyMTUuMDI1IDE4Ni40OTVDMjE3LjgyIDE4MC44MTggMjIwLjA3NSAxNzEuNzk3IDIyNi43NTEgMTY5Ljc1MVpNMjI3Ljc2MyAxOTQuOTY1QzIyNi4wMTUgMTk4LjgwNCAyMjQuMzg5IDIwMi43MDQgMjIyLjU5MSAyMDYuNTE4TDIyOS4xNjYgMjA2LjUxOEwyMzMuODMyIDIwNi41MThDMjMyLjYyOCAyMDMuNTUgMjI5Ljk2MiAxOTcuMDI4IDIyNy43NjMgMTk0Ljk2NVoiIHRyYW5zZm9ybT0ic2NhbGUoMiAyKSIgZmlsbD0iIzBCNDE2OCIvPiYjeGE7CTxwYXRoIGQ9Ik0zNDUuNzcxIDE2OS43NTFDMzUxLjcxOCAxNjkuNTM3IDM1NC4xOTMgMTcyLjI4OCAzNTYuODMzIDE3Ny40MzRDMzYxLjY1NyAxODYuODM4IDM2Ni4xOTUgMTk2LjQ2MyAzNzAuNyAyMDYuMDIzQzM3My42OTEgMjEyLjM2OSAzODIuNjQ1IDIyNS4zMDIgMzcyLjQ5NiAyMjkuNzk5QzM2Ni4wNDEgMjMyLjY1OCAzNjIuNTcyIDIyNy4xMTMgMzYwLjQzMiAyMjEuOEwzNTAuMDAyIDIyMS44TDMzNC43NzggMjIxLjhDMzMxLjA1MiAyMzEuOTc1IDMyMS44MTUgMjM0LjE0IDMxOC42NzIgMjI1LjEyQzMxNi45NDkgMjIwLjE3MyAzMjAuODY5IDIxNS42NjQgMzIyLjc1NCAyMTEuMzI3QzMyNi45NjQgMjAxLjY0MiAzMzYuNTA2IDE3Mi45MzggMzQ1Ljc3MSAxNjkuNzUxWk0zNDcuMTM3IDE5NC45NjVDMzQ1LjEzNyAxOTguNjU4IDM0My42IDIwMi42NTcgMzQxLjk0NyAyMDYuNTE4QzM0NC4yNDYgMjA2LjUxMSAzNDYuNTYyIDIwNi40MTQgMzQ4Ljg1OCAyMDYuNTE4TDM1My43NTIgMjA2LjUxOEMzNTIuODYzIDIwNC4yMDMgMzQ5LjQ2OCAxOTUuNTcyIDM0Ny4xMzcgMTk0Ljk2NVoiIHRyYW5zZm9ybT0ic2NhbGUoMiAyKSIgZmlsbD0iIzBCNDE2OCIvPiYjeGE7CTxwYXRoIGQ9Ik0xNDAuNjQ5IDE2OS43NTFDMTU2LjUxNSAxNjkuMDkzIDE3MS45ODQgMTY4LjIyIDE4Mi42NjEgMTgyLjA0NUMxOTIuNjgxIDE5NS4wMTggMTg5Ljc1NiAyMTQuNDk1IDE3Ni44NzIgMjI0LjQ0MkMxNzIuNDU0IDIyNy40NCAxNjcuNTE5IDIyOS42MjUgMTYyLjE4MiAyMzAuMjI3QzE1NS44MjUgMjMwLjk0MyAxMzcuMjUyIDIzMy4xNTMgMTM0LjkyNiAyMjUuMjI5QzEzMy45NDEgMjIxLjg3NiAxMzQuMjg0IDE4My4wNTIgMTM0LjYxIDE3Ny4wMzZDMTM0LjgzOCAxNzIuODI5IDEzNi40NzYgMTcwLjkyNSAxNDAuNjQ5IDE2OS43NTFaTTE1MC4yNDYgMTg0LjYzMUMxNDcuODIyIDE4NS4wMzMgMTQ5LjIwNyAyMDkuNDQ4IDE0OS4yMDYgMjE1LjQ5M0MxNTYuNzI5IDIxNS41MyAxNjIuNDEzIDIxNi41NSAxNjguNzkzIDIxMS41NjRDMTc0Ljg3NCAyMDUuNjEzIDE3Ni4xNDUgMTk1Ljg3NiAxNjkuODc2IDE4OS40OTJDMTY0LjY3MSAxODQuMTkyIDE1Ny4xMzggMTg0LjM4NCAxNTAuMjQ2IDE4NC42MzFaIiB0cmFuc2Zvcm09InNjYWxlKDIgMikiIGZpbGw9IiMwQjQxNjgiLz4mI3hhOwk8cGF0aCBkPSJNMzkxLjk3NyAzMjAuMDQ3QzQwMy44NTQgMzE5LjM0OSA0MDAuNTA1IDMzNS43NTQgNDAwLjUwNSAzNDMuNTk0TDQwMC41MDEgMzgwLjI1MUw0MjcuMzUgMzgwLjI0M0M0MzQuNTU3IDM4MC4yNDQgNDQ4LjI4MSAzNzcuNzA2IDQ0OC42NjYgMzg4LjU1MUM0NDguOTA0IDM5NS4yNyA0NDAuNzEyIDQwMC43OTUgNDM2LjQ5OCA0MDUuMTNMNDAzLjk3NiA0MzguNDM4QzQwMC41ODQgNDQxLjkwMSAzOTcuMjEzIDQ0Ni41NzUgMzkxLjk3NyA0NDYuODcxQzM4NS43NzIgNDQ2LjEyMSAzNjkuNDE1IDQyNi43NjYgMzY0LjU4NCA0MjEuNzcxTDM0NS42ODQgNDAyLjQwOUMzNDIuMDYzIDM5OC42NSAzMzcuMzQgMzk0LjU4MSAzMzQuNzc4IDM5MC4wMjlDMzM0LjIzNyAzNzcuNDIyIDM0Ny4zMDkgMzgwLjIzMiAzNTUuNzMxIDM4MC4yMzJMMzg1LjI1NSAzODAuMjUxQzM4NS40ODUgMzc1LjkzNSAzODUuMjY2IDM3MS41MTkgMzg1LjI2MiAzNjcuMTg5TDM4NS4yNDMgMzQwLjgxOEMzODUuMjQgMzMzLjY0NiAzODIuNjI0IDMyMi4xIDM5MS45NzcgMzIwLjA0N1pNMzYxLjQ1MiAzOTYuNDg5QzM3MS4zNjkgNDA3LjMzIDM4Mi4zMjYgNDE3LjI4NiAzOTEuOTc3IDQyOC4zNjJDMzk1Ljg1NCA0MjUuMDIyIDQwMy43MDcgNDE2LjgzOCA0MDcuMDM4IDQxMi42NTVDNDEyLjIxIDQwNy4zNTYgNDE3Ljk5NiA0MDIuMjc1IDQyMi42ODkgMzk2LjU3Mkw0MjIuNzU5IDM5Ni40ODlMMzYxLjQ1MiAzOTYuNDg5WiIgdHJhbnNmb3JtPSJzY2FsZSgyIDIpIiBmaWxsPSIjMEI0MTY4Ii8+JiN4YTsJPHBhdGggZD0iTTE0MC42NDkgMjY2Ljk5NkMxNDUuMTUyIDI2Ni44NDMgMTQ5LjcwOSAyNjYuOTkyIDE1NC4yMTggMjY2Ljk5M0wzMjYuOTQ1IDI2Ni45ODlDMzM4LjQwMSAyNjYuOTg4IDM1MC4wNDQgMjY2LjUxOSAzNjEuNDczIDI2Ny4xMzFDMzY2Ljc1NCAyNjcuNDE0IDM3MC4zNTYgMjY5LjQ1NyAzNzEuMDg2IDI3NS4xMDRDMzcyLjE4NiAyODMuNjE3IDM3NC43MTEgMzAyLjI4IDM2Mi44MTMgMzAzLjMyNEwxNDkuODExIDMwMy4zMTRDMTQzLjM4MiAzMDMuMzM4IDEzMy40NjIgMzA0Ljc4NyAxMzIuMDM4IDI5Ni4xNTNDMTMwLjY2IDI4Ny43OTUgMTI4Ljg0NyAyNjguNTU2IDE0MC42NDkgMjY2Ljk5NloiIHRyYW5zZm9ybT0ic2NhbGUoMiAyKSIgZmlsbD0iIzA4NkZCNiIvPiYjeGE7CTxwYXRoIGQ9Ik0xMDcuODg3IDguMjEzOTJDMTEyLjc1NSA3Ljk3MzAyIDExNy43NDIgOC4yMDggMTIyLjYyNSA4LjIwOTdMMzQ0Ljg2NCA4LjIwODM3QzM2NS40NDEgOC4xNjA1NSAzNjIuMTgxIDguNjU3OTQgMzc2LjQ4MSAyMy4wNjAyTDQyNy4zMSA3My43MjkxQzQ0Mi4xNjEgODguNDM5MyA0NDYuNzA5IDg2LjgwNDUgNDQ2LjcxNCAxMDguMjgxTDQ0Ni43MjYgMjg2LjMwOEM0NDYuNzI4IDI5MS4xMDUgNDQ4LjE1NSAzMDAuMDU2IDQ0NC43MTMgMzAzLjk0NUM0NDEuNjk1IDMwNy4zNTUgNDM2LjY2NyAzMDguMjA2IDQzMy4zMTcgMzA0Ljc3MkM0MzAuMzI2IDMwMS43MDcgNDMxLjEzNyAyOTYuOTY3IDQzMS4xNDIgMjkzLjA4N0w0MzEuMTQyIDEwNS43MTJMMzY2LjI4NSAxMDUuNzI1QzM0OS42NzggMTA1LjY5IDM0OS45NzggMTAzLjg2NyAzNDkuOTkzIDg5LjE1ODdMMzUwLjAwMiAyMy4zMzkzTDEzMy45ODggMjMuMzMyN0MxMjQuMjgxIDIzLjMzMTEgMTEzLjk1IDIyLjYzMTEgMTA0LjM0NyAyNC4xNzIzQzkxLjA4MjEgMjYuMzAxMyA3OS40NTgxIDM3Ljc4NDcgNzcuMzExNyA1MS4wNzY2Qzc2LjA4NTUgNTguNjY5NiA3Ni43NTE5IDY5Ljg0NjcgNzYuNzUyNCA3Ny44NDA2TDc2Ljc0ODYgMzAxLjYyNUw3Ni43Mzg2IDQzMy40NjFDNzYuNzM1OCA0NDEuMTk1IDc1LjkxMTIgNDUwLjkzNyA3Ny45MzQ4IDQ1OC4zNkM4NC4wNjYyIDQ4MC44NTIgMTAyLjYxNyA0ODMuMzAzIDEyMS42OTUgNDgzLjI5MkwzNzguMTU0IDQ4My4yNzZDMzk5LjQ2NSA0ODMuMjc4IDQyNC42MjMgNDg0LjYzIDQzMS4wNzkgNDU3LjI2M0M0MzEuODU5IDQ1My45NTcgNDMxLjY4NyA0NDkuNzQ4IDQzMy40NDEgNDQ2LjhDNDM5LjI1MyA0MzcuMDMxIDQ1NS45OTcgNDQ0Ljk2MSA0NDIuNTIxIDQ3MS4yMjdDNDMwLjUwNiA0OTQuNjQ1IDQxMC42NjMgNDk4Ljc2IDM4Ny4zODcgNDk4Ljc1OUwxMjUuMDkxIDQ5OC43NTlDMTE5LjA1NyA0OTguNzY4IDExMi42NTkgNDk5LjE5NiAxMDYuNjU5IDQ5OC42MUM4My40NDkyIDQ5Ni4zNDIgNjQuOTE5MyA0NzcuODQyIDYxLjk2MTUgNDU0Ljc0QzYxLjEyMzYgNDQ4LjE5NSA2MS42MjYgNDQxLjIzNSA2MS42MzcgNDM0LjYyNkw2MS42MzY5IDc2LjU3ODRDNjEuNjM1MSA2OC44NzE1IDYxLjEzMDUgNTkuNjU0NSA2MS44MzE5IDUyLjEyNzRDNjQuMTM1NiAyNy40MDU2IDg0LjAyOTMgMTEuMjA4MyAxMDcuODg3IDguMjEzOTJaIiB0cmFuc2Zvcm09InNjYWxlKDIgMikiIGZpbGw9IiMwQjQxNjgiLz4mI3hhOwk8cGF0aCBkPSJNMzY1LjQyOSAzNC4wOTk1QzM2OC45MzUgMzUuOTMyNCAzODkuNjAyIDU4LjAzNjIgMzk0LjEwMyA2Mi40OTA4TDQxMi44NzcgODAuOTc1OEM0MTUuNzU1IDgzLjgyODkgNDE4Ljk5NSA4Ni42MjczIDQyMS41NTkgODkuNzYzNkw0MjEuMzk5IDkwLjAxOTJMMzg0LjAyNiA5MC4wMjI1QzM3Ny44NTUgOTAuMDI0NCAzNzEuNTg2IDkwLjI4NzEgMzY1LjQyOSA5MC4wMTkyTDM2NS40MjkgMzQuMDk5NVoiIHRyYW5zZm9ybT0ic2NhbGUoMiAyKSIgZmlsbD0iIzgyOUVCMSIvPiYjeGE7PC9zdmc+;" vertex="1" parent="1">
          <mxGeometry x="550" y="1420" width="250" height="250" as="geometry" />
        </mxCell>
        <mxCell id="2FmbblZv4TmwolMo87OG-15" value="" style="group" vertex="1" connectable="0" parent="1">
          <mxGeometry x="-551.75" y="1790" width="1050" height="170" as="geometry" />
        </mxCell>
        <mxCell id="TF_Hh5dlnTuo7EPwATm2-7" value="" style="shape=image;verticalLabelPosition=bottom;labelBackgroundColor=default;verticalAlign=top;aspect=fixed;imageAspect=0;image=data:image/png,iVBORw0KGgoAAAANSUhEUgAABloAAADICAIAAAAP0ateAAAAAXNSR0IArs4c6QAAAARnQU1BAACxjwv8YQUAAAAJcEhZcwAADsMAAA7DAcdvqGQAAMNYSURBVHhe7Z0HnBzF8bZXWSeJYILhI0eDjf23MbaxSSaJZHIWOYqcc8YkEQ0GRJAQYDIIJRQvSkIgQEgEAUooIKGcTqfLcb535p0rNbOXdrbvbna3nt9o1DO7291TVV1dXTO7F3MURVEURVEURVEURVEUJWPQdJiiKIqiKIqiKIqiKIqSQWg6TFEURVEURVEURVEURckgNB2mKIqiKIqiKIqiKIqiZBCaDlMURVEURVEURVEURVEyCE2HKYqiKIqiKIqiKIqiKBmEpsMURVEURVEURVEURVGUDELTYYqiKIqiKIqiKIqiKEoGoekwRVEURVEURVEURVEUJYPQdJiiKIqiKIqiKIqiKIqSQWg6TFEURVEURVEURVEURckgNB2mKIqiKIqiKIqiKIqiZBCaDlMURVEURVEURVEURVEyCE2HKYqiKIqiKIqiKIqiKBmEpsMURVEURVEURVEURVGUDELTYYqiKIqiKIqiKIqiKEoGoekwRVEURVEURVEURVEUJYPQdJiiKIqiKIqiKIqiKIqSQWg6TFEURVEURVEURVEURckgNB2mKIqiKIqiKIqiKIqiZBCaDlMURVEURVEURVEURVEyCE2HKYqiKIqiKIqiKIqiKBmEpsMURVEURVEURVEURVGUDELTYYqiRIw6d8OuxttQ4BkflnkoJ5tGPsLN27Hyemr9/4X6dyqKoiiKoijW8eMsRlx+3IV47BdbnbfxjUpK8Qs9uiegXxZdRUuQX/+qorQTKZAOq6qq8ksYNjU1tbU6ZsID6dXVeU7IwyynBIHOp1z/2x1ILGADkcLtFv5VuzNjpeOUOrUVTm0NDjDqOX1iq8JrVX6eTE7Wb5XlNYEz7sap1n1zLbbqqgrUWe5VXl0L94IXvCb5ZvbBf793aBUIX/xYdTXa/QV81T9oAXg/YIFnAMrqJxsEAhfxJiRnwRw+KKMSU/LRh7YB/ONfIq/yorBnQWkWijScUSkpgTkueAZIuYmREni/1JNp4Ko5QOTyXV/jDRzuAV8yw/4GkamTFcrHlRCYMmxW8k1gakF03QTQNDYEY242BLEZ3o4NddQg+quqc6qxoYCt2qmods/gnf6ndEuJDSMVUbnjVHibF2z7KnV1jTfgLELxGl/X7TmKYbHEP/4ljZ1PUXilwD9Wop8OE39aVlaGPafA+DWk0kIas37IGTOZ+ao3UqI4VNBPGID0DYfNTrpKQLkBzJdcrbeT3tEqFOm27U2LTIdVMlSqcdNhOO1qGiFXbTVnWneP1/EO9wK9M/HgvPs2eTM+7r4V03BRVbn7Qg0q9jbvne5rAO/nR+zRhGCtiD35GtIVSAZewpZ8UA9cEEzOP04dAn3GIcDlSMF/QWkZDEU4AZWXw5m4aHySZmBomDFGY8OkiTikQeeTmcNNrhpSraiowB5lGTJ4Vd5QWYkQoGEkZcMPmsNQCQfEDjFS+E1IvmmoTdEggZb9UkPgrRvSYfg0N/e2JTqDUVPjYHNzJVVexsSPyHQf/T3ww406DM+qOqeyxqlwX8K/X6bDvHveeA82fqCtacw/N3g+DQhcFA4xcjl4M5kUeDoMPpqTHwqc8NLSQNseGQPAP+WdjL540WH20+y50gSUmH/QkPuTV9tRqugBojA3sEXJu1OIstst7xB7vFqOqbW2orquvNKpqML8WlfpnXajpaqacpyvc6orqku8+4q8uwjX4U7G3r62FidQFYrukRdouZsbe3lztpsnq3aTbd7L7mYZyJZ+DIWARnjIN/BkPHwb8I+NDwZAPcA/UDwoKOwh4XDCQWQv0jZr45nUAj3nJTQGRBR4Dw+Bf5zxUBSITxiZwDwkKaakAVQrEbOXkzhjupFmXYo7cryPsAD8FzIJXD4lgLK5BxhHTMRAwqbkG8OVYP1nddwlg3gw7KkCEWyi4IOohB+HonmyOdx0GDb0AJtnEzjnHWDD7IrNTaDU36vUfUrssUFx1CC0WevlOL0j9y34h5OeSr1kqB+Bex+OKLBqmHRLXFOkYLdB6EGdIaTMb4eZJqhKtUJAjDgk/nEkwZD2S16HYRWSJFVCQI0T/1T7gUmxmreJ3PuE9YpGv1CscQ8RpvE+Up378Ly7ec+QIUriVl3t3oCqrkF0536d0s2XYV9T596Vcvd1bt7CzXh5M7SbOkOhotatxn36DE24MVmlPJJmD9NuTbxJykJDGAWBgQCFWqk5PWhQFMn7DVQbhYGTKLhwID1XO0kG13V6klQxpjFQboP6Fe03Dd9G/FMZiciQd7i5x8ny8nLMXyxTRDxsDH5Q3qO5sCShzMU4+TxXgwbfLIFZtWk9Mhfibl7sh+gODSOkQwDoZk14ExP1YWMBYVtNrW4pskGr3kb11bp6Lndqi+uqoGLfLPgGd/MicN8A2wfYP2weBixeiGeIjI40IF2vK0ming6DquRmBR0rvS0OlRC03PrxzmZmsnYF3fNLHrw6pTFct+epXvAFVw/fgAJeYqE9qPUe5qpw6qr8O0Xopj9ZugdVTrX70BiTZbVVNRWljKVqqmoZH+Oouqaups5NeQU2gBrXO84aTMmcp729+0VJvIwyNu9WlT9Vy8csAamakWLgEJh6YTkevkr8Ux7+qV9WogSgzE3zprhajvkploFZjjjxQxudN78ag0OICJ6fgnKvsx7/HR7+qYzHFwc8Rv33jKSgpAccDixDs5hoAl8lE6/ShN4Dr6Lc9PvTFQgq/qp5hjJEQb5bx6HUIHwDkToZAyihgQAhSWoB0EQThZ81FS0VNgDeghex1bmP5Fc4VeVOVYX3pUi+VFvj3q8s90Iy/6T7jJFuqbAhlq5zvwsJ3eHYe/qvutLVr6vlSp7GuzBqsXnRuN2Qu+Uw4BGLbRbP0lMAv7sGTZyHBPyDTCUFng6Ld6YNqlNpCQHRcQxwGEDOiTqFtseMeNBhgN5i759SWgaFRunJGRbaFc6N9ekwTKg4AdusQfe8QMjTufsrqzjpPdpVXOOGSqWOU1K/X+s467y0V2DDSzi/2HGWOU6Re5PKnY2Lq/wPulfvGhH+uUsfdzzwjG2pQM4YYuaaGQWzbCql5eBTfqm+QmCeVEzBulYUau43F8amElMF86rNzuNa1FpCIPYgqBjTica8KMZROEWzwpTzGxZhhAk4DzL5xZ8GZjoGBcqW5cYoLi4WFTT9TqUlUJjYc44Q2SaKTDFUdDM5SugN7eATGBRu6FVV6VRUOtVuCsz7FQzEZgjb1nh7hG2I1iTS033E94i6EY1jQwGHpU4dNFvtVFY6pdVOWTUTZTW1fjpMfrS3vYHRwvgJDwFfIjyfovBy4Hg5PP2zikdq/JS+PAst9+WoVCUZKMnGwJiPj/WjADqGKTbgkvxLUhrBF5OHeQgVB14F7af3Wi8LxukRBfeEm7WqcbvkBVnur0tgFuVEu8xxfnac72qdnxxngeP86DjzvP3c+g3lwOEPjjPbcRY5zk91zirHWemdX+pV6NWPdhGXe5fPKK2ZUdJSJCg0pW0+9xranuX9LACzrBAzKJd43ZNfYuBT0JQoC1VJbamFXAUuypxVcdK7ULeQjKAyBMpQrIureiX9cCeg+uEg8yPO0AAE3yziwNsACv77PNpvnm03IDEZLJRnQAj0RXwPJdYg3ntd+H6zWiUcVIfIljEJpd1y8EHRCD6OQtN6cT+Af3gjf7/VuxuKE1jvrXOcFV6oNt+L67AxhEP8pvuU2GODyqA4aBCBeiFsw1c3tIyJElsVBrmr8xr3JQT27RVL0VxpwAFwEq8C81XX1lMBdhWX1tjVAbzEy/ePM5iop8NWrVo1cODAq666Cgo7/fTT+/Tpc/LJJ6OghOPMM89k4YwzzjjnnHMuvfTS66677tZbb33qqacGDRo0bty4mTNnrlu3LrJjA5N0fn7+XXfdde655/JaTj311NNOO40XpTQBpERZQW7nnXde3759MazuueeeJ5988o033sjJyZkxY0ZhYWFjTrMtQMswPNf2quskJ4X/vUmyqq62oray1HvCa7rjDF7hPDxtySTHufnLZdd/ugj7qyctuOHLpVd8suCqL36+esrihrafL/9y/pVf/HjbF/NvnzTroc/n4eMP/rDw7cIqTNtrvKa8SRmRmRefuSGae8oWGFYSHc6bN2/MmDFPPPHEHXfccckll8Cz+XpqEgxbIAWo8iwP1HDttdfefffdTz/99ODBg7/66qu1a9eyIYVA8l988cV9992HUQABnn322SGmEqgJI+jOO++cPHkypiRUm4phhIxxFFavXj1nzhwM/yFDhgwYMOCxxx6DT7jpppuuuOKKCy+8kNYFM6O9QQJSUADs4ZRTTsEeMoElXHPNNW+//XZ7ulDFKhzjQlFR0aRJk55//vnrr7+eThveAPjWUD864rn66qvvvffe11577fPPP8eIY22ZaSeS/8J4gQQgk4suugiH8MbwzBApHM5JJ50EoaHgi7Uh8GaAIBYfRFW33XbbyJEjWbMSAi6Jx48fj0ACBdqtL+sWA41gj7kVEeZLL720Zg2iqkZxgyxv79969H+/tbrcy55MqHBemV92/9Sfb/hs/rVTFmC7+suFV3y5+PKpS6/4cqnuo7+Hsq6Z+tO1X8y9+fOfnpixZuxa96a1+2ALlOymPhFpIxj2/mZWrXuA2P4X3rbNQYgIi501axZGwXvvvffyyy8/+uij999/P8Khyy+/HOEQvI2soFMCcwij5+j/BRdcAH+LQAWr/gcffPC///0vVn9jx47FkmH+/Pm+IDKVCKXDzOAA7hj7Z599Nqa0FR07duzUqRMKHTp02GqrrQ4//HDEcO+88873339PdWAv0SGVZd7Zw6sWwztWZdYJV7Vo0aL999+/a9eu7C276nZdSQ6IkaoHO+yww8EHH3zjjTcimpk+fTpVHK9ZmgThe3CGJ+XN8tRJS8Hn3JnSqfZ/zN47w7SUe9OwBlPmMscZ5TinTVi899Cpuw37aufhc3YYvmDH4Quw337Egm0/crdtRja8bT1y4RajF/561EK8Z8fhc3cbNmu34d/v/NHXvx8y5eopq6d7NySra7zf0Mc0jQ2XFbzuZsC18/LNdRRTYDw/ceJEDKvf/va3EHXnzp0pcytAiRwU3KPyv/3tb48//rhMcqId9g17s6tmh9MPXPt//vOfgIhCwA9isKCqhx56CDVLfrNVQf+pLIIRZx6yzGFo+mQgb8NgLCwszM3NxbjGgufYY4/da6+9evXqxetSwsEJiANZZs9//etfHGsgXk1KNAk4QGqQJysqKl555ZXDDjsM+g3tOmAetBDUsM8++8Azf/vtt6yfbZmeRDqDYSu2JIWUhqMAF4iJCS4IAuEgssIll1zCyimrgDNUmgASw5q/S5culKTMlQmBT9EZ4rMob7/99lhmN+H33BuOeBFbVQ3irtrqOoSMix3nxVXOX96fuvsHX+46csaWw777f+MW/Grk7F+PdYO3X4/6eauRP+s+FfYLf52zYNNRM7caPXf7IdP3HTb9usmL53pf7ICW4eC8P5zl/SKK9yexwj0dBrult4T/pKVx1POk2J68DWcAymvWrJk8efKzzz571VVXHXHEEfBFG2+8Mc04Y8GYxdr/H//4xznnnHPfffe99957s2bNkomJgjWnIYhRJIyCvCTSFuRtUSYq6TDKDkKE1Cj0t99+2+5yUWkhjE4wnzHxhBhup512Ovvss4cOHVpUVATVUEHy12cIyhbh4JFohl9C+ctf/tKjRw90CXO2OW2zoISgiSEGwUL1W2655Yknnvjaa69JVgUBuvzYLQoBF4lD0VrCVgGd4xPeb0aggfpaMGli8V9T6dSWe89d3zi7ZrfRizYZO7d77s/ds9d0zS7qPq4Y+y45xZ1yizrlFHfMLeqYG9x750tiuRXYOuaU4c1dcwq75q7skrf4V2Pn7f3RXERgizCnui36c7X7tyvD+nA6NOxlLsnOzj7wwAMpWIGitoLUBp1ydHTr1g17KBGtr1271sxOBlSD4RaYvdKMH3/80ZPNhnwW9uHmF34W4ONff/01Km+bjBiAjqAp+kYgvyGADkChfBWHUDS7BLc5depUBHxnnnnmrrvuij7TpRNZ7YRY9iiEopM9C1lZWU888YRoB/5QVKZEE44X8YGcwnAI7rzzzs0228zUcgi/LU4Dn2U95Kijjho2bJi0i0KDpoKT8p6URi4EhZNPPtl6hA//hiVcQIZt5p9TmpEjRyJgoG0noxcZHSwcc8wxfgMNAT15T+DXunc/vV+DLXGcqY5z2LjZvxo6e7PxK7tNWB3LXtlhfHEsuzBWUNIhr1i3VNli2AoKYxOKYpPKu+at3Wzkwj8PmTFokZvuhJbhYRHkuyEp9G/eAk8QhrLYy7pDoKvBntERyp9++ulLL710xhlnYEkrfhgFsXwgBdNRZxSQgAgBrgCL7gMOOODKK6989913V61aRUmaThUBp0Q7pu+F2GWpCPjBKBOtL0tSlNjDsv/2t79RH0obgDCCAwB7Cd1A9+7dWeACu1evXuedd15+fj59EBBzh62b6+0kgQ2Y4w3lgQMHsidAZmv0NmN9lnWgdwiWZgC90wywp4Rx5qCDDurfvz9Vb3o96D0wFQX8YEtBlai7dsNM6bpP7xcl3CjaOznHcfb/aG6PYUs6FqyNjS/EpNsxt7hTTomX8/KipdwSdxrOK4nlF8fyvT3K3pkOuWUdc6o6Zldj3yG3wntPUWz8qq55i7f8cObl3xbOrU/DYatBo+7RL9JGLYETA+QjYwRnrrrqKsgQMEXF0WQOtOSBmmQsSLIY8CSmf6y7oBTqheqj4syupivPPvusSJveQ2SVEHKHgLU98cQTqLwNpnkoiDqCyqAvUFxczJeoUNEgXCVewprw1FNP5c0D8ZaSCxNXH04ISgBxm5AwRYroBbqQrIqnmQ06UqIJFFRaWsoynPbQoUOpVsDxDu8toykcMA+zTpRR4THHHPPtt9+iUQ5tWW8AHHrdSRN4ObjAsrIykYMUrNC3b19pK82k13pAUBKiADoxM4poITK3ik5Rbuwrk9BNjVNbUVdVH3G536Rb7ThDCp3t3/6y+7iVXSYUx3LXIVTrmu/ExlS4wZt/g1O3FNjcqBvR+ISaWF5dLLcya1zhtu/9cFX+ogXeb/VC4whcJB3m/d3JMOkwImtP+HD6TzkD83v33Xf79OlDgxRgmfDANHUBBixn7PqllMC89sDlM5gEmARvueWWSZMmQcLxoS+DHJzH5MUzIBCjRpaopMPgjkVYKKxYsQJyD+GOFYswBISDkHUU4Dg54IADRo0aRYun4qzbOkzC9GtnnnkmxqrZExwGRqwSAmiZiiYoM6aRk5AzRyKkjZMoX3vttXPnzqX2JeLE2g+akrxYIEHWIlATjMj7MQGoHJtXBXZoCDNlLUqzHGfPd2Z0G72+44SqWEFpLL+kQ667eTmvEi//1fiWV9Ilu6LLuKoOOVWxvIpYQVlsPGbrwg75Kzcdt+TojxfOdQOyWvePQ7u/ZeD+kSPvm5MJYI4CmSqw2oH0srKyKEAK1rRkW6BmGREooAlpjvNcv3790B8JFAj6TCWGUVmKcNttt1HgAVfml1qMhAsA5RtvvDE+IGgNGmwFWoPKxOQQcwwePBh+UronF9i9e3fmYYF5HmUz/lMShaKDPEWGHINbb701NULViJNUIoskwsjdd98NbYpaZTEAQselqE0qDACzGTBgQNN2kgb+mc4KF7Jw4UIME+BfvyUgxsMPP5xtEYhUR19LOPLII/llMeqFYUM4ZIBgcgFM9cYDrcCgS+uqGeyVew8NLXecAYuKdhk1r+vEslhuYSynqMP42k45NZ3HVnUdV+Hd+AymXXSL5uY+IJZbGptQF8uui42t6FRQuu2YRSd99N0M74+EIqDB7Oh6NNiB+4ig98XJUEgEKxMuwJkhQ4Ycf/zxNMXGoLXDSrH3T9XTmK9OeygTwDJcAcNmlLGKQQGSQXnXXXe99dZbObqxGKRvlywYDxm4ch99Pxytp8MoStj0xIkTYaCuZpQ2gUE8CjB0lOMdAQeAlFk44ogjvvzyS+oO1m89XDNH0T777MNGCTopk650TEmUxkTH89jD/YmcqXd4RpwHN95449KlS6H3wFo9vNfz5kVvTnSnRhgTNu+WEf7HhFcDE8NU+vsP5vUcW9k1pzI2jokw76ls91mw4lhBQxtfch8TK+6S427uPJ1fEivghnJht3Er9xr+3WzO0HV8MKy2LPF0GDBnBYji2GOPhdAYXMrAgXNDWQ6TJ1Azy4KcgSoxgXnd3PBVO0CVRX+6Cs0999xDCRBYr+wThcOBIr3yyiv9Blofakd8bEkJ1g4+q1atuvfee+X5fxibhHfmNdIIFYtA4JQ5yywAlKEvcYzQWhoPrvTj/PPPxzDHIArEQrzB4B8kgoxHE5zhSaaqu3fv/vjjj2PigNkEplQepocJ8WaMfHs9XixJcsghh6D++LBEaZqjjjoK0oN508JNs08IfJyf5R76bSIdBg0h1sIes1p5nfvQ0ArHeX7hqu0/mhMrWB8bvy42qSQ2fn1s3JruucXdcta76bCcMt1SYnOD89w1sfEIwmti+RWxvNWbjpt34JBPp3k/H+Yp3XscDCVvpHq7xGCwzaCIZbBixYq77rprxx139OzR9aswQvpY1+F6964ACnxDAL7HP8g84i8fsqJPwCwmZ2QPDjzwwGHDhkkiDI4XiwvOVrLKkFejTITSYRCiGDSECwXAjilupbVpbPybYRwKdCI8w2ARhYcffphasxiuiSWwANtgi+wG9mZBSR66PE+3/mzhv1APdQ34EoW/+eabv/jii1AQnB20z6dnUQifGIUFuUaEj1fjf2+ilLtG2Fd/U+fsNeynzqMrOo0t6Zxb2jHXy4WZGbH4rf4NHfKKOuUWdsIMnV/ovVQSy8OcXdYxt6RTbtGOg7+e47VYh3/uFzZrq5zKRNNh5u0piOL555/nNAyhQYCtmsAN1Cn6Ei/KGzvgueeeYw+pNRlraczNN9+My6dMzHxWooiQ4Yt69ep18cUX+w20PlAThhX2pr6WL19+xx13UMXy4Bs6Kf3EJZs+XAaveG8esqCEQAY1CgBSpZDFB5r6UqIJf5wUHhtT2DXXXAM9mo+RBgg9XjgYsWcN3MswBHj13nvvZZdAaWkpuoRCSqwlEmLBggW4XowUYEogSaC4o446ik0wFAE8VJrm2GOPFV3QMiFMT6gJQIXi46iHBZycOXOm30Yc0I2bEfG28jr3oaEVjtN/4drthszpkFMcm1gc+2R9LH91rGBt9wnrO2Wvcn8BNi7toltEt9xi9ydNctZ0zKvsNL4GUXePcfP2HjzhS+/PuHuhtffDcW6w7/7vxt6+XSSA/GoE5tmioqLrr78e4RBMl+ZHG0YZe5RpkCYwVJ7He1AG8e/JHGTMAsrElAaFiT3mKRQoVbwBQkPh97//vflntSXsSSE/HJV0mBvje+JjNvHjjz+GfJW2BMaNEBDQuJuGIwFwhPTp08dTo2UYC/J2IhtCuxyKQuBQSR56wICoxS3CQqh9FLBH+fjjj1+6dKmnsQ0pURQSDeK9GZHPglVgCeBOl+5vCsgcWVvjVExznJ1Gznd/kiBvfefxG56c75DX6MY3dMI+r7Bj3poO+V46zP2VsbJO2RXdx2Ir6z6+Ytdh383zWqn/0TJ0HmukMHk9ufAtttiCUgIyrChVHMogsgIHiEA1ERxSfdKZDz/8kD305ilXwNynK7fccguuGkKQm4TYh3Md8q1DgJWzCLBV4eTIRTua43T51FNPbb311rwW84qocRZ4nsj5AI2dV1oCBnK8IWEwenrzlcUCpzMlyvTr18/02Bg+UC72AMMk9EhBnajBPzAGJvdwKTgjVvTiiy8y5oHl0GbEhNwupjKcGbHn02GBOcsKBx54oPklZS7GeKg0wZFHHinqCK2XgCfEIQYR/+BMg7iqgXJg7NUwcqfYcVY5zoD5Rb8durTH2GpEaLHcIvcxsUll7q/p56yReE+3lNg6FxR1zF7feXR1p3G1sQmVG+cu/eOQyZ976TBX7/BqiK897cPNhfgpfY50+BMM8+eee07+0hrNT0JuYJp0S5w53+MfZCqQAGcoSpLlxuDYP/jgg3NyckQv2GMuoweOvh+O0NNhnPIBxDdu3Di1xfYFpg9cnxG3pjLHBsocBoccckjg1zeShBEhwUBCE/RobBdl9AQF7pXkoWZFnjJ/oECZy0so8IwkF3beeefx48dDTQzfwz0dxp8PqHFnyCr3F/ThDzyXQCdaU1NV7VRNdZxtPpodm1Dq/uxX3rrA7NvY5v7FSW/rkFfoPRrm/sxnx9ySruPKssZUZI0t6zCuaOcPv1vgNoZGvLRcFWKzMOkwWboMGjSIwsFeTFfiRet2K6MyEJKiIVEloIrBDz/8IOtzTlTigdOPO++8k/IBuHYqJTRY3KI2VNKWX5akdhhnTJkyZd9996Wi0Q25HBTE0uQkkEMWAMvJiyLDMQcd5clD7KEmji8OLkmRKxGEg2v48OFQnAwKji9Tp2Y5BPg4ayBmPVIzC7m5uYx/TM/McqrDQTFv3jxTpLZAbfLbYRhxaT+v2QIiOvHEEyFATB+cQWD8oVVDrygz0fTp0/1m4oF+sFV490Dr3HhrleMMXFDym8E/dx9Z0Sm7wv3xqY/LYhOKY2PXdJlQ6t7dzCt0gzrdR3+fWwSt9ZhYnZVTF/uoIpZXudG4pf/3/ucb0mHwBF6wjwKK8HchHBzG+Oeff37AAQfQ8MRoaX44DMTDAe9Nl8twjmdQBixnIBSIf+AdUjI8ScnwJOGh+RFw+eWXM+CRsMdczkeWqKTDAjP9uHHjfLkqkYTDwHQ0WCIecsgh0KOoknFP6FgkYBJ+M0okgZeESQwZMgSaCnyTPyGgck/r+GztL9Nh7lNjsKevHGfHEbPc3/zKXe/+HcmWbd4fJOJWhEP+7n4n73fEumSj4P4G2S7DZ/lPh/nt4iqweT1IBMkxHXzwwZQMRRQ10DHOVdSUdDstue222/zLrvdd3CfJtddeG3BTVhC9UDUSUkBHaO6pp57ym1ciDFWmRBAOKDdSqQcDbcWKFVtuuSUUx9URC54m24Ftt9125cqV0lV0L/zvD0QS+e0w6/Tu3ZtNQK2yV5rlX//6ly/B5IgfNd99953fRmNARZ6WKhwHRt//p/Idhy/wfjXf/VvhsYLC2Hg+zu/96XD3kX/dp8S+OJZT3Cm/rEOOe+8Z6tts7LJ9Ppg6hekwgPCmxou3vWcEEYA2MVYDDlCCoocfftiM6CIbb2cae+65Z35+PnUExA+LHkWD0UHTYUp4xAExL5aVlXX22WdDfZWVlYGFXAgCJuE1qESaLl26DB06FMpKMhL1P+ZNk9i8PE0102FfO87Ow2e5z8/nSHiUwNYx193H8srcdJj7vFhh/Rk3HTaXrXqNerg2nBC8ZHh8LGb46Fw0p2d+Iejcc8+VPrPbLKQfKZQOo+cMuFB+TRKceeaZsKhoGpViAmVZtw0leejlzHt1VNPpp58uI8uKc0gGdOC0005Dr4Q0s6XWS4fJ02GUmI7BFtJe6TCohxtgOuz5n8q3/WhBfbRW5P26xRo32OMWF9TpFtktllPaKR/B9rpYvhtpbz566V/em/al9wyg+9thddiq3b0XaTcxUPlsEdw1wyHuMbQRDvFRfd/UPNrxNoZCqALsn3nmGUkCYM6FBqE18cmcf6ODpsOUMCBcg61zUY2C+Xs6jz/+ODRoPuofjsBn/dqVSCLPCcIkPvvsMy45QidD652lV0qpdJhklMaMGUOBBB7Vjgiy3nvwwQfNbqcrqfV0GOqUauFIWV6zZs1+++1Hl0sCUaASKaAyUaISERiWwN3R42GGYkQ+cOBAag1jih6b37VpX/hnasrLy9nbqC0ekkHTYVFD02G6Wd9spcPMUcyfF//5558POOAARnH02PI3o6yEdooVoJpbb70V8xdnXsJvOaDAfXTmNU2HKWHgnBfwO1iqwfrx0pdfwuNtSOEHlNtCAp/y21AiCVfmXEtsv/32K1as8NUWCl/xcJIopdrTYbTbO++8U/6SYzSBprjke+utt9BhzEnptNwKkCrpMNYmoYMklLF6/OMf/8hGee+BIaASWaA1u7ahWIHPhZmqwWy19dZbQ2WcxeQmn6vF9gMDfNNNN121CitHlzSzJU2HRY12TIch5KKSNB2WZputdBiRcGjBggV/+ctfaF2/+tWvWKDfRkyr6bB2ByrAZCpPyVx22WVUHJcY8MmmW+bNniig6TAlDLIYw+QX732OPfZYBJ3y933CLbMDJuFXrUQYRkI9evQ48cQT+WSsr7wE8RWPT6OUUukwggs/7rjjMB9wfcV9pKCmOF0hgFi0aJF59yb9SK10GDCHz88///yPf/wDzUkGUwO+6APF2bUNxQqmo2P56quvhr4wpiR8Z3jTjqNMcgqXXnopeoh1YJrZkqbDooamw3SzvtlKh/EeBp8LW7t27W9/+1vYlXm/mXGR5sIiBV0BNNK9e/e+fft6mnSTX+KZEeJGyj9rOkwJgxg6CgALfp4BcFI4//bbb1OVdGQhCJgEK1eiiUxCYgb/+c9/fM0ljq/41EyH8V4Hn+WBWCKYCyNc8nF/0EEHRecWTWuQQl+WlLsIgPHfMcccw+aoLEliylhTIggUF6lQTwFMMYuvQ3AyefJkKIurKcGKc0gG9ofrvZycHPbW9AypjqbDooZ+WVI365utdJjcGsRw/sc//iHumo5afkGi3W9jKAIWPoxU5SbT/fffTyWaa43Q+YHWQNNhSkgCToeH9Efg73//e2lpKVSp6bDMgZEQ/CCMAU5w0aJFvvISxFc8ZkCUUi0dxie6N9tsM46IwEIrOkjYCn2B66+/Pp2WWwFSJR3Gx1VQp9w3O+uss9AQFIQ9vatYlKbDogz16CpViQxwzozF5Xs3xx13nK8wD7iFwChrLzjkMY0eccQR7Go6mZOmw6KGpsN0s75Z/LIkBjJc94UXXgiLoovmj4VJLkw8tixClXaE6sAsxkibhddeew2RrZkTgFqj46I1HaaEAcbNaU/CR5axZxiHfV5eHkPPcOYe+JTXghJpYAC0Ae4xdfnKSxBf8amZDgMVFRW4fBkX0cyIUUccrYQ/IpaWpNDTYbwRiogBhRdeeAGtSFdRYPCHgqk4JYJAidGJ8xRBwnFoZ8SIEVQWRxM8tjmsrLiIcHDKkInjww8/jNRd9OTRdFjU0HSYbtY3uz+l/+yzz9Inw8ZM54xDcZXRDLYzEz4XZjqEXr16zZ49mzrFjMZJjRFvFNB0mGIfuqQzzjgDqgwdjgQ+yJqV1GLatGl0edwD80HZxvAVDyeJUgqmw5YsWcLZuh0XVOEQfYGWaCpVSKF0GCusrKz84Ycf/GaUFITaBIj2rBuJkgxUBxwd1BTZRwmwiuBCgnt2mw+1mRk9Xgj2qUXrpcN69+7NJigcHXotRH87TDfrWyyntHNBeSy3MJZf2Dm/dPPRS//8jvt31ppIh4k3C7g1hKY0J014pS5wDgcddBC0KYsLmcuigKbDFJvIzdXu3bvD9NeuXQttyhcTEiJgEqxWSS1OPfVUX3/1tCQ89d+RgukwXt3ChQt5+SmXDsOYRf8xP2G6wp6X0xKVRZwUSocB/mTYUUcdBXeaciakAGiNqhRgJ2kwjlIdqID3orF/9dVXIzu44IcBC9jDD/Tv35+XQOcAUvp2hT4dFjU0Haab9c1/OsxLh3XKK9ls1JK9357SRDoMozXg1nCmoqIC7vrYY4+FLdG64LdR0NAoRXn22Weh2XBpgVZF02GKTXivVfL377zzDrQZLvsbMAlWqKQWmLTmzp2LyczUJhckTeC/Fe9yZ8hUSofh0sC8efN4+ak4YV988cUJKSslSKF0GL3lm2++ySY05ktFoDUMHHPis24nSjJgiYW5qVOnTl27do3sEDO/uQmwUIQVmQ45dTNimg6LGpoO0836tuHLkgXrOuWVbD566T7vTm366TD6t0DY+fLLL4tdsRDZp3qVJqDWNtpoo9WrV0OtZWVl2EfHRWs6TLEPw7isrKxzzjmHFh+CgEmwZiXluP3226E+M3BvNsPiKx7vQinVng7D1c2ePZvXnnK5DE5XAwYMwFXgWvjj+qGHcHRIoXRYZWVlVVXVrrvuKvGfRn6pCFTJQWTdQpRk4F/4eeaZZ3w9NbSAb3fgnbp06YKBj76hTGd1zz338BIA51P4imYn02ii6bCooekw3axvsZzSjnmlsfyiDuOLOuWVbDFm2V/f/6rZ3w7jmOXsiUJ5efmOO+6IRSXXlfwFfSVFofoQOXuqjtYdHU2HKTZh3CaFnXfeOdyjYSBgEqxWSTm23XZbujwotIWxu694vBelVPvtMFzmrFmzcOGMC2VEpArs9rRp03AtafO3JlPry5KyVpcfzuehkkL4uvQcAgspmrlIPwoLC6EgDCvQrVu3iI8vOuQuXbqgsGDBAvSfMykjqxR9QEzTYVFD02G6Wd9iOaVQGdNhHXLWbzFm2d8++HpK4+kwfoGOYxYujs7t6aefpiGJafEGYcT9ttIYWVlZ2M+d6663QucHWgNNhyk2Yf6ebos+a9myZeGWAQGTcGtXUpOPP/4YGmz5d8V9xcNqUErBn9KfOXMmrtocC6kCe8s9YxFZd6U0qZIOg6hR4Q477EDjUVIXDJyAbYSbBxWL0JXdcMMNUFCUh5hEUOgkc+Kkb9++vBAgN5l4mFpoOixqaDpMN+tbx7xySYfFxhZuNmrJvoO/+by5dJhJeXn5TjvtJPkvCd40QEpFzD+DcOONN1LF0VlfaDpMsQynQzgsmv67777rKzVBAibh1a2kGJy3Lr30UmhQ7mM3uyz0FY93oZSC6bAZM2bg2jlhx0eHEYdf0kGhT58+uJb0WMOnSjoMtb311luoWfynhn2pSNeuXaHKyspKu+ahJM/MmTOZYOL4suIHWgOJo3i42WabYY+Tn376qX8lnrvAPhVvV2g6LGpoOkw361vHvHIE6pIO22LMsv2GftfslyWBhJ1vvPEGrYhBqRQ0LkpR4B+gu6ysrO7du8ufhYkImg5TLIMATjwX7P6BBx7wlZogAZNghUpqwWh+l112oRJbmFvxFY/3opRqP6WP/Q8//ICrTsV0mKy+0G3w2GOPyUWlNCn0Zcm///3vsByajXkzTUkhdthhB6hSbgDUeLCstCNwZZdeeikUJKspiVUiBb0TnQC6yt7y8PTTT6c5pXS6R9NhUaO90mGg1qlhcgTucpXjvLigFDFel9xVHfKKYojN8ovcpFhumbdFKx2GuLF+k3CUvbWTvOtYX4lfv1veUD+F0zEXm/sqwlrvDcFK2m3LLemYVxnLKY+NL+kwcX0se/l2Y38+avh30x2nCFp3xyUCSwT2ta726zEHLNz13/72N3g/M1oTA9PoKOUIOIdBgwZFyj9nYjqMQ8t8BD39wDUS2B9gGecZV6HMgsBXpRCw2hBI/Zdcckk4iw98irXZQi6QZsDDgExSGlffv/xrxCjzMk34NhTMDCYLFsG8JSFRS4zBfwemSJRS8OkwpsNaiW7dumEPVUKqVKioOHnEQlA5q50wYYJ/Vd6j7FzhV1ZW8tA7nQJELR0mnzJTjZDtN998g2rdgeopgrq2joxxthIvCpxpQj5NvJSBUBoBmZx55plQMZUrKg5nKko4JP9I+dNZTZ48WWyeKgu3puJnWZU5dXJk4TzjChlodhkzZoxkWmFUqWhXrZcO6927N5ugWFJROO1C+6TDXOXU1jkYm1VOTRUOV9Q4+XXO74Z82WPcvFjBmtiE0lhuRYfs8o45VbEc75t3GzJQUdgQSZbF8rGVdMgt84LJQnfLLu+cVxPLL4/ll3ZEn7PXd8ov61BQJoFoSzZ8sOO48k65lajES4dVdM6riI1Z0XVCccccNzkYKyiOFRR2yl3TJacollsVy61mZBuRDR2OjauL5dTEJpTFxq/cZOKy7d774r7p6xd60bzjObBqp7bCqa50D6q9J8U2+O2Kiorp06fDfuItKjRwyFIbfTj3dNTirnFSnkHjGwQcWuxPm4FuE//4lxdilkUIOAPMj1hBGgIHHXQQFC0ab3cyJR0G46ZeaeUsU9lpiXvNBvFnQK9evViQMW+mCHFSBkbL8Rr3Zcsz+++/fzhzD5gEa7NLjx49WAhxpdGE8geuJzP8jlwgX0UBr1LdPCTxZ2zxxhtvQKEttARf8VjFoKTpMAPqVMYpDq3fIjMrZ6GwsDBecbIeSwki+3SYfJzL9XvvvRfVQvIcsDJU3cZsgKpQp8yG8keaXF9vRIoE72nwPMBLCqA0IE8zrsB+1KhR0CaVS7+XpJ0ooYHkObhQOO6446Ag3kgQq4aFs5AQ4ic5iMQANtpoI++0jxiJFZgfR524nKh90yQh9OmwqNF+X5asrXHTYeVuOqwG/zkzHOeyaYv3Gjdj05Fzf5W/5ldjVm88YuWmY1f3GrfS38auisK+xzh3y8peia3HuJWbjFm56ZjlG437OStnaecx6ztkl7tPb40v7ZRf5ia28ktiueslEG3Jhk91y6/pnFeFD8YKSjvn13bNKe05dtlGoxZuOnrNRmMKs7KX98hevOnYhb8as7jX2MKsscW9xq5pus9tud9ozJpewwu3Lqjqlr2s66iZ24yYesCwT0YWOWugdYSTrkt2Kp3aUqe6wkiHAfkLTrfffjvsJ96ikgHOEx6bbpmeX+pHgeF04DYk3gb3Hm6aaF/M2ccsywXipFyavAFy4CXz0Pxg8qBy1Ew5Y9/so6NtSQY9HSYWcNVVV7355ptDhw4dPHjw+2nKhx64xmHDhqGA633hhReefPLJyy67DNPepptuyogQ0hCjB2ZZfESicPDIEOrVq5f5BETLCZgEa7MIw1lc5imnnDJ58uTPP/983rx5c1KcWR6z65k5c+b3338/ffr0sWPHvv322w888MBJJ5208847i3JRgOODssQhmjaQPKiQbV100UVQYgtzKL7iNR0WB9QkKyKqDFhUWSAfypoxQHBRJSUlHMjy1/1TKCMWzXSY6RgZAu6xxx6oFn2T7pllK7A2KDoQ8wG2BWBa8f7ffy017462EpAGCyKT7bff/vnnn+fjk4DmAUXrsryNCTzKCkaPHk1NiecMbcn8ILRPh4m9BFQEZ6SV1uD111/nRYFw8VX7oumwqNH26TAopspNiLg5kWrsqrysSK2zznG+cJwbP194wNuf7v3OF//31pTfD/7qt6O/2X7I57uP+OE3w2f+ZtjsKOx3Hz5z9xHf7/rRdGy/GfHN74dO//3Qb/YY8dUOo2ZukbemY87aWN6a2IR1CFY75q+P5RfGctdIINqiLbckNqYkNq40lrsu9kllLL+887Blv8levMeHP/z+w3m/+3AepIGmfzv8q98O/2YP9GrYj030tu33vx06c5+hc/b43+d/GPrlPkM+7jPp21dWlixynPXQPTxWDQygttLNhUH7XtSNMzWuK5OvHeyyyy4yw7YeiHJhtEzQSHN06fDhm2+++V577XXooYciDMYqBiHfrbfeensj3BExEPdif+edd6JvN9xwQ9++ffv06XPiiSf++c9/3mGHHeIjQMiBEpDJy+4sZi5V2NBzzz2nT4cFCUxa1tNhVDzs+7DDDkP9CCDS+2duYWGIBYEZKvF6eVMxLy/v8ssvh3XC3CEWmKbdAYAKZWh5jSdMQDus1hYcloxlEZmh/pS+19oEECNtACYh08yMGTPgIvfcc09T6VAW9WURVMjw6A9/+APabeGI89+EXqOk6bCG4JhFwZxgrCA2gAIGCNX36KOPctISDcK3tFCbUSD66TCIF6MSvRKFogwof7ugWr/klTH2+YQL2oJPOPbYYxH2wT88++yzb7311nvvvTdkyJCPPvpolMdIj9GKB8SCfXZ29rBhw6hHjAsW4oO8+DNK6wFFyHxHpdDgzfAG5WTGlzl7sjBp0qT58+cvWbLk8ccf5yiz659RJ5dtAFcEBwL/k0J+WNB0WNRol6fDENLBJ2Jw1mBXW+XU1CLmqvR+UB9B+Q+OM8VxhpY5rxQ6L1c6L9Y4L5Q6L5U4LxdHZc/t5RJnYLHzWpG74Xy/KuePk4t65a3pkLsylr8mlru2I79B6W5FEou2ZOuaX95lQnlsQlHs07JYTuFWY5fdtc55qcgZVOhuLxW7AnFbL3FeKXK3xvrZLnvI5PV1zv/WOJO9/OaXjrPAcXOdri/mj+i7+sdW6w5RhELu5nszzJXff/89bMl018mD2mTpR0M1U0ISF2Fp/PzzzxcUFBQWFpaVlUmclh7ORK6ioqJi9uzZw4cPv+uuu/bbbz8uhykfij0rKwsySWaKDEAJS4VokQmZiJBBT4cBaPqSSy4J3LlNb3CN8CwMm3hGnkQFiNuw8qFwYPoskGTcEIzeHEV+YwkS0A6rsoVcHTpJgXCPRlMaT1QNIIs0WIIsEvD+5557bquttqKm7AbuAXr16sU+oFEzC9Ag/mXgXShpOszgww8/pJahxMGDB3PMWp+uQHyUMGrUKCpO1NesHqNDZNNhlCGH5JNPPok6TceLspV+msg3xMHGG2+M/emnn/7iiy9+9dVXzNeIf8Ahyg1qGVetAJEGCxCXeFrA8yJAeZvS2ogNQx0U+2uvvQZT5+CCwzSHVYghRpeLDyKgZ51dunTB8okjiI1ecMEFzDJLAssWqBA88sgjDY7NlEDTYVGjHdJhMF4MU/hL34rdn1SvdmrKvQeIihz3W3UrvW2p4yz0kikoLHOcFdHYY2P3VnldXec4a70eTnOcY6YUbZmzvPu4FV1y13Qcu7pr7jqEmp0L3J+9l1i02c39jfxxKzvmrozlLY+NXxH7aP7OI2aMcZyf61tE0+gJNhTQNDaeabC37bLHtsTbo8OQz3r3cTD+VBxWW9g89WOAwgC41f92GIZtv379YDzwsRbjWxNx+0wDbbnllrfffvusWbNk7gAB74HDwJmUAH3GTGH2vKysjIfmyfXr17/++uvHHHMMpAHhmIGoLahK7GVOxKozOk+iZFA6jJq46aabpK3UDSaapbKykm5FwFUDuWQUELQBlB944AFJhYjrSXIwiK9BPeHkLGoirM0iuGRe7Nq1a9mW6QdTGk/VvwAnoQXTJFBmBnD69Om9e/eGvkRlnB6sM3eum25qiTHUj0+vpOkwA8pQeOedd+xOWqgNg4J10gy4osMZjJf58+ezXQlZeBh9opYO4yjwhqb7cR4effTR0jcr3WsMqBL1H3/88bAftzfNgU7Se5CWDOEMARMoBOIfGGrloUwonp5TZrCkAZA29CI3PgHMXlwlY3GJeaSQDCeeeCJVLI3CV4svtYjMzt26dVu6dClDuJRD02FRo33SYTBe+EhsnhOt8b435z0nhnjPDcVqat1X8K7iapxnXIaPRWT75RH6V+P+jcx5jnPSF2t/NWZx93Eru+UVdxpX1C2vtGPOuk55if52WFHnnNWdctfEJhV3/BSHy3Yf9t2kGqcYEqFQvFjVe7oKMoOkzN60/4a+ueqtcztZXQvBQKdVVbUlte4PxHnpMOjZzX96b8eb8E5PwRyzRx11FO0n3qJCI/cnWCf3OOzXrx9axHwt7gIFuFaGPdinqBvBFaH/ZudxLeaUgZfwBl4pz+Ajn3766aGHHkpZYXK0Mj8SCFxqk4zYxIkT2XS7k0HpMKrhggsuYBPxCaP0A1LleBbxitFzkKPA6O3qq6+mlJJchsnH6WjcVV2HDubzaC0nYBKs1joILtG9tLcEQMdHqQZkW1ZWdthhh0Ea0JrdXBjtgcYwduxYtBVoukHqjdUraTrM4KeffsJ0xUHNtvjj63YJrBuhRJ455phj2CgoLS31S6lABNNhwPxsSUnJNttsw2o5XloD1IwL32effSZMmGDGQARnMB3IycCrSmNAaFAlb3KaTxmb00pA3UprI8KHRp588klaPocAxwICwtCuAJVIPZwxv/4aU5P/FDYHDva33nor32Mddv6GG25wrzAF0XRY1GiXL0u6gRbGCjNi3mzjaQsxGDYvLeaedRfwdZXu9yi91EldRDaA/71fgK+pxQXUVbrpuzoHYeQxU9d2HbOkY866LvmVHbJL3b8ImV0Syy+VQLQlG0LTLnmlsbHrYnmVsZySWM6aHUfMmozpBhKCHLzsG5qrcJ+nq3K/Y+p1wOxhO2/oJDZPh3VViDaqapzq8rryarfrFBuKte6Rn9dzs2au/r3wcrvttgvhmZuFMS2slAmB44477vvvv8dkYYZDdOONkYouBZcGzJ6bh2ZZCvyygt31IOjevTtdBJULLdx///1ssd3JoHQYpA/VXnbZZbR1toh9GuPJcgM8g8uX0Y5hgD3OYzG21VZbUVB0EyDEjU3xX6yEYyncw5CB/nu12qRbt24cllzYUxSpjqt1D//YA4fxCzOAAss4+dNPP1Fl8dFM8tCQXnnlFTTE5prGfwcUgpKmwwz4O3cAisMewoRmTz31VP9lG0gKTCyBBZrHbbfdhnZpTqZRRZwIfllSPghvXFVVJetDkTz31p8uufnmm9EoWpTWZU/MKxL/IOAwcCbDwdTJggwHjk0RqYha5dbGQCMQPuZ33/QNJMqXe9QhgEukV7zwwgvZHPbUO22guLgYr1qcUsVroUDPMGPGjFS0K02HRY12+il9768JYqxg0GD0YEMZL9TUOpXe00MYT+4TV975ivpXI7J5uxr3L2MiNEVXy9wu1rlf6jzmm+JO45Z1zC7ukl8dG1fWKbcyll3WoaAioZAVoWm33LLYmNKO451Ybk1sfPkOI+d9Uu0+b+U2DFFAXHVudqzC64D3JcT68DUKG3roKhD9c3sFRZc5NehtpfuC9ypeot69IB9F93PegP32229hOWbkaQt6ftZ8/vnn01EDcRQ8w8gnHr4nVcCUBOQaBbkQ84r4Nj4fw/KoUaMgJYshqMxf5rR73HHHuc1HgMxKh2F/xRVX+G0ov+Tuu++Wmcz85aBEEYsHLK9f7/4tkUQJmAQrtAu7x/VMvMvIHCBqBPGvvPIK9W53+qGQYVr3338/GmqJnH3F440oaTrMQL6uKGC9h/GFlwJai49KrYBqP/jgA7TLtZ9oUwo8HzUimw6Tjw8aNMiv1BIIYniNjGYYBT7++OPUFNs1s2CKkmbQF910000YCNb9IStkWC93KYA5puCcH330UbTO0QcXjTJwPx/KBcnKhAX04fTTT2dbpiPihUfTFZPWS4f17t2bTQQcrNI0bZ8OwzgpdWqx+QfcYLPY3LL7AFGNU1vuuF+uwwko0tsCzyC15+Zdh9sr908BuOm6Cpz72XGO+XJ997Gre4wr7zamsvvYsi7ZZR1yEXNin0DI2imnuPu4ku5jK7qMdTpkO7G8iu2H/zjZe5rKBY17ySa0TrEF+tbum99JL6Cul46bvPO9El5CCXt+m7JexaR///4MaC3mYgi9Lqo96aST0BDCIXURJhLJcyLLzc2luCi6+JvlCRE/5WHJudlmm7FFaRqY5TZD02GKzxdffAH5mD4oeYtnWdNhkQUuD/DaS0tLf//73yeTCY0HEqaQscfQa2GA7isenUJJ02EG/O0wc2igXFFRUVBQgFcxbOWpB4rdFqjZ06RbJ2ZEXKDfvGc2fP5FlBvuy9GtSpSfDkMB3HLLLX6l9qADh0tn4b777mOIE3hcNzNdn5LGwBfRquEwrf+9EcAAiXPlHXfcwUY5uFiAD2QHMLS9T/gfkT9Y1LNnTxZCwKrgwejw8/Pz2VZlZSUfdQfyTGI00afDokY7p8MQO2BDERs0htfc3wrDiKqGQWPDAU5776qNyOb2FTv0yUvomOmwf325Lmvs6p5jS7uPKe0+zk1sxfJL3C0uIm1iQ2jaNbuo67iSLuOqO2ZX4+PbfDT7E68Zv3UIxXsgrB43CWX2sH03yIQbuuk9wlafC+NZKtrbiVrd054ru/HGG2k8VuK0eHbffXd5rFtdhAmmTgqE8XxhYeHTTz8NiZnjGmXoJRnVSG2oBFPYzz9j0LQ/mg5TNtCrVy8zG8KoK1HMQcKypsOiDC6coPzEE09AJhSLLVhbly5dTjvtNNPPNoGveM6Xmg4ziE+HAR4+8sgj/ps8mdtd/hHUybtD2KNRU49cfXFBGOheFIhmOoyf5f7QQw/1K7UBs6LQl/jwo48+mo6OD8MDWb0rSprBMQXOOuss2j/Ge7h4pgnoQ5YtW4aGxBlyWJm+8eWXX8bb5EZFMt0Qr2W69yOOOIINsVHxKpzTo4mmw6JGu3xZEkPFNVnYqfEMkTc/4RQiiqoap6rSqfa/XudpEruIbO4/9BjdxDW4xyhVOHW1i7zfDus+bkVW9vou49Z1zFsTG78m9nFRbGJxLH9DLNqCrTBWsDJWsAplN5U2cc2vR08v8P7sZoVT4f5oWK3/M1xuBzDY61wpSffafUOnsKF3UCj2OOP+Qx/d3rpl/I+X6l/FKbf/9J+HHHIIjcdKnCagNj7wMWTIEK56AJpTCLxlvMNEbH/AAQdQgIRjPH6kN4t8BAXz47m5uaKIdvTYmg5TXGiLf/zjH017ZSFRTP/FsqbDog8iacxDK1eupGSsA3PCgpxtNStqX/F4F0qaDjOYN2+e38YvBwjL5557Lt/Gb+WEHsLxoDYmwgCWc6hZHGllZaWZWJFsS6SIfjps6623trhcD6y9cfjZZ5+hFXlmBCrjMDR1pyhpA2a0qVOnwvjhDHv06OGNBmvwr27BDf773/9mcxhHHMgYVizIEMMhP4VhSLeDLsljYgmBFjmixRtvuumm2L/11ltsy/TG7EY00XRY1Gifn9InXqQHqy33HgTD3jty02HY/F/Fcn9kzIvNogM6w3yP13+vVIH9T246bHXWuCVZOWs756zukL8yNmFl7ONCNx1WsCEWbXaL5Re6H5ywskNeUQyHE1cxHVbkighicdtys2DoAzb2IUry8cTjZuyw+dkuiosS8xJh0LV3GcBL5yHa93L6/CVreEtCQ7IFTF0CIbjNiD9I275wWuGPiHFoM58IQujFDHHNjz///PNsqH3RdJjiA3M8/vjjRVChMT/OsqbDIguFbF773nvvnaQBmJix0cEHH4yGWiJnX/F4I0qaDjNoLB0GsAoqLi7GfGP3665EpjHJs2A9NmDAAL9tr3Xsw/3RjDYggukwgo9jRBQVFfk12kM0Bc4991y0JZlKtCjlaKYvFSUZOCqPPPJIcxTEL9SThw2ZSSjAOQ4v8VUs8MaOHet/wFhOhAa+i/jH3qUFJlazPxFE02FRo93SYdCPpyLYa4WfHIElIwxzfztMkmLu5v3sPl+MxOZ22/1+H+JSbN4PZlUhTF3gOMd+uarX2CU9clZ1yV7ZKW+5mxErKI4VlCDOlFi0BVtRh/w1HfIKu2SXdcopi+UXbffRzImOg+UK5mxICdLxYmO3bV+KEZMPpOHJBOrztFlT6/0pSfdLphBXpVNb4e1r3GOcxOb6zLVr1/qmYxvGsUOGDIGomHdTAmAecXVQ7zYhJZ7ZZ599KEPOO2Ziq+WYcxbBGXgM/olkmcKk9TZG02GKCw3x5JNPhogkgkze4lnWdFjEgag5N0AI119/fTi9NwEjpP322w9NtCRM9xXvTajYvFlL02Euc+fOhbICQ8MkLy8Pb9too42wlycIkocjRYY2FEqdfv3110yByfCBITXRvfYiaukw+ZSry7q6GTNmoDYrXTLhQEa1U6dORSvQUUVFBVtk6xyMmez6lHQFax65MQBPaP0mAers378/GpLhU1ZWhjIPObIw0Bj8wCseddRRfEgNoxJDkv4zUcRFsMDMGi/txRdfrKysrKqqktEthQii6bCo0T7pMCinfsOu/gekvBgMwwgbCu5/GE3exjfzfLvv3Q5Xe5mp+rSUG6PWznOc46es3njMkh45q7tkr+ySt7xj3io35sytSjxkLUKA2iW7AhsKOwz78dNaN2OI5tAFZg9Z5t79x75FZO/+V7/BMdZ4Gwp1rpa9jJ6XC8PmPhpWW4dXEeR//TXMBoZkPSIC3bt3l0QYf+U24ncO2hjmv1DgXvznCy+8AOnJvRzzPlOiQK0BzZ5wwgloQhTBptseTYcpLjREGCVEJBav6bC0x3xOmJPEwIEDKRyLwKIwt+2xxx6oH3JuVtS+4vEulDQdZjB//nyMi3gB8gw1+NJLL/nvtgq8AfSIISP+AYEFDr32XQfCASuhRqSI4NNhphJHjhyJAQL8epOGX+bCNaLOv/71r2gi8I0Ac9ms4aCSZsALwfI5xrt06cKRlUwEH4A1syG2GD+TyrDCQAOfffaZfBCEG+z4ON0vP44yD1mt+chnYLxHDU2HRY12S4dhGsSGgvvTV97mluWku2EneA9hRWVf7VRVo4wDjHgMd6/vC7CS+mLdJqOXZeWs7ZizumPeqg55hR1yajtkOx1yyyQWbXZzvyCZ735NsmNORScvHbbz0NlfVDs1bK6uttKpqtjw7FXk5MPe+JuBcSQax+aKj6N18ODBcGh04OH8ZGNgCrjqqqvQhHyPQZ+ON2FQyj10gQJnMeyXLl0KAXK6Ack8MwG1Av/A4w9/+ANakcm0vVy3psMUH9ji6aefLmYasNeWY36QZU2HRRYKWUJnCGH8+PHJeLoAZlVZWVktdHD+m6AQlDQdZrBw4ULUHy9GWi+nE+wvu+wyvDn0EG4QczGJmuXRsyuvvBKNskuRHUQRTIfJ3A+h9e/f327YB0Rfjz32GPWCrqJRKWOPgR/xZbOihGDQoEGcemQCsj6+3n33XQ4i7KUgDlBGtxRAnz598EF4TjifZPwPhzavSKpCtbfeeitawYhmfyLrjYGmw6JGe6bDsHc3pkXkELrzNu+IoMDHxyKyr3HjUq/PGOVeOgws8NNhK7rlrovlrnV/ER/BZ05tx+zahNJh2JgO65Bb0TGnDJHqrkNnf1nlysRtrtZNxlW6v6lfnw6rf8Kusd628R6dcTtUr1+vb/7mvuS+So17m/u+WnrLZ555RtIuyfjJBhk7dqzbcl0dEz1wkuoiBMrfjAkhHJEPBWgxEcZD8Otf/xr1Uxfxc2iboekwxYXyP/300yEizmey3E0Ufhx7ChywiUQJmASrsgt7qOkwILey58yZQ+FYhHLGHvUH1Nog/jvq51HPKWo6zIW/HUYZmpKk9YoN4yVOWjIGMR5B4GTyoE7sn332WTRaVlbG1iNIZJ8O47i7++67/Rotwaujdt58802vwXYILxSlVZHRh4I5g3uDwA4S/QdWaGgFjfLrNmy66fGFN/M70YyspDYrSLQm90sinuZuvXRY79692QRtg3ulWdr5t8PMrUn4ekT2LPil+uNFXjps49Eru+WujeWuc1Na+cUdc9zf/+qYYMjaMbfI/QWx3DJvK9l56I+f17ppt/q2EBK7UbFbrG/d20ViHw/Oc/OR4w2nXF96++2304roe5PJv8TDuwWELUpBaQLo5eabb5bRbVcpmFL5mB7n0PbSiKbDFB+o4KSTTqKskoHjhMOGMg8XmQVMwq3aNuyepsOAhPILFiygcCxCOWOP+lvi6fx3QCEoaTrMoLF0GKAGOdbwEvoAgWMYxv9ojt2ZjOu6vLw86UMEnz+PYDqMH6TErrnmGr9GS/DqoBoUoA60Bf8WuquKEk1o0tjLdzqwf+ihhzgKkifgJeBO+WTWsGHD3ObrweCS+0kNwlfRzzvuuAMfZ/ZKlhZW4J+qvOiii9hixNGnw6JGu6XD0gDXxPg8lBs9LnKckz5fvyEdVlAcyy9BnNkpx48/W7whQC1yM2K5iFfdjNhOw36cXOf+jr5n2W6j2OBZPOfiHaa+scOXYpEuAQz2VkI10qNHDyz3ZK2XmYu+0Lz++uuQIQe43UUEWL16NZqQdWi7+G1Nhyk+UMGJJ55IWdHiw7khfJYfB3Rnmg5LIZYuXSrqswXljD3qb4mb898BhaCk6TCDxtJhMosIePWNN97ARyh8jsRu3brhkGdswXkRq8SKigpJxrEP0SFq6bBAQMbHcu1CjR944IFsKJwTVpQog9EnQ4k+cN26dRZ/NV++lsg5kU7juOOOQ0Nwd2wRHWihE8A7ly1b5tZrG1mcoJ9TpkzhL+M0naFrXzQdFjU0HZYcmg6zA5zkySefTE9rPeeCmv1mDOKDZ6VB5C8+UTvc22LWrFloAu6aHlum9bZE02HKBk455RRKCVOaa/JhzV1mRCzJNtpoI7/2BAmYBCu0Cy8ww9NhEs1TAqtXr44PaJKEcsYe9QfU2iD+O9AdlDQdZtBYOixwBgWuiG666SZ8Cos6Gctc4NmCORcazEknnYR2pQ+RIuLpsIMPPthKf+K5+uqrsW7X34tV0hj5XWQAg/dN3wayHsPw5AiFx/v000/9xoyBDMxyAHgJvEpf8cADD7Aq/r0LW6CrrPboo49mi17LEUXTYVFD02HJoekwaxx44IG0IusrkYcffhj1IxyCN66J5N9AjybMGGKeZcBvHcxckyZNYlucRtslR6npMMWF8j/55JMpKxAuMU//RVGz8Jvf/IZNJErAJFihXdhPTYdR1LyZvHbtWgrHIpQz9qi/JTOQ/w4oBCVNhxk08WVJefxHHgrgGcQWlL8kxSwGGfQSqBDTJMqPP/44WozgUwlRS4eJBul29t5773D+tmm6dOnyyCOPeA266F1QJb3hD1+2RsYfsNpzzz2XSyk0h/HLgQzg9KTcIPgUf10Rb2OFFjF/6RWeZMSIEVF+NAxoOixqaDosOTQdZo3/+7//a41wCAwaNAiOkd4be31kvoWIF912220lcrYSQhM4jZEjR7IJhsTctzGaDlM2cNhhh0FKnM/MAKvl0IuhEkobHHnkkeEsO2ASrM0u7KR+WZLXzoBe02Fs1COkSbR9Osy0Xk72MtPPnTsXY5kDkys6GZtWkCFPv5Gbm8t2I0UEfzsMQGv8+J577mn3tpusSQYPHkzb0AfElLREBiA83gUXXBC/Gk8SqRAeA4P0668xBbmNojk2zcRT0+NLnl/jYHzuuefs5uwA/TBcPSM3tJKMa2ptNB0WNTQdlhyaDrPG7rvvbt2Nk4kTJ5qhMpyD+oeWA9H9/e9/NydEFpIHdb7//vtshRppF71oOkzxQTwHNwQp0dzDLc8oZNOXXX/99aYDajkBk/Crswp7m8npMAqZ1449DjUdxkY9QppEO35ZkmszKrTGAwXMNPisjGiLd9440mVpxyaWLl2KRiNFZJ8O436XXXYxfWbyUBGoc/LkyTCJzHRuSoZQWlqK/WeffQabh3MLF7o0iLhKDs9LL72ULQIZU0yEcfbkmQahKwb8IGqz4oIIPbD0FoUBAwZIixFE02FRQ9NhyaHpMAtwtO64446+6dhm1qxZVfWwRaUlUC+YUE4++WS7karw1ltvia/mFNn2rlvTYYoL5L927VorP2YBOcuAQWD6zDPP+G0kSMAkWKFdaBKZnA7jVZvXrukwNuoR0iTa5cuSsvhhRoxLRICJH/p98MEH8XFzbNpClCv7U089lU1Hh2imwwj01RrxH9fG/IFSgBbDdVVRUoIjjzySzs3K0BbEYWJALV++HO6U4wj+lp4WNBs8yEfk8MMPP2S1tmASUPJiEEKUx7umw6KGpsOSQ9NhFqAj3XbbbWE28GB2PTlYvHgxG4JboGeI8j2DCHLRRRfJTRe72nnjjTdkGqVSmp1VrZMp6TCqEPsrr7wS9WfaGODgB+aFSzAH8BL/iipgXBXuFquMEAocU+PUqVP9NhIEXfJLHqzWLuytPh1minrNmjV23Rxr4zc42FDziwf+h3ehpOkwgybSYU2Dgc+/Gxv/Z9dkpMs8lzz33nuv37AH78Ul1GG7RPDLkuYHe/XqxQFiC1wdLxDDGfWbrt4WfCiGV4ERDQOTK5IBDr1nyFQr115RUcGC0gbQsGFvw4cPF89m0Y8BjCOOzbvvvltaDIF8m1JM5bDDDmNX0YQZboW7YyFXLVU98sgj0hYKHKFypn1pvXRY79692QSvNCLXG300HZYcmg6zAEdrVlaW3XBIgPc2AxWl5UBo4KabbmJg6caXNkJo4YUXXvBbaj8y6OkwhAvw1JdffjmbQIsZEqkHMEXNdQvPHHrooZCP2DqFFgKGZYjJEJ6G/rOSIGASrNwuvExNh8lAgBBa4+kw0rNnT05FzY47X/FQCEqaDjMIkQ7DMowCX7lyJWpgtIo9Ag4uIDkK7K4hwYgRI9AohxU70BpJmRYSwafDTIcDRcSvIpKEFRYXF6N+685NKjT/qB+gihl08gzgAzVpCeTAPS9TUh6KXSBkKcC0KHae4WOwtHlEHXbHkXgJVIuGqGuqOyHMj6AS2gmiXHYYvpcNWek8auNj/vDwq1evrqioEMfLUSmia0f06bCooemw5NB0mAU4WuG4rIejBH5YHUIy3HHHHXZnWEHTYRsI2Kj1dBiiDQ6wyy+/HMGBxAdpDwRLvCiuVu5dM4jEGYoCtsglGQSFPQshXBI/wtQ+ajj77LMRgYW7YY4++yUPr3rLMAbN8J/Sx4XL2hWFdevWUThWgD0AmBPKf/jDH9hKs/iKh0JQ0nSYQaLpMNGs6wLq6saPH49KsFii5QMOVSqIg9cWqHPZsmVsHcDPtOMQi1o6DKKQD0JHlL9dqM1WmulYrXkJxJQGyuZlpjGQBq5dyvqAmHXEddCoWBYGDhyIEUSDNx+zsgI8JOp8+umnxbxDmDQ/Yl4FC2eccYbfjEdop4QPEvEkvNXBL0MAtNhKriAcmg6LGpoOSw5Nh9kBA9a3G0u3B0z8NgzQnLqIZpGZ69///jcnGl+g9tB02AYCFmk9HSbjCgsY1E/tBu5spyXmaOdV84tLUsDJzz77rFevXpRPkjAIA1xmv/fee2wrBAGTYLV24ajO8HSYaSEorFmzhsKxAiXM/f77748mWiLnenv1SpoOMwjxdBi9HMWO/ZNPPsmqunfvjkEKx8ihahcuTQ855BDxNpIvaBci+GVJAZKx0pkAVAHqT8haWg66TZ1ibw5qls3mcAaHaQmuTn6kzxSC0hpQ4ALND8DOzT/UaHE0SVVmc+GAeZg1cFBMmzYtKysL9UsWL3Q6T7rKGhCJQSZw75iM0C5Fx6fSopAX03RY1NB0WHJoOswOcIy+3bRmOgxuQfBPKY0jM1e/fv0gRsaWdqNWTYdtIGCUrfFlSYD4gF+WTDKyiT4iz4Bg5RASoBBeeeUVxk8wbiyMAQs4EzoyI1tssQXqR+wVLvwK9Nyv1CoczxmeDhMogcWLF1M41jnggAO4BmhW1L7i8S6UNB1mkGg6jEOPIx1lPrdyzjnnBGYyK+M9AKfMe+65B623+42HKKfDUENrhBcMJVE/bSD5fgagUQGpWcyMhxjmVR48TEvk2isrK9P7StsdiFpMDqaFMs7A2B555BGaOtwXRhDgaLICq3rjjTekXexDDCX5CGoAPITBoICIFE3QA5uFRMGF04GbmUFw+umns2k6f5Fh+6LpsKih6bDk0HSYHTBgfbupB57NLyWNNCHwjNI0nPjAY489BjFyjFvUC9B02AYCdmk9HcZQCYULL7wQ9UO7ZWVlbCstEXlK7IU943VEkLxJOHXqVIRKkAklYyUTz2COP11xyy23JLNCCJiEV71leOGZnA6Tq4a0Wf7mm28spkVoVFhUgMBv3DZBve16JU2HGYR4OoyLLlkFlZaW4gyqgmpEO3YnNsCa6QfeffddNt2OQyyC6TBKAx8HUIFfo23QhOSnLGL6DezNJvASDhcsWDB9+vTFixcvWbIES990Ze7cuRiSKPDaMbLa0cjTG44UFkTIRUVF4r44iOT5dFsgpEFzEi6yD4ki7jfwfBZqgwnxATHxSHSeCcHPmteOSRwCYWps5MiR0pymw5QG0XRYcmg6zA4YsPBm4gxBCH/YGNIE4aHSEigupsNM7dhC02EbCJhmKz0dhnF15ZVXMkeTIWErBIsrxR4RGFbCn3zyyf/+97+LL754l112oUzkXqLEUsyGQFbh3BCCMH5w4cKF6EB5eXm49VjAJFi5XTiqNR1minrUqFEW02GEcj7ppJPYRLOi9nuDd6Gk6TCDcE+HAa6CRN1ffPEFaqOisd7jgA39YEITsAkIhO26XWkPIpsOA6ghnKdtArk61N96C2DUzMmUZjZ+/PgDDzyQ8wj0TtUDK6KOJpLH5Ng566yzJkyY4MlGsYnYsDncYHvXX389rQvGJmYmSkkeREdvv/02m8OAZevNzl+NgavghaAeKWB/3XXXoS1xAiH8sERxEALqMUccXoJAOE6BFNoXTYdFDU2HJYemw+wA7wqbMT2YxeiITcAnEB4qLYETlqbD2oKAabZGOowRQ2soMprgSnmx2EuwSM/CMpcrLDOC5DtRCH2LVSJR6jGZHxUOmASrtQuvXb8sSU/HwmuvvWZx+iGs8IILLmArzeIrHgpBSdNhBiGeDgNi20xb8PD555+HXqgaDFuOBYtgUcc66Xjbd3xFMB0mH0TBuvCpVhBoiIXkCdzhgN+AZfbq1Yv+37yzgjM8mZaI4lAQmb/++uu+XBRLiOmK4ZWWli5YsIDhCvNHkD8Nz+JoOvTQQ9GWtA4nFjqdJLGQzLYElZeVldFJ8nLCIZ8NXD6F884776ChQNPtiKbDooamw5JD02F2gI/y7aYei/7cb0NJHM68kg6LH+ZJoumwDQQmrVZ6OkyxC4YEg7DA2Nh2220LCwupytDhY8Ak/KqtQj+r6TCJkiGEW265hcKxCM3jrrvuklZYaAxf8XgXSpoOMwiXDouHc9u1116LOjkKoKPAKE4SLvCkzmuuuQYtiurReVpdMlfRcqL522GiR1RlpT8mrFCa8Bq0hlTIL3+BG264wfolpApy4ShgQuzWrdvq1aspFgBZweytqyDTCAQSEOk555xDsduCeVsJaaDN8ePHm+22RjqJdT7++ON0la0xiHhF0lZrXEWitF46LPCbDDruWoimw8Ljmpimw6wBmzGnVBas4DeghAK+lOkwYH2e0nTYBgKTlqbDIg7XukS+HcNDvDRo0CD+eDbV2mz6o0ECJsHK7cIhncnpMFnNAsb9f/7zn0M/GxgPYyM+IfLUU0+xoWbxFQ+FoKTpMANb6TDAbzGLru1Ob/QG/O0w7sGAAQPQbmlpqazHaHKhM+YtR9NhXoM2MR8Qg0L3339/tpuBmLqDx4PxYwakVWNakZklM6cYK1B0MOOKigqUYXtTpkzxJW4DSYHxkIUzzjiDsQFUSWu3rkF6Qs7CEkFZnH/NBN+jjz7qtRkJO9Snw6KGpsPC45qYpsOsAZuRKdVuXOQ3oIQCvlTTYW1BYNLSdFj0MSMtILPgxRdf7GvRI/T3JQMmwcrtwiGdyekwChnXzvTlypUrIZD4gCZ5unTp8sEHH0iLTeO/AwpBSdNhBrbSYZKQmj59OqrlF2rMHHeSxJsQHAWWeV9/DQW6oPOwOtAGuTCg6TCvQZtUV1dDfSxDiRbX8ClHQHc4PPvssylzERFoG1NPV5iQEku2tXo3oR432mgjFqZMmcK25KYR+mB9KLFy2MagQYPQqPVxRN+OaA2F9evXR8QINR0WNTQdlhyaDrMGbEam1MDcmiR+A0oo4Es1HdYWBCYtTYdFHObCGLpJRgzsv//+XABIFgyaNZcELSdgEn4DVuGQ1i9LyrX/97//pWRag2+++aaFQvYVj/eipOkwA+vpMBTeeustv3ar0EVgDcZRxkPAps1LSOZCWoimw7wG7YOaWTnaao00ekoQr7tjjz1W5CP7TJ5ikkciivLy8hEjRkDIdocMH2KVOq+44gqzUUINWtQjq5IUFdo1o6nkEa/LsXnDDTewoXZH02FRQ9NhyaHpMGvAZsQP23XyfgNKKOBLNR3WFgQmLU2HpRacAnffffcFCxZIBBn6uTASMAk2ZBcO6UxOh8lVs/DnP/8ZqowPaEIjThNx+fr161soZF/xeC9Kmg4zsPhlSegCNQAUbrvtNihd1k7JY5qQLPB69eqVlZXFv6jA1tkTyc21HpoO8xq0D3THyqXFzCRw7ccffzwsnEaOPeTTeirIBPgIlUQUkDAEzueeWgO4rNmzZ4ttA2qTZT6nZhEaCZobNWoUWpdvlycPXTq9MavFDCIX0o5oOixqaDosOTQdZg3YjMyndoMKvwElFPClmg5rCwKTlqbDIg4jUQyJrh4o77LLLt988w3VB22az+SHCx8DJuE1axkO6Qx/Ogxy5rUPGDBAvljhiccmMA80wYYCmo3HfxnvRUnTYQYWnw6Tj3Oo7rfffn4bNgh87xIWlZWV5R8YMx/Xt8lcSAvRdJjXoE3MJCbqbw2nkUJA2oSHWFvKrGc9e5KZ0E1hD+8BY2uNp6j4KCvW87fccgsbJS2ctkLAOs3Yw/qXQCEo0zJb/vedWxVNh0UNTYclh6bDrAGbEX8lBSv4DSihgC/VdFhbEJi0NB2WEkhI+vvf/37OnDlQXGVlpbnSBqWlpX4pQQImwYbswiGd4emwiooKiPrnn3/mksC6myN9+vRhc5BzQLPx+C9DIShpOszAVjqMS3SsLVkoLy9fsmSJddV37doVwbFUy0MUYGkff/yxmU9pbTQd5jVok8ANj/hVUCZzzDHH+KLxoPwzdopJHgqQHgPitTiEA7DOVatWoSFYNVQWSPu2hhLZBAYUwqdvvvmGPbGCRGi4LpR5l+KTTz5hu+2IpsOihqbDkkPTYdaAzYhvt+vk/QaUUMCXajqsLQhMWpoOizgcDFjWonDCCScUFxdDaxI4sgCdmkumRAmYBNu1C68ik9NhojIEkZRGa3wDBTX369ePbUmLTeArHgpBSdNhBha/LAlQg5g91n5Dhw71m7GBfOUnkGaV8+Xl5bYupFk0HeY1aBOxHFaO5qxfQvRp7JKxtoRMMKYACsnMgwqQtNQ999wjMxQdi0WwkgcPPfQQGzWRaQvWbjdUMG2DrVx44YV+h2wgj7zxEGX5Ybt2RNNhUUPTYcmh6TBrwGZkYrUbVPgNKKGAL9V0WFsQmLQ0HRZxGIlmZWXdf//9jPiBxB+iTXkpBFIJYbutQUlJSaCttMFTxYZLQ9kM5Vlevnz50UcfDTkwjjG/1JY8qJN+c9KkSWyUf8Kyafweo3coaTrMwG46LJ57770XrciCMz60tQKfWTjttNPM3CiXhTjTGtel6TCvQZsE6mSjCpGnw1pP/mkJHYKICzOUTFjwD4WFhTI92b1tw3iGe7TYZulLcYBymaWlpYsWLaLjFffbo0cP8zB5hgwZgrZEzojTTFfcBrReOqx3795sQodeQmg6LDk0HWYN2IyEQ3bjIr8BJRTwpZoOawsCk5amw6IPn/I48MADJ06cyFhK4kjGduafJ2chIQImwUYtIuMZAWjaRE5QBIQffyE4iZfkMvmdVpRfeumlTTbZBELg1yj4p0KtPyC2xRZb0AZaKGf/ZRgRSpoOM2jtdBjqxEoeDcEeMEBoCdYzpNyj/meffZYWi6ZhIeYVJZNJj0fTYV6DNgnUyUYVoumw0FBW8qv5EkWAK664ArKV9bZ8E9AK8Hio8LnnnmNbLbltkzxiHiwQXPINN9yALvFKZTq2+zQcGoKQzcQf/XDboE+HRQ1NhyWHpsOsAZuRcMhuXOQ3oIQCvlTTYW1BYNLSdFjEYfaE9OzZ89FHH+XyVRa3BIehb7QGTMJvzB4cz4iA+U3PdAViNJXCpMOSJUvg1/bYYw/ELiCwrrAYdqMqmMrxxx+PpiUHF9BsPP7L6DJKmg4zaIN0WGlpKduiGTBDapGAsQ0fPhzt8gvLgBZiNxcGNB3mNWiTQJ1sVCGaDgsN81/0AyYzZswI+KL4hXfyoKFAkqi1gW3E56HWr18vfpID2a4fhuj69+/PtnCxtE9Nh2Uymg5LDk2HWQM2I+GQ3bjIb0AJBXyppsPagsCkpemw6JOVlWWubM8++2xfeV5cJXd3zVxMQgRMwm+mFfjpp5/mz5+/cOHCRYsWoZzS/Pzzz3IVuKIFCxbMnTt31qxZ48ePf+eddx566KFzzjnnd7/7HS8cHk0yX126dEEcg8NAtsIKb775pixvoNaAZuPxX4bVoKTpMIPWTocBjNaxY8f27NkTzdE87M58qI0VwtIYOq9YsQLt0kLil8FW0HSY16BNAnWyUYVoOiw04gFQYLnK+4sf/EUteVTKbi6Mju7dd9+VRFhZWRkLrQ1sQ8xDLhl7LjzYMe6tT82QKh+CQwek6bZB02FRQ9NhyaHpMGvAZiQcshsX+Q0ooYAv1XRYWxCYtDQdliogUJNYDYFIUVGReWc1mac8AibB5myBqNr6eI4aiEskNAlcL1QGfUl4Lc/68f3mo39Jggq7d+++cuVKX4stw1e8psPiaO10GDPXqLlfv34wGA5ti3A1S/PjGXDccceh0YqKCq7HuLf7gIamw7wGbRKok40qRNNh4TAFJb4IfPLJJ95s5t6w8UXcCkijwK7/aQxenX/wS3AeXWql66Uw77vvPjQEf2t+I7Vt0HRY1NB0WHJoOswasBkJh+zGRX4DSijgSzUd1hYEJi1Nh0UcLmuxDzzDf8ghh/B+I2IsFhBfhkuKBUzCb8Aq5szdtWtX5oxSGv9iPG/lRbz+L9mTzp07I7wOnOGhmxtrhefCQJ8+faA+2AMsQZ4ZbBpf8ZjrUdJ0mEEbPB2GalkzFMdGzWGSPGJygG4Eh/fccw9bJ+yDLE2TR9NhXoM2CdTJRhWi6bDQQFamuBg8HHfccZCqOCIWLA4ZTIujR49GQ2a40gY/HyZXinalLIVXXnkFV8p5uZVm52XLlrEtwPsQbYOmw6KGpsOSQ9Nh1oDNiG+3Gxf5DSihgC/VdFhbEJi0NB0WfSQ+kxuY3bp1w1x4wgkn+FpMjoBJsAlbcM6WWBNYH97RRy5ZhBAfyiQPxjLUZ4bazaY5fMVrOiyO1k6HyVeEUMCy0G/VNjQzmJ8UwAcffIAr4lqUTytYvEBNh3kN2iRQJxtViKbDQoOZQsTFWeP999+HSDFJyfRkfZ467rjjzHZbeNvGIpgTJSPG+ZHJOAZX/LNFFqFz6Nq16yWXXOI237a5MKDpsKih6bDk0HSYNWAzEg7ZjYv8BpRQwJdqOqwtCExamg6LOIzSMPOhwDJTKhwkN910kwR2oZ/DD5gEqrVIILBGt61H2O0FroX4x02Cq+YTOixj38IPtpADDjigqqqK8X3LHxL0Fa/psDja4OkwURNG7pdffmnXHgDdBaqlvclKD3a4ePFicRd2l2eaDvMatEmgTjaqEE2HhYOjnuISVxAYsCzAe1gcMh9//DHbEk21cXqIoHV2QOTw4YcfioeUu1YWgQynTZvmNW7/D5g0gabDooamw5JD02HWgM0EvL0t/AaUUMCXajqsLQhMWq2RDjN/EYlf8ePCLI3BzERM22VQJSetCwHVovL33nvP12WccltI4FN+7UpU4ZiSkJ3WNXjwYK5quKdOm11p+IrXdFgcbfNT+tjLeuzFF19k0xjU2NOLsmwRmg0icjTKVRm7EQAvhVumajrMa9AappGAqqoqaBBTiVyF+IHITrLsMAowZuv2rOmw0JgDH3IbOHCgL1NLiEHyPhBUf8455/jtRQZTCEceeaR15wB4+Zi1TzrpJL8lr102Lf4/nL9tltZLh/Xu3ZtN6NBLCE2Hhcc1MU2HWQM2Ix7PruvzG1BCAV+q6bC2IDBptdLTYVCh/FoN9hKypx+YkwL2ikMEghILEk5dgZPJICLdc889oVMg93gTJWASrFaJJsySQPu0OlgUCvvttx+1by6boVYz1m8QX/F4F0qaDjNom5/S589Il5aWYo9WLr/8cjgKeYoQ0GPEB77JwDqvueYatx9euxUVFd7qbMOv6hB2MiE0HeY1aBNzUGO/xx57sF2xChgMdWpaTkSQ+dFM21mMBzQdljwwMMgNmhKLSh6aYsB9zZw5028yYvCr65MnT0YnYa7sthVo/LLPzs5GQ6ZfheQxd4fwtC1Enw6LGpoOC49rYpoOswZshq7JLFjBb0AJBXyppsPagsCkZT0dJhE5nbUbYdmLsaIMLhNRlHmxOOzevTut2WKAZUJp33PPPck8fh8wCdasRBkxp27dusHA+Kth0CMXzCi08Fazr3jM9ShpOsygDdJhAR1VVFRgFPvNe7TGXQRYC30UXMe7774b7zdwsXK9IS5c02Feg5YRU4HZnHbaafxWl0y1LKAb0YSdhMuSJL5FNB2WJPQAjz76qC9Qq8DVUOMw0b59+0ZQO+iS9Aoe+Nxzz2XPbQEJdO3a1QwLmXrDiIbkA7cwk4niGkPTYVFD02HJoekwa8BmZEa2OzX7DSihgC/VdFhbEJi0WuPpMEa9BIcSEmUCcqUyV8kZWb3Ygl+aAxtvvPHSpUuh2XD3GAMmwTqVaGLGQFwVX3XVVdAaAmtZMzMpBppNivmK13RYHG3wZUkABVFH0sSMGTOoYo5uOA3rSTF4JKZTUYAA0agYDMGqLPTTCpoO8xq0hjmEUYZehg0bxnZBjx492Donl1a66ZIkXbt2pQ2L77Jo0poOC01ZWRksChJbs2aN+QMXVqBBmjGP+acVo4NpMBhcM2fORFclsrKCOBya/fvvvx8Y1NybJy2i6bCooemw5NB0mDVgM+Kd7MZFfgNKKOBLNR3WFgQmrdZIh9FN77rrrueff/5ZZ5119tlnn3feeeekKbhA7HGBuMwTTzxx//3332233bbcckuKAqZMeIjVCwvJg5WPVAseeOABX6OJEzAJv0YlknBwQfs0gJ122gkqazCSbsmtZl/xmg6Loy2/LClroaKiooqKitdeew0doIpR4AOAXqeswQr52ALtBP0xrQiH7GGiaDrMa9AaUqGoo7Ky8pprrsHSWpJKUqDBRBAzLYJOWlSBpsPCYY5uDK74pbUVUC3v2dx6661oqDWefrKC+Qcur7rqKnbeFhyVtHmW0Yr4/MCtCOtoOixqaDosOTQdZg3YjMzFduMivwElFPClmg5rCwKTlvV0GENzqPDyyy+Xr26xrXQFF4jg0rxMlJcvXz569OhHH330r3/9K6Qhf7TILoiuOCluu+22oWPNgIJYsxJlJBL65JNPfLV5KxyMODEDTYclQ9ukw4Coqbi4mAWABSr6IGkOi08rwHJYraRObrjhBjMRJhdrnmw5mg7zGrQGK4SRsCBKGTt27H333YfCFVdccdFFF2ENf911151//vl9I8bVV1992WWXHXrooegbBGX9KTZNh4WmrKwM4po1axYlKT/sYAWo2Ix5zHxT1BCbwSiDW16zZo043uShwYtgIRaApQ6a409GmrRkyk4UTYdFDU2HJYemw6wBmxHXZNH5A78BJRTwpZoOawsCk1ZrPB1G+B0uNNeqPxQaHXClhIe8ZOzLy8tnzpx5+eWXWzdr81kzBHAfffQRm04U6TPxa1QiCawI8TQKWGy8+uqr/PERLDbCJS/qjdUraTrMoA2+LAmVAa7BeEaymWjxn//8J7rRtWtX88ma5KEXysrK4iFAVD1w4EBZm8nTCuEsStNhXoM2kVQCphLsoRdzPl2/fj325nelI4Vr4l7HYNjvvfcefFf8Ki4ZNB0WGs4d/LUsu05G6NatG9Tdr18/NBTNIFDMRqwU+/vvv9+/AEsEbB4eY8WKFWiIjQIIp5VMV9NhUUPTYcmh6TBrwGYkHLIbF/kNKKGAL9V0WFsQmLRaKR3WuXPnyy67rDVudkWNgDxxSOQQe6wwUcjLy/OlYxW5k3nllVdKdJUQ0lvC2pTIAv8oawxoXNSHkJojDgWAQkCz8dR/0itpOsygDdJhkniCsjhy2RDLc+fORTcY8jIBagUzhmYZ5gS+/fZbLo/Fh4Tz3poO8xq0iShCVMNWqC8ghhRZ2OG1a9dSYhbRdFgyFBQUQIYwYNqwxaei4FvEa6GhyOoFHWPfpIfwxhhx7HnyQLCUKqVBl4v9TTfdxOakAzKc7aLpsKih6bDk0HSYNWAz9PxmwQp+A0oo4Es1HdYWBCat1kiHUX9XXHGF30amIssYFhDufP/99xJxspCkrcvHEWz9v//3/9hcogRMghUqbQM0KGENCmaIwzI0Sy2bBvPMM8/42vJg8isEvuI1HRZH2/yUfjxMefA5oMGDB6MnMsZRoA3QMOS8Lcz8V2iLimA6TK4FNfBrp+YoswW7x7ba0mCiD6WB/fr16yEou3ar6bCWALNkzpRjnE4G5aOOOsocCxKcJI9o+bXXXmMHZJ8SYM0gbpYFu7+vD3766ScohVkw6/KRgTBr1iyo1aIrJpDJYYcdxiaAjr6Wc+yxxzI3yj2UEkIv/BTgIU1U02GaDms58DbyF1TEkGzht2H4hBRy/u2IiIt/69kc41ZAbc899xybaEd3remwjEPGv9z3wyr3jTfekFkQe3NeTAh8HJ8yhwrCtR+8vxOXKAGT8KtT2gRqkNrkGYAytCm5D8Y6pFevXu+//z41hVUNljTJODX/k7BTlDQdZtBe6bBA0HDLLbeYaVBAO6FJmIaRJKj27LPPRovogJkXS5QIpsPMD1J6VrpEpCrWrzFfPDKINB3W9piPoLIgZ0aOHOkL0fMkdv+4JF1T9+7dZYaK/jOMJphb0f8uv/zDvhb9LSRzyimnmOaajNeNR2qePXu2hBZ2/d4hhxxiNqRDryVgGB577LGUIc0JkkxeL6xK02GaDms5GLDi0JK3wACsnw0R9Q8JwXSYdaDo/v37s4l21IimwzIOCUAhc3OZdPjhh4sbkkglUSBkVEJRiy978803/TYSIWASrEppM6hKlhF/mz/jIofY422HHXbY9OnToSMsLWhRjKFN60oIX/H4NEqaDjNor3QYoE754AA0e8IJJ6A//KFAuAsOdvoNMZvkQVVY+D399NPsQ1lZGfYhVmhR/rIkYG1WukSkKtYfeiSmMTKINB3WLsAmRSzMSWFc4yQFCHUAi55EgD/54IMP0Jz8+F1qZcTQeV4I5GP+WQBbQOaffPIJZALtyPegbSEanzNnDvrPFqVghYMOOgj1S8/V9bUEiAsuiwKkOqwoheNX02GaDksIGg+w6xkAKheHAF+kzqHlUFaPPPKIL0rbBL4sCe3IZNFmaDoss4CcYdYibRQYg6I8evRozl4UVDKRKGtA3MlKbr/9djaXEAGT8CpW2gjRvjkh8aS8xFj8wQcfROgciD5pZiyHwFc8Po2SpsMM2jEdFlgarVq1yu/TLw1DzMMiqHP8+PFolAvXEBeeEukwi4gPRxOEDSkCZYK9psPaHhEIwg/AMhgwYACkh8hB1NG1a1fzSagkQbV8eohIRgz9SQnY24MOOqhbt24UEfYs2AK19e7dmw2B1vjtMFwIJjK/PdtDb99990UTEnuEDkIyCkjp8MMPpwCpDitKYTCg6TBNhyWEWI51ULk4UuzVObQcxv8PPPCAL0rbvPTSS2wIiIJ42GZoOiwTgRcILG5xiKXmJptsAhGFfjRMoKjh0Vg48cQT/WYSIWASXsVKG9GlSxfTDFDm/MST/ALLueeeu3jxYl89XtwME+LaBrrjgzzh8BWPqQolTYcZtFc6rKSkhAUz9Zmbm4uVKp8ThHkk7zfiEauDyZWWlsJxMSOWKFFLhwU+ZXHBbwK5yZ/mbEtrSQlkEGk6rF0QmTDhgnGN0Q3RyVjA2Df/SrUtoGiZzgScTAnYW7pcXAXOBC4kSfi3fVHn22+/LX4+ECsmD1T/008/sUUg15U8qGqvvfZiE2xLV7wtZN9996UAk1FH4LM8DPdjKamGpsOsAf9j160J9AYB56AuoiVwFmAgnYyLaIyBAwdCL1SNKKiN0XRYZiEjP97g8NLBBx8si1tPZiEJfHzvvff220iEQA/9upS2BaOma9euolAOoksvvXTGjBlQCs0pkKEQG+Mvr4fAVzyqQUnTYQbt+HSY2RzKRJ6dNhM6FvNiMDz58aATTjiBrYcIXyKbDmNh0003tdKfAKhz6dKl0pA0qgBKA3tNh7UL1fWPpQt0JhzvGPh0I/w+vitTGwQiE6bbWmPotR4QizhYKVikZ8+elBI0Ive3LIKxABYvXowmKHmL8kdV2223HYcb90oL2W233agIat+iUmbPnu23kc5oOswaG2+8sWl+Fk1x3bp1qF88Aycg6+n+tISyuvzyy6EOixoRXnvtNeiFrYSI8K2g6bDMImBntD8Kv7Ky8rrrruOyFmFWIHBMCHNCRXnbbbdlcwkRMAmvYqWNMANulrt16/aPf/zjiSeeKCsrY/4Ls4joiHbFB8RQQAwdUF9C1FfqlTQdZtBe6TBmNqlltCsJUNhAnz594DQ42GXIe521g0y9WVlZDz/8cLirjuCXJUWJYPvtt7fSHxNW+P3330tzgGUFUBrYazqs7ZEkizx2unDhQqpAph4cStk6vO2XcpiutTUeKaUK2Er//v2pJruLE46FZcuWSUN26dmzJ583lMhWR19L2HTTTTncqBRYAo0hBOZnUZg/f77fRjqj6TBrYMEoxiN7K4gp0idIQOudU5qCUjr99NOtK4W8+eabaIIasTvjtBxNh2UcWMHGZysY93DRKH+6O4TFcyqVCdU75wYobCUhAj1kVUqbwe9NdO3a9Ygjjnj++eflByBoKqZ2zElF7rQEHhlLCL9q1IqSpsMM2vHpMCITlTz6V1RUhI5xyCOetrvCkVUrC3ApOTk5ISbLCKbDZNSg8Jvf/MZKfwTUxgo///xzsRYWFCJi0XRYuwCZyGRRUVFxxx13QG7UApflohG7qkFtkmUTr8XDlIDhGXountZiXkyqokzgmqybLitcsWKFtGIX6JffEJfbdSHmiwwEuqA6aFcQoxhYouCzgGXUuXDhQr+NdEbTYdbYddddaTy0IrGl5Pn6668l7sJeJiClWSixf/3rX5SkN8St6QVVvfPOO6ifGuHe+tTTLJoOU3yqqqrE1q3feIR+EzXuwPv9iuwBe8B8zwiAh1JOCcz729Y7f+ihhz755JOTJ0+GFiR5mqgGQ+M3g2kLJU2HGbR7OqxBJkyYIKFzaw8irAYXLVrEZCsiGwA5MMRpggimw5hW5sT/pz/9CbVZ6ZJAjbz33ntea7omDCKDSNNh7QJkApvkKJg1a5YvOCUCiDO/9957429rVVZWhl5GykAoKyuTEWdx6LEq/p1rwNmBZcXE1CBEtHz5cgqQUaUZGCeKGVGzAAfrt5SuuCam6TA7wBr/8Ic/0HhoS+KOkmf48OFoQmOhcGAu2HvvvSlJeWjGClA3VQNgAIAFnmkzNB2muFD+d911l7gemcys4Bp4gsYdeL9fkSUCk73di20DAndxubd7FdOmTYPYRQuIn9psFvGbRGsoaTrMIGrpMEyQDKyfe+45dI9htPUvIolTotnzT3MEnlKEcTZhnxH/7bD999/fYswHWBv2zzzzDOqnZCgxhVDy2Gs6rO0xBy98yBlnnIGhbXcIKOGgj8VwgBvv3r37woUL4T3kWWAqLhl/QqVj1uDj52yLBSugtrFjx8Ko2Ek0xxYVQQQiGvz8888pPY5ByDD0HXEZxaiE8Lur6YwrTk2HWYCW+fe//11MiAVbvPjii/LXhBm4qnNoCfClFFTPnj0hRuolsIhOBjiNvLw80QVdd9uj6TDFhfL/z3/+Q0FRVhZB/QEVN0vg/X5FVjGzSCiHjgDaCzgRdFv6b1drkIb5pYO2jGnqnaJX0nSYQQSfDsPUhaga+6uvvtrvpT0ktkZByuDee+9l0+xD/CMMAaKWDmPP5bPHHHOMdefDnyQ/55xzUH+z8slAZBBpOqy9wCgoKSn59NNPLQ5JJRnghQJauOSSS2i9EgAwh8LFZAhkLPz6179mE3b1jkt4/vnn2YSOvgCcd2T2kcKbb75J6YkuUAinF/NTmLJ79OjhNpz+aDrMAjTII488ksaDvcWcC7j99tslFgqXzc9M6O2XLFlCMVoPVqHrr7/+WjQCjwRYbks0Hab4wE088MADlJX8dSceJk8I+w6836/IEo0lj9wQIBXgJMHHcFi2qCzA2s444wzzFkqbLap9xWNmREnTYQZRS4fJBMY4BpaJTtqdLGneqFmsnWfeffddts6mzUI8EU+HnXnmmbwo6/zzn/9kEyD979InggwiTYe1C3KX/ogjjmgl41dCAF1ILAFPjlBwypQp8nQYLJm+qwln2ywcDrvtthuasDvu2PPTTjuNDeltgAANpgAQ4919990UHdQhgzFESCnaZAE1bLXVVn4zaY6mwyxAr4LxC8sRE/IMyg4HH3ww6ofBA5mUk3FlGcWYMWMYhEM1dvUCFi1aBKX4LbWTUjQdpmzg/vvvN7/oZHFZC/0GVNwsgff7FdmD9oA94nJpy+tmCgBngf1hhx3Ga+nevTuvhYe26Nat2x133MEQSgLiNqB+mvJKmg4ziODTYeZTA19++SWCabt2yNQ8CFQL7/TTTz9JB5q2zwj+dhg/yFkfs5L18AIVQhcAQUZZWVlErCU6yCDSdFi7wNj3nXfeocRk/aO0Owz8RB0nn3wyNAUf4unNBbprMLHSQjAcwN/+9jdUbtfvcbLYZJNNmAjTcdcYkijk7CmRJBCNhBiP8hEp7LXXXmwo3dF0mDX69u2LuEWsKIQdNgaqRf2SakHBzIspTQCH379/f+hC/AN1ZIt169ZREdROuyhF02GKC03w4YcflqjUog8C0G+i9h14v1+RJcxRzb/1nmSE1/ZAPvPnz0f8JzOHxfSlZEVR+fvvv2+Gwm2Ar3iYJEqaDjOI5pclsZfwWr52YQXxQrTtwNrp0EMPZaPoQ9PSiGA6jOkA7h966CHUZqVLBMOWtUFugwcPRhOp5dzaABlEmg5re8RpYKIx5xoWlPaC6SQZC1lZWSyPGDGCigN8rC+cSctwgAGceOKJqDng0m2xfPlytkhLUwROBNxDEdRIjx49IDQZgFB6uMFIazF96RFHHJEZKtB0mDXuv/9+mh+dg10XsWDBAto8QPSl/qHlnHzyyRBga3jsjTbaKPBlfND2qtF0mOJCy3vwwQchIpg7sBubetNuYq468H6/InvgAnGZsIqysrKU84noMBMQWOviWrp162ZXX0BWKRDRt99+i7babEXtKx46QUnTYQZRS4exD/K9J2LxR8QwQlkQawQoy/mbb76Z82jT6ezIPh3G/VtvvWWlPwH4u6ePPvqo16CfelOIyF/TYW0Pn8geNGgQZAXJm6NbaV+6du3Kew9UivzgvVhyMsGSORAwTVh0xQL6jwr5F3XZ22Q6nH5wlqRMqI7PPvuMooPcRBcyw4ZAPovaLr744syQv6bDrPG///1P7Ef2VoBzeOGFFzyXoD4hASAuLJN79eoFGbo+woMitcJvfvMb0YiE8eZk0TZoOkzZwEMPPcSZjHuLQSr0m6hxB97vV2QJczyXlpayrZRbLqLD6Ln84ptFfcEAWBsKDI7XrVvnt9r6+IqHe0RJ02EGEXw6jLOXPB3GLy363bUBlzcowBQBCjzEningd955R+4sNUbU0mGmBjGK8/LyeGm2kAdFIaL99tvPa1P5BaICTYe1C/AYEJQ5Z9kdAkoIRAVmRgx7jI5BgwZBa4yRYM/NutzGkGXP/fffz0Fn8U6e9P+0005DQ5ybmrhNkrFAOFAiQOHuu++GCqgF6FrmjtCIQlG45ZZb/CbTHE2HWQAGiX12djaMxwz2LHL88cezLcIWlWaRpDmBXmSYJw9jVOqiHZfhmg5TfDAvPvbYY5QSwyCLngj6Dai4WQLv9yuyCi+QX5aUKC1VYC6M5WOPPZa+iVMI91QiyjxMFNE+Cqjh6KOPZltsVJpGrGlddH7VqBUlTYcZRDAd1iBz586l1Yk/sehMCM0bwPK/++47MUJTONzjpQg+HUbwcXRv0aJFqM2uiGRVg2ohHzYnucuUc3fWEQksW7YMIhJzsoKmw4hkT3hoyuH++++Xr+bBV9g1fsUu1A4VxzsfUKWpzRbCz9Iq3njjDfgou3qXUAc1w6l6bfqRUsAU5f5NRsHL57VLlnDXXXel0Kwg8w4j0pdffjmEnaQgmg6zA6wFUS5NiBNE8vlZEziclStXsiHGAPQMCqAoxEtDRCKcK664AtKTFFi4RaVAnYrzP+ecc+glzA60PZoOUzZwySWXQEoSm1p0Q9BvQMXNEni/X5FVeJkpmg4D0ueff/4ZFwLF0UlhaccCT7KQKBAO4eFmm212zTXXsDn+lBjCqRBqbQl+jbg4lDQdZpAq6TD07cMPP4QDER9i0ZkAzsrdunVjFgNWKr9oI1NpZWWlRPxRS4cFvA06v8kmm/iVWoXyuemmm+RPDchjHbIoSkXXlzxQHGIvXP7ixYvpJK2YBNF0mGBeOy0NZ1avXu1LypihMJxZUCJIVlbWvffeSz3Sr8pKKRzTpk1jzaFDlAaRiea6665DK+ZTbCjTAtn/zPR7FIj8Guzrr79OcVkBLlSgWnNycthQuqPpMGsgHEKAxxhPDMkijz32mESJmekEmgCSCcgEfh5r5C233JKuNclgKV6bUPRdd93FthgtJDmzhEbTYYoLF0tnnHEGpATr5CLKohuCfgMqbpbA+/2KrEKTSMV0GOM5c//RRx/xoqg1LC0kLgyhR05FAVDhyy+/7DbvITo1I04r+IqHQlDSdJhBqqTDAGKaW2+9lZ6Ed/nsIlbNP6uKxQ8zYpxKPdvcIJ9oflnSnPV/97vf+ZXagMLBXi5z4cKFcBRoVxaE9BsZiwj/iy++aNDdJYOmwwinBvk5Auxpdddccw1mKBpnjx49ULCuAsUi8CR0JqtXr3b1msSkT/+DfXFxMZVuxRWboKuIVcCcOXPQFka62VtOE5kJr92Uxp/+9CdfavaAQqECFKBfzDuZ4f00HWYBmZR322032pJdaJabb745FrwyCpr+o+QZhWQJRRH0GP/+978pQEAZhnbaXBEA1sPCm2++yebMkLjt0XSY4gMV7LHHHiIos5A8qDyg4mYJvN+vyCq8wBR9Okwe7hBB9evXj9fF7INEJN65xJBPmT4Le5yfMGECm5Z2E9Vss/jVQSEoaTrMIIXSYZzYjjjiCIwyGqRMhMkDa8Rqxz+o57XXXpNwX+Z1gJ5E88uSkpBCJccee6yMteSR8YsCr/Sss85iW0D6DClBONRURmFe8rvvvktBeQKzg6bDCGZVXrusPSD5GTNm+GJSUo3rr79eQo4QIRPHHT4O8PEdd9zRr9cS4tVZOOWUU0wfG1jsmVmhzEFcH6Rxyy23QEoW550Am266KVqB5NliWqPpMAvQVOAZ+EcMLUaMAupE6MhHRzPDMhOGLgKek4Uff/xRvochUXfo+NlcWkol06ZNQ0PQu3inEJNL8mg6THGB6fMLd2KgdudI6DdR1xN4v1+RVXixqZgOE4fFQ8Cr6NOnDy8NwHOF9lmAn4UZ0BKwpyuEO1u1ahW1w+xDopptFr86KAQlTYcZpEo6jJYJK12xYgXtpzVAzZykJWyaOnUq2/V64axfv56FCKbD4HDwWX4c5fvuu89uRgbgGiEiVMt05DPPPCNeTgoiqwwEQsCS+K677oJw7FqppsMEGhjtjQkImaS4MmEZ8DFPJZrAmUBZWBd9++234j0SxfwgDOPoo482DSB50Ek6Pf84FoNfZaNoDmBiohFm7DNiEALTgoMHD4bwrT+4LcLHvPOnP/2JjWYAmg6zA+wTe0zKsJ/AWE4ehljcjxkzBp7B9EgK74/6Bx447N27tye8X3zJg57WP2gx/IjolAXsi4qK2JxESoFutA2aDlN87r33XshHohO70yT0G1BxswTe71dkFZpEiqbDJOMg9zzBmjVr4OupRF4d9uEiTvmU+XH6ryOPPFLEJT9CYRFf8WgBJU2HGaTQ02EEdoKwg/FHODtsEFk5y4SKPQ0e65yAfEpLSyP7U/oyeEeOHOlXag/Th1MFN954IzvM1SBdX2Y+JQHLpAv9y1/+YsUYTDQdRihhc4745JNPKCL+1XZg0S0orQQdLDnjjDOgRzPqSAj5IAbgnXfeadZsC/g6ujtUDut6+OGHpUXZg3ZZcbUvcskffPABZQXsqoCSB5D8xRdfnDGuT9NhFpCxOXToUFqR9akZwOBZ7bRp06RFJQBGLoRz1VVXYSADis4khGr4EZE/Pc+ee+7pN2nQLnrRdJjiUlhYuPXWW1NQDZp+kkC/ARU3S+D9fkVWoUmk6JclgXzpnasOLGtRyM7OlmRBMqqEq6K3wh4hDssE5dtuuw2LHAotUc02i18d6kZJ02EGKZQOQ/cYfKOABUlreBWmezCKAetH4ZxzzkGjaBrGKUuvaP52GBARLVy40OLTMebVYbRK6gE8//zzEIu4O3mALqOAwOkzv/rqK8hEDMmTkAU0HUZw4ea1Q+ZHHnmkLyMP+QoGhG9OMUoEEQeVl5cHbYZ7wIrJd/qf0aNHozaL484kKyuLBdhV37594Wk55AFDvswclZDDk08+yekSexYsItqE2AcNGhTwAOmLpsMswBGK/aJFiwKLDivAOGmfLKD+/Pz80Jn99IOioBbg3i+99FL5+zZ0pxQaz6DMQkLwU+ZnL7nkEjaKSaF9fYWmwxSX8847D8Jx76nV31UTiVnBmxMTM/TA+/2KrMILTMV0mPRWpMR1NXn00UcR5VCJ4WYUSibwhCCqMmt75ZVX0FZr/A6lf0m4RJQ0HWaQKukw2icmV+nkSSedJDOrFWCKAQdF44TlP/7442xUkk1RS4ehY/igjGIW7P58LKUBfy5XSt+O/Zlnnvnjjz+iRf0R2bPPPlskY3FlqOkwQcYgjHzIkCG0RnPwUvhKxKE/YUhw8MEHi+9KiMBAWLZsGWqzaAAwKtQmpiVfoge77777q6++ikbZ83D9T3Wys7MPO+wwikWkZD0jBlMhn332md9w+qPpMDswFwNHsfPOO8OW7M4OsEnsUSdtnpVjucSmFQIVfPrpp/vvv78rMs+LUlAyd7MsDiQhxNuIZp9//nk0ak4N7eWcMygdBqDIvn37sgmOukxDYlMe8k7dlVde6QvIErR4Tro0ejaXEAGTcOu1Dcdz6j4d1gTnnnsur5Hxq7geXnIgz5UQrAF7jKbc3Fy0RdHxxgLLNDPuQ+ArHjWhpOkwg9T67TCzh0VFReg/zEaWKDKt8tAWrHbgwIFoFNZIg7zmmmsCQ0AOkyHJL0uyb6iBlVx88cUyuLC30sN4mJSElK677rrp06ezA25v6mF/gH/s4Z9K4mLbC/SZco7niSeeoJA5YVlcFh599NGon+IKzLmZhgRa0AIkA8OzKGeMFBAfYWcygbsOELjpcpMUvkj4ww8/FM2aD3yBJkydL5lD8re//S3rRN/MwQjoBq3AqiCH3//+948//viiRYvMb4ijMxik0m1zaZBywxYdZp9ZoJzXrVv3v//979BDD6U02oatttoKTWfEOsuVt6bD7ACDoQEjHIIVWZwsmmDPPfd89dVX4QTEXM3lDAtSTkXoDfwD79AvecghrvGbb7654IILIBOZWO2qQLy6TCXff/89W293MiUdRh1gxr3wwgv5SxZo0ZwRMwSRM4f9sGHD9t57b4rIChJ4EURmXbt2hfDZaEIETMKv0Sq0inRKh0FoXH2tX79edGFGw1IO5+NM/WZlZaHCxYsXs12v/Q2F4uJiFkLgVwGFoKTpMIMU+rIk7BBjint2taCgQOZCc80mJ5OHUyx8zo477vjUU0/dd999Y8aMgZfbddddcR7WK23BdFlIhuS/LEl4+M4777BaMwqRoMEiFAL2YL/99vv3v//98ccfr1q1ip2R70ChV5gmAo4Rh4EzKQH7zMtBpLtixYpLL720R48eFAgwPVvyHHfccWiOamXTqSi05OFkxMKLL75oV8iEA5mRhnkmo8BAhruAr0CBZyAEKYOePXv6pVCYIhXXDbXK6lFoiZ3zUxgdsIrrr78eVdHXSYdxaF2J0m0WYC1XXXXV22+//cUXX8gPOUvn0TcO3pQA3YYkzQ7Dxc2ZM2fIkCF33nknr7o1RBoPv1FFCfM35jLC73luXtNhVhCXgrHp2VQb3eTg6EBE98EHH6xdu5Z9MMeUlFPIM8AtBDwDyvKlDbwkP+v51Vdf/ec//znggAM4R4vM7QqflWMvvmjbbbdlB6JABj0dRr1us802a9asKS8vZ/Y3A/nxxx8/+ugjRCG77LILfwzC4jQpAY0Z+HJtkCgBk/Drsgp7m35Ph0F0WNN+9tlnuEAu+RD8iV+TuDC0pzPj7COOOAITGN0umsYekqQweSYEvuJRB0qaDjNIoS9LSlhDe+C9h+effx5XgdCcWXKuguyG6VIbXFDAwtkcwHnThkOTzNNh8R9ctWoVxqZ0jBcifbaC1I+9+AGCw9122+3EE0+8+eabn3rqqTfffHPMmDFTp079+uuvYc9YXM2dOxfmRzCJpAQzZ86c7TFp0qRvv/0W+5deeunMM88UI2GB+9D+MJ6TTjqJOoWWqejQzjANwGQEDyCitmjSZphB4s9kGpCAKWF4WkpezoeQP9wF/QZB3Ig6//vf/1K/DACoaJ5pDHMswCQQhE+ePBkVsnJxyxZHIglUi/6bTUAgW2yxxf/93/8dddRRcA7nnXferbfeetttt91+++133HHHnR4oRBD085Zbbrnpppuuueaa888//+ijj95777132mknXBQvkCJty0GBtijt/v37ezqPdKBiD02H2QQ2s2zZMoszRbNwvNB0mdWFK3j44YdfeeWVvLy8WbNmrV69mhNZik7l6HlZWRmuYsmSJV988cXQoUMRjcOBHHzwwfQPkDYLEAIlj4J5yzB5AoEW/PDZZ58dHXlm1pclhbYcZlEjkAKTghXoTTiosAeo31dqggRMwqveMuxtOqXDzAce4WWYfRCoFyA30kMgBoNBhDL2V155JVsUGaLpZHycr3hNh8UxL0XSYWbfxBJ4B6Jv3768FhqS2KQVaNisU2Z0MVT3HR5iw0mSZDoM40U+Tintt99+8WOTbqo1QM3AFA4OuYLiYarDCYgiZRBGY0CZh+a1mxaSJKeffjrVGtBvpoHL55T02GOP+aJpNY488kg0VFpa6rWcuWDNxlsRRx99NCVjujtvxIcc3Rw4KHAP1q1bx0bFzpu+zSwRAgv4VHl5ufxIM/aoWXprdjtJGPQC89rlKjyRuOexx0nTA/Ml4B9HDLgss28oQ2giN14gZ0OUediqiOjQ6PLlyzkY5cZYWqPpMAvQLcBg6E/233//NjBaIKMGzbGw0UYb8TyGmNkHnGmbLlmHPRd3EfBpOOQZhkw8Sexer0iYfPTRRzIptDuZlQ6TsNiuglMIMUTOkRwDAetPEkYeYvTYyx+6ToiASXh1W4bjP82eDsNcIjdpsQa77LLLoAJ5EoRDAGcAzySK+UEp9+/fn41SaxCmpsNag1RJhwF0T8aUdJVncCE9e/bk6AMW0xACLRM1i4myOS69iHQgNEn+dlhgjEA4AwYMYM2tIRMTemlTAhAUJwUA780OeFOl68mTl1W7YIpRLAHwcuSiUJBrt8L5558fMIy0mV8SBRe+dOlSyES+SAWL8oRkBxnjEydORFsQezJDMkUpLy+ngTH1wJzUxx9/DMPmEJCBEG4gSz2EZfiQO++8U5oTmpj6RTXme/r06YPaJERh5WgxXFcbA/VzjKPAtmA25kWZLbIcfaS3uBaOAsIhhj2/JIs32B10jUF5Qs4HHnggTTGZODCl0HSYBWgtYjMvvPACzEnsvFXB8OEYgQ3L6th7ZQNt0xOL4FpwUcDseeAqzEP6EJyhKFoD1oyOAXinwsJC6joKZFY6LGAHMHqcySh44VIwZ1ArMNsi9ROEZb5eEyFgEn5dVmE/0ykdxomEN+RFgLxYcUNyBy+gphaCGmg2ElPyMC8vDy0Sthsa//NQCEqaDjNIoafDaIrsJNZL/COGPDllyhReDmxS7ttbAaYIszQNOzCvS9aDRpskodNhprdBmYdYP6xcuRKdDzcwWwJqNgWCMg85lgOY3UDZG+gbnqtKFaBxuToU4L5YBrQBsUCL13XjjTeKiqM8TlsbJkowTHy5hJ10mgZ19unTx3Q42GcUNDZ5NlzyU/zDqbR/DAR6v9AqwACRocSxg0NMdugA2oL8qYKmMd/DD06YMIF1smOsmV21RfzQNv0AnZt/4L25Nay0bUDPebHmBfKMeSuo9WB4yS/Sig/MADQdZgE6BCksXLgQZtwGg9Ec/oCHGDVoXbwB9tITlqMPe2uCk/QGuEZ5A8rmZfIkgBOW1aIVzBaxP+uss6Dl6HiJDEqHQRPQQduMrijDy0ccw4ADMrG7IgWoGaMLoHKANZ6v10QImIRftVUoijR7Ogxyo+gkOP7666+hC1wpNY4yLpzXnihSA9SKAkMucZrz589Hc7wriD6EFqmveHwaJU2HGaTQ02HE/PYuEJN4/fXX/UuqD9btAsukrQIU6Ih4CHAmnP0HSD4dFv/xU089VfqGgtnt5JHaIB8pmyfFaQN2g32wIq62hw4qgJw0X23wnaF57LHHfHUaKk6JAWud6dOnUyYSWMOcWEgeGeOY49AWJZyZcub9BinAw9TU1MydOxeGLQOZsgoxlgMP1XKw0G/zb7WjObYrP0vfGOiVqIlUVVX98Y9/RFWslt2zOymgTvH5DZofmgMiGRQC8HxKgN5SethDpDJG2gA0R/GuXr2a6m725+TSBU2H2UQCpFNOOYWm1drAbsVVAsn7C54bcPGPUwe/317PWaB/aBCOX7yBYTNPWgQ1SyQwcuRIajkiZFA6LKBaHNI+Mg3GHMQs20JGmkjYV2qCBEyCddqF3UundBiExruvzEnxDC5t0KBBuFKoRmw+tOpFv6xNDgkblYwYDxPF/xgUgpKmwwxSKx3GMYXVDm1SImPmyPg3xYBFP4yqxCZRoM9HAXsYvJxnIWC6IUjyt8Owl+c45KslBQUFZsesRyQiB4AChYOC2VATkyOlin1KwD5zQcg9r10kwKs291Z4+eWXoU2qWGYWjoKMApd87rnnUhE0NpG8LVDhZZddhrbMb+tnGoGrltkf3HLLLSL/ZITPNQxXiTKyWJg0aRLbojcTnxaP2U9zODz88MMy+liQJmwRqB+0xBrxHus9sYjZt/iumldn9ymPpuF4TI+IusVoOswa8AziKMaMGWNxXm4Cc+xw4MgZb2BF1wk0QdPdxquQbeA9POSecrAof/FIKOy1115UcXTiosz6sqTS2sjIYdiEw1NPPTVchBr4FKu1C8d8mj0d1hiIUXCx5q1Cu26OtfXt2xeSpDCpQTkEgWeFGsNXPD6EkqbDDFLu6bAGkfmPF2VOutxbn4btAr/BHl533XW8EFtwHXvAAQdIthptRVYOCrQDWKZJAOgLAYx5S0ByndinJeLqsaeT5yXL9+CE0MtyM6cpMufQWLBggbQOzGRQhgO9ILyhrICYqEWgi2OPPVZsW7SQEIWFhfztam88bbif4bWgRBHqCHtRE8cmhuRnn31GhwCrCGcPKYimwywgrlsmFJjQP/7xD7Ex8WB2/+Kh0jZQj5y1n3vuuag5B02HKfahufMB+/vuuy/cMiBgEl7FluHgzIR0GKcZXrUZwVgESuca/umnn4buqHSRKjvQQiH7isd7UdJ0mEGqp8Mk3KF5QFBmflZiHRD66cVWRQYOXdy1117Ly7HL+++/b8YNSsQRNUlh1qxZVCU9XiYkaEzfzikVDop/3BBjHPYsY8cc5i2EsQR9Auphga7j4YcfpngrKipS0SW2NhCL+QemZZq2BZU7bNgwtNXC210Nctttt6FvtA1UiIJ6v1RBvlkGlZ188slUKBxCIAhMazQdZgdYiywW6M/fe+89mBa9PX0XvYQZOiopBNz79ttv72nbKSsrYyEKaDpMsQyclMQxsPvQXw8OmAQrtAu6h30mpMN4dUzTyIzCScUKZjyE/YgRI9iuwC9QQKctyY36ikeXUdJ0mEEaPB0GAzCzA++88w4vTUIcMUuL9mkLegwpXHPNNf5l2IM/wbP//vujCYABxbaUCELVyJQnNizfC+YgTfsFIQY1HTuuV3IiH374oSsjY9RQShIeJArEKw+Xiah//vlnNkcyIfPYcmSmgKy6d+9uNxFGqAjoBVN8MsJfu3btZptthqpgLdRyBP2/QqgaDGQgo5tuMDc3F9qkx0vRECUUmg6zA3xIwHgwsxx66KEwMFoanUNruDKltYF/YOGZZ56hciMVGmk6TLGMBKz8hf6ysrJwQVLAJFinXeheMyEdJkuUN954A5dMryS+yQrQu0xRiJZ+/PFHNAolUvvm3MZCE/hvhUJQ0nSYQRqkw2gP2MMSeAkPPPAALg3WKPYT5VjHHDWt9GVJLCw/++wz1C8rDSWaBBwp7fZ3v/sdlBgYnik6WlsOTFeSgBzaEAUM2LRhyCfcpINPmR/Ewpv7hx9+mC3K71W1ZH7JHCgWqIZPWIBw8m8a3gwbOHAgGw0BR8cTTzwBndJgojwFKLQi7GV0M0F2ySWXQI8YgzIM0/5OQD2aDrMArCVgMHx6KDs7G9Yl0weMzZxWlBQCuttnn32gU8xNMmtHBE2HKTZhnAqLZzRz4oknhrb4gEl41VuGLjUT0mGAikCYcvPNN2NSIZRD8rAq7kX7bJeJD5ZJ4DAeX/FQCEqaDjNI9XQYgxuYogw3FHB4wgkn8AJpOYytLdqnRdg3cvvtt0ML1hXBAdK3b180Ic9dKhEHswlt4+KLL4b6mNkENI/WsJPoYLp0Du2BAwdCIIwHACQjAyf0uBYJS7XSbrNzSsZCycAaKTHrTtVcl9LmxfITgvHJvvvui3pQZzSdv2IiOuKd780333zJkiXUJmwg7SPqX6LpMJvAG3C6pBVhf+WVV4qlAfUPqQgniyFDhnhKducmEG6+aA00HaZYBgGruKrBgwdDmwzIEiVgEqzQLhycmZAOk/v2AFd6wAEH2P0pSq5SuFyh9jt37nzeeefJX38HYgbNitpXPN6FkqbDDNLg6TDTJHAJXAUtXrwYVyfJdO9af5F4ig5mHPbYY4/hEiwqgmME8UFlZSXKu+yyC1oxF5xK1BDtiGHwz0qKlws3/aUWvEYMBHkMmaIgzHHLY+M8TBSKlz4BjgKHL7zwAhrC1EZRY8+R2Oz8kmnQx+bm5ooAbSF5SagDA+Ghhx5ii+GA+qZOnYraZNGrRBYOZyhdHOCLL74IJZaWllKbktHIDDQdZgfaDCcUenKeKS4uZjgE5A+18VBJIa6++mpoMzopMBNNhymWkah3jz32gCrN1W9CBEyCddqFE3mGPB3GBTalumDBAly43ciYwvSiI7fAQPnJJ59cs2YNOyCtN4v/JigEJU2HGaRBOgzdluUrzwCEzmPHjpVVUDQTYYTmzcKgQYPQebuKMANByAQNyZpTiSC0BwnNe/bs+e2333qadIFtEP84fZGJHpHugw8+CFFwFGMvImJBRlDLMT8ow4HNAYoXPiSaQXY7AoHQkzBNefrpp1tfQ1Id4rGXLVsWIpSSLCoKjz/+OCsMlzZV2gZqB0OSqj/33HOhPk5eTL+Slkd9KY6mw+xgWgv9uUREI0eOhPvScCh1+eMf/1hRUSHenjGD6S7aF02HKTaRqAg8+eSTvjpDETAJv1KrMLzOhHQYhcl5BXMMGDVqFIVgC0xUDLWlwIAJc5jp75qRM7ppbu507xZQrPEmfi8dNgfhRSx3fSwYPTSzMSLpkFvifjzfTaW5oUZeUSwf++L6dJgFNB3WGGbPGevI1Ajuu+8+JtPpRmhFkcJcyaOTH374IbrdGopAnQCD5T//+Y/fnhJVYBX0ddjvvvvuvgqN5yPMfVpCr86ZZd26dSIWFoAEBnK3LCGkKvEJGHpwHWw3MKc0M8VkMN988w1EZzHNJOqAfqEjcNVVV/mNJQi0xhkBnHHGGayNlStRg3qXxMTee+/NGA8uToJMcXdp7PdwYbL51Dk/e+mwTUZ56bC81QgvY/kINUs65bhJMQlHm93ceDW3yAtZyzrkVqCGnYf+OLnWqWBz7r9aRMWIn/xhs6ETqYppKlKGZ0AZoNCvXz+aHByOzClKqjB16lR+UQnugo6C+mWh3dF0mBIG8UQsmOkPgDhmu+22oyrpy1hOiMCnWLNdGG9lyNNhEmtK4fbbb5dwNnCP1xY0iWnTpqE5SlicYEPUOnW1eJ9kwdw9oqxq9wExb9av/dpxdhk2t2NeeSxvXaygkEFDCzcEFl2yS9x02ISS2MSSWL77jFhs/JrY+FUd8gp3G+amw1ybwz8vAfcL+0sETYeFgNMkFkK4TPEn5opIyu27TGLrHClQtHW/IX95WvSLFSba4hcEzNbNAsavjOX2lU8GYv5d3dtuu41ayzQ4EGC011xzTWDkWgQSRs2o30yjK41BpXDGxwoEBdgnxYg9vYdoKpzK4j/1zTffsDnpAMC83+yEJREC3nnIIYegKrNylsXLKW0AZE4jEbEzouMwRAHzzq9+9auZM2c2GdelJ3VeNgqXjc01bfwH+/XSYadMLt105Opueati+StiBWti+UWdsiuwdUzkCw0IWbt4IWvHnApsKOw65MfJNV46DM3VuVmwCqcWW6XXjUwAHow/IgbEOdAmA4aqtA0QOCRvOmqBJ+U7H++++66vxaii6TAlPBJOYUjQJQGGwv/73/8kAGo2DGqQwKdYuV04XDMkHSZAL3xIFSuKI444AhLgHXvRoF0QMEHOjMgZMzVuD1BBtVNX7afD8A9v9NJh+HC5O+tXe+mweR3zKt2nw9ynuorMhFfTW6ec4q7jShCRuOkwbLkIMspi+YWxglUd8wp3H+qmw7z+uZu3C4mmwxKFayewevVqOBNOsbxkGCcsE4c4iUO7v3mXKPR1LKBL5oPfVhDNUiDco5XzzjsPjQaerBERCabclLZBfseEdxQw9uV+Q0ZB08Xlc1blMLFIz549/VIsNmrUKLSVOVN2aCgi7MUm58yZY64eAV0Zy4kiWqZj5BA49dRT2VzLZyi8n12Fx+OnVq1ate+++9KWMMRY4F5pYyh2GAn1K+AQtlRQUECVZd54xPVW8Uc8XAHgyItYf3KfDiveePTqzvmrYgXLYhNWxgoKvZRWVaK/7+F9v7KkQ25Fh9yyTrlFuw6d/WktImGvOS9YrfSiYkTMbh+8PqUlNDAuH2Bmp5xyCpMs4hBomfRscndKaW0afNYbJzEXcGrgzIJy//79Wz4dtBeaDlPCQFvH3pwgYfo8f9ppp1GP8Fyh58iASbAJu9CZZsiXJSlPkSqX8UuXLhWtYc+CxbyYmAdMgiFyE3Kuc78OWYUNXfR+iAGFKjfIqHNvgpU6VRVOFdNhnXOqO48r7eL/FoObFGvJhjd3HVfWJdt9KAzhRfexVT3GVHTNLu6SU4iqdh86x0+HJY2mw0LAp8PApEmTcKUwQgxPsUkgU287LorYGXQA8GtxreE3zDvtkhc788wz0TqvfeONN2Y3cAZiwSjzeuTi9lJpJ4477jjOJpmGpD/OOeccisKuKZq2feqpp0qLSksIzBT//ve/IUa6U9e9ej7NDOQSxdQ1asNhTk4OGoJvlGddJeHVBKbfKy4uXrJkCSqUyrmyoq/jGaUN4ETsH3jgELpglDhhwgQoC4pL7/i5EWrdZ7Pq3LgFhosNLqnSqfrRcY6aur7buJWx8atiE7x02PhC9/dqcyu8JFcwLm1sc79l6X53odD99bGColjBqh1GTP/EvTHMzBcELpt3Kq3iwQaAjUmUePLJJ4tZiu/CGYuLF6WFwBvQOZtwWsE+Kyvr2Wefhe5M9x5NNB2mhCHe+mH0LGyzzTarVq2i6Zv7RAmYBCu3C/1phjwdJvKkOuTBlg8//JDSEALRT5KgNt6uufvuu5sWcp17p6sKm3ezq7bOqXDzYN4sX+lUVzgV1U7Vt+5vh83tlFvZeVyp96jXhjtpLdn4mBjiDOyzxpb1GFPWfVxx1+wiSYd5IYUXYaDwCwNMAE2HJQoNg/uqqqr+/fv7F+zBlZvEOu1+9w/eDz25+OKLmauyO82zTsA/0YXK5UfKr7zySgiBcUa8B5ZhqxFhm0EtwD5ZGDlyJNSU9lNJg+CqP/nkEwgB5geB0ErtghgDcp40aRImr3Tyfq2KeCeZ91GAMMVLwG9I8BYCeXSLSLXSIoBPk3KDQJuS3xQHCFavXn344YfDlnr16sVqlTaGM44MZx5iv912202dOhWKw8DPTI/n/rJHTZVT49qtlwhzw1Q/HTZtXbdxKzvlr44VrIgVrHK/L5lX4t2FTeDpsPp0GD5b7G7jV2038puPERi4kSkEXu12AF4QRWxp7Q7pH+jzmWGHP7n66qthkAwOSXxQpLQqgVAT8hd1wEWw/Prrr6fKZK3pMCU8XJdKLMXBgGgVsyMVCp8VeiQEPsgm7MIwLkPSYbhARpzm17tY5t9yQpRjTi0WoZxR/1tvvYXmGhO193QYuug9fO7O8BXuBitwDQE9R5Rc9Z3j7DhiVmw8Yot1btDgPknu/s2dlmxuSDFhTWziytjE5bHxKzvmremUW+j/7Z684t2GzVmAdtzAwvvCJkohLVfTYSHBFdFEYSEXXHABrld8i4Tj7Y7cihw8eDC7bRHqlAMEZR4SRoH9+vWDKADGFGKRQPzH6ITDTWkb4DNpnMcffzzX/Gk/lTTGP//5T3MGCcTKySBVnXXWWRwU5tBQmoWRmAhtwIABECa8h/gKuLVwi0lRjRRQD0YEVkFsS9JbTWTE+BKcPwMS7jkX4OPya0H8hlS4fiohgE5F2jAVOjpw9NFHL1myBNoxjSrj/B6uG2Zb4+4QqsJka9zwsfpnxznhi/Ubj1690bh13cat7pK7qlPuGgSZ7r3buKC0ic399f3coq7ZxVljKrqOq4jlF20z8gemw9yBgbbQmtugt7nCT1v50z+IA6F/gL1h5UIPBvdF45SC0mYwFvUPPOiod9111/Hjx9MtVFRURN8/aDpMCYkZmmAPMCpeffVVSd5TlYxpQhAwCa9Ny9CTZkI6jFcnj5kARJmiGriqk046iTIBAdeWDLAK2onkNaZOndqYqL0vSFZ7z4URLy2FA3er9X5TrPoHx9lh5PexiWtjBatj+e5P6ddnxJrfx/KLYxPXxD7202Gx/DXuQ+m57l07bLsMm+ummtyuIXxHeKPpsDZFLkqu6+CDD8YlM/0EQ+JKG7FOO4Y70jTGyMqVK9HJJtZ4IeC1Y2ByjGCP+tkEynw1Ly9vjz32YDcIBhc7Jqk6pW3gDAIg+R9//NGuMaQQuPDBgwdDCBAIwOiwe2eFUxKcwIwZM9hiY5OIYiJSouvgHmEAzlOw1FdojyofhGqwF//DSd9r2YW+q4lQkB0DMCREIyiw5zgPUH755Ze33HJL1Ineei0obYGMO+ypU3D33XcjehTTgsqovozzfrhoyKDWTYQxHeb+un1N7QrHOfmz4k1Hrt10TEnP0eu7Zxd2ySn0cmGIQrk1E6lyb6TDqrqOrY7ll/y/kbMlHeZKHK1D5O6Gknu32DuVnsDeAGxMDI+MHj169913p4kqbY+sFuGZoQVvPnE5+eSTGSGD0EmANkbTYUp4EAzB7v2DWOzNN9+k+sx5UX48IlECJuG3YRV2PhPSYQwxAYNL7Cle7KmsZcuWYQEjrs0iZgaBk1ZxcbHXlwbxtICuYeNMjxPYWK52sBjaceS3sY9XxAqWdchf2cFNaRV6P7XQ/N59+LygBFsH8zdKc6pjObWxvKodhy/4kU27sQ2MFh48pEloOixRaITy3CIfKJgzZw4X1cl8l8cuNGDszz//fHbVHUj2FGF6zsD9NLaCMzx/0003oSd8Phd+jB3jWDN9stIGQOwDBw6E7hj2pUrwZxEYJ6yOhicFu3/1okuXLtdeey3agpfgMJFJTWkMOhBxUCjwK9hg1KhRvmQ9h5ZM+lLiQHohKT/zzDPyaFizgwJdFe/HicC8YwemT59+yimnsAmlzTAn37///e8TJ06kUkyjYiEzwcV76TAIBe6owqmqXeWmw9ZvMmrtRmPKu40p75RT5v5wWD63YvdvNyEQbeHe/auU7s/wx3KrYhNKthz148deeOqOEzSMwY29K360XobN+2uTaQg9Ay1NfIIYHnwawyF4nsB3t5VWBaKWNaMUNt98c/MLkpIBkPA+smg6TAkDAiAzLtl+++3592UQwYgqJVqVkCghAibht2QV+s0M+bJkg/EohcxrHz16NKRhN9yUJ3rkvjGc5oknnug13jjoFHqEGRAbynJY63znODt/9G1swooOeSs65q2qT4e1aHMjjAJEJBVdssu6jitDmNIhp8rNheXW4uQOI+bNgJTc1urTYb8wwATQdFhoAkvcTz75hCkeAFtiWc60PdL0rFmzxGPYVQRqM5NiGLbmGbPRzz77rHfv3pIRAxy87SifDAQO7Y477hDVZGaO5uWXX4YoYHi0QImMbcFqV65cyVgCojbHiNIYdE2QFQtyyP3RRx9tTvfhtMZHAlHAx+P9M1aq8GDNKkvcWvyb+ZKcfO+99/7whz/4tSutDDWL/RZbbPHf//4X8mcYyb0E9rAr0WCmgRHl/XnHqhoH64gyiGal45z0xdpeY1b2GFfaeVy5++fL80q8XBj2THW1cFvj/u4YQlz3GwxlsY+Lthw982Mv++YNZj9A9rba9E6HAdODAVqgZFhQQDh05JFH0m6VNobzCPZXXnlleXk51UQdpRBRSYcB+lPsQUFBAYQr8T3BITDLSqJQek0T/07EN/FnRDWnn3768uXLqT5biJsT98e2AIMttG52yetyAqAS1tOjR4/169ez89JW5sALp9vC5ffr149qpXCApLEgNO4TIhBho3LWfNttt6FFhFNmBwh04KoB//BKnfs/XsOUX1njFr5ynF1H/NAlv7DrmMJuOe5P6ccK1rsb4oy8dV600cRWHJtQEhtf0jWntPs47wGxvNJYfnWsoBIntx0xY7rjrHebQ5BX4f9MqduVxIDpzpw5k9cLCXAfAnxQhpiI8ccf3SfYAG017e0Wl5adnc1rJ7506uUjDzWIoQKRG97G1Vpj8G0CzsRbPhEV4A133HEHOhYRsQ8fPvyoo46iHNB/uXYBHQ5cKd8mJ81BSgkE3h8P3pCWmNJDWUTBPcFJ4B/EYnfeeSeNgSt2u/NgBGG+T6YM7OHGA4NF5OMJNQHwwYAKsMd57B988EFzmoCc2boSDghzypQpFDIlzMQ6Dk2x84yrm0Tgx/HB6667js2FuyfaGAMGDGBSjJaGPRs1oS2Z592eefjHBjwv9fAw+rDzDYJXXUX+UgLEPIMyBy8nSp5hgfPCNttsc/fdd9O5mb+2obh4MWqN+6efYN4l7lZTu9hxTv22MDZ8duec1V0mlMZy18Zy3N8O65S33v+OQsu2DnmFnXNWds1b3QWBawGC28XbjPv2E+9uLRwfNnhDLJMYHnv/Y0vz2acxZNodOXLkIYccQjOG8aPAshSkLJihnflq/DvljFtLKsArAuw2BMKL5UnA8wBl8/LxtoD0+EGpQV7Fp1i44oor5s2bl9KTclTSYea6DhPnp59+Kn9KBsqAAvjILgpUG19SWhXIORDmEg4PjIff/va3b775pgwAuyOBtcEwYA8I3dAilnwyXFGQARkC1sOBvX79ejQU+kudaQCXGRyDffr08STkIr8WQUGFBpqKV9YHH3yA5swHaP0prf6uF07AGVS7f2vS/XH9ai8OcJ8OGzy9c/Za97bbuMrYuOJY7vpYfmmHAmxl2KPs/mR+rnc+fp+9Jpa91v05huySzgVFsQlFMXwkr7hDzvLdR0xH5Qj3qp3qisriGrQc1pzl6TBetRhtQvBT8oUjjsTAfEOJ+XJLX8aMGWPO6ygDTyoNwJkC4pKnyZqwXq4A+TbJrAWgEr023bcdeeSR5rIc6jA10i7Ad40fP/6CCy7gpCkXIn0mFCDwj713yloIUgq82Twk/Djwj9MRXDXDDP+4HogIJ8UlUm79+/fH9IS1Im0Ae9M20hVxOLzq+++/nzKB3ADLIBk7obRZZkFmCqzJM0HIrQoUx/zUeeedRyHTy7nztDFTJ6NBGUTmFG8LWCBsYNy4cfDG4u44JNEoLsHsuVyReRJl01ZTFPOKAK9dJG+CM/Rs/rGnIEoMiAwxIXIChaPbZ599Bg4cKJ6NkoevY2pMceNDOELPF3qPZWEF4f7pp0WOc8znC7eevKJLwepYzqrY+LWxgrVdJxTHRq7wAtGG4tKG9h1y1nfLKek8tig2tqhjXmHHj5ftMPKLqV7Siw2jgJAYe1c37ImvpQxC5gIz4T558uRzzz2XA1+MnMEeYWyDN7AQP478Uj04E38yJeDQ5mDnJZhy4HUBHkIaFAihM0GBbxDvwffAUeDMDjvs8Mgjj6xevRpiZ2CQug/IR+jpMHGyKJSWlppKokHTuHmSryqJ4kqzIfASRwLwT9WLmgXYvbyEwi677PL4449DWYxLqDVPe9bAoJI5GPz5z39mT2AGtASCzuBkouCDEgGg8rRPKDSGhKooUJUQO8ViQiGHELVMRQQ1wJBwHsI//PDDTf261IcXsCR0q8Z7/rzGKfKeQnef1aqocX5wnN8M/r7DmFWxiU7sYyc2vsrNf+ViK47llLj7PD6aXu6e/+W+Y15p9/ySHjnFPcaVdh1XEstbHStYGStY0yV35da5S4+duGie2yiorXObdsuJRhcQICQ5d+5cXKzMOiHkhk9hz+kHMqStwuxXrFiBVkRutNugGNMIyJPXOGnSJETnFAL2gQIkjAL3AWhvjeG/qb42vJn5Di4JcFLO882nnHKKhF/sGPbtKH/2QQqrVq165ZVXsERkt01EOLgQKTcosZbgCS89MWWCstgPz0CwtJB//OMfX3zxBWc9moT8JKIoJS3BqsM0+JKSEggEUoKsREooeEMn4aeKAD4l8R51gUL//v0hZLZLabfvuEt1aKLl5eWLFi2ikKFBV3P1YMaRuZuaTQh+EKD8wAMPsFHr+kKFMIZZs2Y99dRTGI9+kwa0QBQwF/MyAa4Ul8bztDG3xx4om4epAq/LRK6LVwT8FzzMj+AlKhqjmG/bfffd77jjjq+++goSZnzI9S1shriiVwDMGcLARrv2/hw5bPwnxznly6WbZc+LZS+JFayNTVznJsUKijtP8oLVuLi0sX3H3OrYqLqOY5xOeU63goqeuSt3fX/y14xRoYXaWhTQpHuIDlR5W+YpR+YFljEjc4/D5cuXIxw67LDDGM4Rc+zzDJyDOArgDRd/LjNHCsGZFIIj2oRXLQEt4ZsByvgInL8IR2owC5DYNttsc/HFF+fm5kL4lDlVkNJE67fDzPzu+eefzzlM5mloi2WZp5XWACNBBgMLkDwLUMe//vWvV199FQoyvzSBObI1nq6SNHNRUdHll1/Onrjd8kCXzMOEkA9ijU3bwz5jZ3pZyFEUn376qRgANC55w9DIyDU599xzJRnndwCNYxbz02G11V46rM4phP6dmiqcxdvnOc6xHy/91dhlsZwiN/+VX+7+sEJOaSynWPbxZ/zzOcXdctZ3H1fcZWx5h+xS929TTljecfyyTXIX7vDh9Ntnlrp/BwXm7PbK/QOX6IM/zSYIpoftt9+elxl/4S1BXJxp4ZiBKDGqiQ2xkN7QyeCq+Rf3KRxYJqwUe1NEIreNNtqIhWYR85YH8VAnC9SdNPHEE0+gJxQ+u0QHJepoFzBpmvMmO7Ns2bIhQ4b07dt3zz339C7FlQwuxxzXvExcGl6Sa+QZvmoKNqPg5YOABHi41157Pf3005Az5wv+NjnsgYNRfFpaQrMHMjUvWbKEwhGSmZcF1CBrGNgt2oW0IWEKGcKnnSuh4RffYK6333475Yx4m6leAPknqUS6Yuju8MMPp+7sqkxMEQXWPHfu3AEDBpx55plbb701pwb2RDx84KLEGaY6uChcLC6HVy0XbhK49gCQ2FFHHfXMM8/IX2419UWfJuGxSF5xQ1Yxau/PoEM0ixzn9oV12w3/fssJqzvmrYqNXdpxcllsfFkse5174zYuLm10n13ZKdfpkO10zK3pPGrN5iN+6j1mxkw2CC/oKcH7nqYHDrFJZzIDMVHOC0LARFeuXPn+++9fdtllu+22mwR1tHxzsDQxQAje4A2vBsZXNKGLQ7c33nhjnnG9gHGZPAQ8lEvDGX6WZRbg0nv37g2ZFxQUUOCUs+mKseePcaciEUqHiUFznl66dOkOO+xANQiY2KgbV4FK4lCM8Zj5YII3w3HwI1tsscWJJ5742muv/fTTT6aOsAyj1jhT2p0mpTaOrq+//ho94XBloGxejntticCLxR7xExqiV5X5PgOBBMrKyiTF+dxzz0E4lBJhssAXX4tBDdizBhYkYfHAAw+YBuMKv7rG/YvRNe4E72ak3O9Hlrm5sLpiGBzvfa1wnAfnV+49ds4WI+dsnL+809jVHceu6zyuOKugvEdBZff8si7ZJV1yirvmlHbNdX8jzNx3zi3pkLPO+ypltfuTYePXxAp+7pozb8uPvtt/+LfvF7k/HOZ+W7IKMUZVTV1llVOVaHQhiYk777yT10uLdWWRCJ6E3M9SBRiJKD/yyCOsvLEgIP3g2DQvc8qUKRdeeKFpmcRc84jQsG9a/niJBsmPYDXIk/iUZMd+9atf3XDDDcuWLTPN1cx6tGMGRCwBfcPgNf2YCG3RokUfffTRHXfcgQXPdttt17NnT14XrpTCCQBRUBpN4AkvDRHvxEOWISXYEmRywgkn/O9//zNv/IjqOfCxN40kLZELxLXD0mBmtKJu3p/0IjjEHhLjYctBJZ7I/fGIQY3K33vvPTYK8zYtXEkSCJMa3GuvvcwhL2VohCOC2mk5+Agza1DfRRdd5LdnD9oDhhv6b1qF3NibMWPGW2+9deuttx566KFbbbUVrgg9YccEHHJc4yXi9f0X7wnAN0QHv1sNgVdxdSD+bdDpr3/96/322+/6669///33EVpTaECEyQIHmgx5nEl7/5YIEA7cfkWdGyi6BZzBfLDUcUY4zj9GfL/NkFlbZC/dKH91l4I1sdGrYrnrO+c2EJc2tu+UVxrLqYzllXWfuG7jUfP/b+Tcf8+pWibNoiX3p3URNLsBK3RWHwtkEBJvAxgnDuUM3JrYKsv0FYsXLx46dOjtt99+/PHH77jjjt4wCroF+ASOHR7CM6CMk/JO9zOpAHtLxJPzEAVckXlRhBfL8kYbbfT3v//9ggsuePnllydNmkRJYk8hm3EvZctXU5cIfVkS0uQe0AsXFRVdfPHFzH1gz/kV+vM0pbQKGAlbbLHFn//85zPOOAOLwNdff13uF4n1cz1AHUlBbhfbhZXDJMrLy7GoM/+okKxXJYZuORjz+Hi/fv1QufRcrihz4CThH3jgDKSNwoABA3bddVdZH0JiLCQKva24Xbrak08+mZErHCs64Pehrsa7w2Y8BI6Zv67CqalwjyudqorqIsf51nEe/animDHf7PXOp3uNnL3r8Hk7DZmz89AfsaGAbZdhcxvcdhwxZ7vRM7cZOXfrYYu3Hbp4xxGz9hz93Z/HfXfY6GkvLqtb4AUYTmm1U13r1FZXVVUwyEgUZorBnXfeuckmm7giCIU8HAHJo4zaaKieg/T7xTLgYRoDn8M5mPa5bNmyYcOGIZr/61//yuFP+5Q9C3KmWQLv79mz51/+8pfbbrsNPocdkBsAZhCAzgD/oD3AwEEI4g+femgP6BheQjnwaklJyfTp0wcPHvzEE09AgKeeeuo///nPPfbYY9tttxWPChgt+QeZyuabb47l9LXXXvvee++tWrXKl2A9FC+gZeJQCt7raQsuWSZNDMy77roLspIYmonpQJCdEDIYMbpHjx7NhuSeM+0Z5o1u8IySKOK1aKvz58/HjAyBmzGVaDCEKqlBBA+77bbbZ599xrYs6kt8mtRpDjq8CvCSvLpkyZIvv/zynXfeeeSRR66++mpcLExrp512wpoCnTTnCFyseRhxAqpBzzEMGbNhGG666aY77LADJrKTTjrpuuuue/DBByGBjz/+GLMnBUhBoQDpoSDiMpGTdG7AnAEzG4gOMkGgWO39nSe4RPdXbtc5zmzHeXWVc+b4+X96b8pvB0/b6f1pvxk5f9eP5gci0qa3nYfP3WHE3F9/8M1Ow788YNz0O78r/s69OeyUFle4zWJz02FVNU5ZjVPBgNnaAEsp4M1gnKb1yvTkuoBfWjUNXli3bh3CoXffffe555675ZZbsOw96KCDfvOb38jjVAEwxFIoLpKu0lFgz2kae3EdWFzAS+y7775HH330RRddhIXGK6+8MmHChEWLFsk0wegXUhXpiVTFgWBPRXinU5IIpcMApS/rSTPtAhcMDYFJkyaxoIQA0muQqVOnzpkzZ/Xq1ZBzwH1AKdSLCc7gbRwDEogEPpgkrM2sE2UZjVOmTMnJycEVTZ48eeLEiby6liNXJKtccaAZCC6fcoCEKRmR848//ghR4/wnHr74Wkx+fj4UhAJ0lJeX9/nnn3NVQ6dJ5YoDrfP+QE81jMub2t1gAyXvAKfwJvwPJSHaWOo4Cxz3NxqmOE5enTO63BlZ6m4flbjl7Gr/MLB9VOYMrawbUu6MWOdkFzqTS5xv69zABVWtRJDhWnVtFbpX6+blKiprq7y/a5koEB2EKQIEFEWiwLwhNIxN1GAapxn3A8iQYkxXYB6cCHCZNE6G44zgeR5n1q5di0Xd999//+mnn0J6eBUFmO7IkSMhQ4o0HrwnNzcXZllQUICqUPjuu+/k62/SVgCqAL2SDnin2xl0A7IKmAdBPwFegiE11luKF9e+atUqSPLbb7/94osvOOq9KeIX+OJLO7B0x/Vi5bxgwQJ4qgZlRcOQKIXgnXwzVNDgp9IGGhj2ZqgA6youLobc4OTHjx+PMYVVN/DF2mLwEVoX6sSinVMD2pKGZOynt5DbADFgcXFYGcKnQYljx46FIuAbMQEBqiYh8HF4VPgQVIvx0hr6givjSASon2U6OrMtlHFGyninHBKcKSoqWrx48ezZs7/55hs4PbnwePzLiwzuGPv4Y7gsOK5p06Zh8sJVzJs3D6qMd1CBC28MeRulan5K5Kz4wNC8L0h6QsGuyqlz76EigFiD4NnLi81ynJz1TvZ6Z3ShM7okGJQ2seHNo4qcCXXO144zw3GWeNV6s7v7Q7qwca/dCu8XRVL162lJ0qA1yoIC0OzFIYivk2laxgUKOGl+FmBSQziEYAAjC8EkPANHnD/8Ig8nU3Qb14Juw0tgap4xY8YPP/yAi0LMLNcrciDmwDeFTKHhDFwBCtwDhugAb5CTKUe0fjsMe4oeexbElEXEpnEriQLRNYj5KssgUIYKzAED5A0NLhqTh/VjxLLA1jnwZPglYw+BD6buMA5N/CWLigMTQzIqlqrYHPdsSJrDeK9zfy+suhJFVzV4H856W627c2+9OdUVtWXVNW6aqg7dqXPjg0JvW+fdN8OehyzH7xGjrHXcL0VWsn6vZtSEEKa2ugahDH8Awo3e3eoTRi4HmEYbAn4ce9FRQGKha04hZIRyOgC0JV47Xg1IQ94GxG80Ad4Q/x4InCcpeclFsgl5lWXs21ER0hP0QbohJ1Fo8KRpUfIGwfyUgJMm/tm0o8Gr4xnsA2LBoUgyvpDGyEqbAsEA4agM3AaIt6KWwE9hIAdGOvcE5UyQc2tjyjAwRwN3RvZEHUKP9MNmzCCKswu6ze5hbzp/gOak54Gm+ZK8GqA1+tmqoMPEPzbASVymvBQoA5YB9C6qN6viSZyRV6WguDGil5byJMLo0dvcLxi4ISoCVPjK4jp3jzIizwbj0gb3eDM+gq3YqStDM9BVpVNTgRPuM2hoFPVXu9/TxFIIm5sjy0BMkzYtE2XzsMEhgALL5juBNzL8t/E9gC+lFtJtFHBFLEuhQSAKeYN33b58xLu6ovHeIG+j9HBotpKKROvpMEVRMhnM+d7mH8iGHTwuX+WL7invpBcTtHTPDWXXydfX7NXk4ZZS2JsriqIoiqIobYMRQyJ69DbvGDsEqObWWFza4B6bfAp7v0avfrbobTjkexVFSQpNhymKoiiKoiiKoiiKoigZhKbDFEVRFEVRFEVRFEVRlAxC02GKoiiKoiiKoiiKoihKBqHpMEVRFEVRFEVRFEVRFCWD0HSYoiiKoiiKoiiKoiiKkkFoOkxRFEVRFEVRFEVRFEXJIDQdpiiKoiiKoiiKoiiKomQQmg5TFEVRFEVRFEVRFEVRMghNhymKoiiKoiiKoiiKoigZhKbDFEVRFEVRFEVRFEVRlAxC02GKoiiKoiiKoiiKoihKBqHpMEVRFEVRFEVRFEVRFCWD0HSYoiiKoiiKoiiKoiiKkkFoOkxRFEVRFEVRFEVRFEXJIDQdpiiKoiiKoiiKoiiKomQQmg5TFEVRFEVRFEVRFEVRMghNhymKoiiKoiiKoiiKoigZhKbDFEVRFEVRFEVRFEVRlAxC02GKoiiKoiiKoiiKoihKBqHpMEVRFEVRFEVRFEVRFCWD0HSYoiiKoiiKoiiKoiiKkkFoOkxRFEVRFEVRFEVRFEXJIDQdpiiKoiiKoiiKoiiKomQQmg5TFEVRFEVRFEVRFEVRMghNhymKoiiKoiiKoiiKoigZhKbDFEVRFEVRFEVRFEVRlAxC02GKoiiKoiiKoiiKoihKBqHpMEVRFEVRFEVRFEVRFCWD0HSYoiiKoiiKoiiKoiiKkkFoOkxRFEVRFEVRFEVRFEXJIDQdpiiKoiiKoiiKoiiKomQMjvP/AVBun6xH/54oAAAAAElFTkSuQmCC;container=0;" parent="2FmbblZv4TmwolMo87OG-15" vertex="1">
          <mxGeometry x="321.75" width="406.5" height="50" as="geometry" />
        </mxCell>
        <mxCell id="TF_Hh5dlnTuo7EPwATm2-8" value="&lt;font color=&quot;#000000&quot; face=&quot;Roboto Slab&quot; style=&quot;font-size: 150px;&quot;&gt;Fleet Protocol&lt;/font&gt;" style="text;html=1;align=center;verticalAlign=middle;whiteSpace=wrap;rounded=0;container=0;" parent="2FmbblZv4TmwolMo87OG-15" vertex="1">
          <mxGeometry y="70" width="1050" height="100" as="geometry" />
        </mxCell>
      </root>
    </mxGraphModel>
  </diagram>
</mxfile>
